<?xml version="1.0" standalone="no"?>
<!DOCTYPE svg PUBLIC "-//W3C//DTD SVG 1.1//EN" "http://www.w3.org/Graphics/SVG/1.1/DTD/svg11.dtd" >
<svg>
<metadata>
Created by FontForge 20110222 at Thu Apr 25 06:29:45 2013
 By Orthosie Webmaster
Digitised data copyright (c) Agfa Monotype, 2002. All rights reserved.
</metadata>
<defs>
<font id="BritishCouncilSansRegular" horiz-adv-x="600" >
  <font-face 
    font-family="BritishCouncilSansRegular"
    font-weight="400"
    font-stretch="normal"
    units-per-em="1000"
    panose-1="2 11 5 4 2 2 2 2 2 4"
    ascent="800"
    descent="-200"
    x-height="555"
    cap-height="742"
    bbox="-216 -205 1155 984"
    underline-thickness="20"
    underline-position="-123"
    unicode-range="U+0020-FB02"
  />
<missing-glyph horiz-adv-x="281" 
 />
    <glyph glyph-name=".notdef" horiz-adv-x="281" 
 />
    <glyph glyph-name=".null" horiz-adv-x="0" 
 />
    <glyph glyph-name="nonmarkingreturn" horiz-adv-x="281" 
 />
    <glyph glyph-name="space" unicode=" " horiz-adv-x="281" 
 />
    <glyph glyph-name="exclam" unicode="!" horiz-adv-x="289" 
d="M198 0h-106v96h106v-96zM197 756l-23 -590h-59l-23 590h105z" />
    <glyph glyph-name="quotedbl" unicode="&#x22;" horiz-adv-x="359" 
d="M144 742l-24 -281h-48l-24 281h96zM311 742l-24 -281h-48l-24 281h96z" />
    <glyph glyph-name="numbersign" unicode="#" horiz-adv-x="681" 
d="M437 403h-139l-46 -130h139zM666 464l-20 -61h-143l-47 -130h154l-20 -61h-156l-74 -212h-66l74 212h-138l-75 -212h-66l76 212h-151l21 61h151l46 130h-161l20 61h163l76 214h66l-76 -214h138l76 214h66l-76 -214h142z" />
    <glyph glyph-name="dollar" unicode="$" horiz-adv-x="614" 
d="M333 95q42 8 73.5 38t31.5 78q0 47 -28.5 73.5t-76.5 47.5v-237zM268 649q-38 -6 -66 -31t-28 -68q0 -38 24.5 -59t69.5 -40v198zM353 416q37 -15 68 -32t54 -40t36 -53t13 -70q0 -44 -15 -79t-41.5 -60t-61 -40t-73.5 -19v-95h-65v94q-59 5 -110 30.5t-88 64.5l52 55
q31 -33 69 -53t77 -26v265l-26 10q-33 13 -61 28.5t-48.5 36t-32.5 47.5t-12 63q0 39 14 70.5t38.5 54t57.5 36t70 16.5v74h65v-74q56 -5 101 -30t79 -63l-51 -54q-25 28 -58.5 49t-70.5 27v-225z" />
    <glyph glyph-name="percent" unicode="%" horiz-adv-x="828" 
d="M290 574q0 65 -25.5 95t-61.5 30t-61.5 -30t-25.5 -95t26 -95t61 -30t61 30t26 95zM712 168q0 65 -26 95t-61 30t-60.5 -30t-25.5 -95t25.5 -94.5t60.5 -29.5t61 29.5t26 94.5zM363 574q0 -42 -11.5 -75.5t-32.5 -57.5t-50.5 -37t-65.5 -13q-72 0 -116 49.5t-44 133.5
q0 41 11.5 74.5t32.5 57.5t50.5 37.5t65.5 13.5t65.5 -13t50.5 -37t32.5 -58t11.5 -75zM666 729l-459 -750l-49 27l459 750zM785 168q0 -42 -11.5 -75.5t-32.5 -57t-50.5 -36.5t-65.5 -13t-65.5 13t-50 36.5t-32 57t-11.5 75.5t11.5 75.5t32 57.5t50 37t65.5 13t65.5 -13
t50.5 -37t32.5 -57.5t11.5 -75.5z" />
    <glyph glyph-name="ampersand" unicode="&#x26;" horiz-adv-x="683" 
d="M253 362q-23 -15 -43.5 -31t-35.5 -35.5t-23.5 -42.5t-8.5 -52q0 -27 9 -52.5t27 -45.5t45.5 -32t65.5 -12q23 0 47.5 8t46.5 19.5t40 24.5t28 24zM388 598q0 42 -25.5 66t-62.5 24q-45 0 -68.5 -25.5t-23.5 -67.5q0 -36 17 -67t55 -73q51 32 79.5 63.5t28.5 79.5z
M502 77q-19 -17 -43 -33.5t-51.5 -29.5t-59 -21t-64.5 -8q-59 0 -102.5 16.5t-72 45t-42.5 67.5t-14 85q0 41 11.5 73.5t31.5 58.5t48 47t61 39q-39 44 -60.5 85t-21.5 96q0 31 11 59.5t33 50.5t55.5 35t78.5 13q40 0 71.5 -12.5t54 -33.5t34.5 -48.5t12 -58.5
q0 -59 -35.5 -105.5t-110.5 -95.5l185 -212q42 48 77 103l63 -52q-17 -27 -40.5 -57t-46.5 -54l113 -130h-109z" />
    <glyph glyph-name="quotesingle" unicode="'" horiz-adv-x="192" 
d="M144 742l-24 -281h-48l-24 281h96z" />
    <glyph glyph-name="parenleft" unicode="(" horiz-adv-x="310" 
d="M289 724q-44 -38 -75 -84.5t-51 -97.5t-29.5 -104t-9.5 -104t9.5 -104t29.5 -104t51 -97.5t75 -84.5l-41 -32q-48 32 -86.5 77t-65.5 99.5t-41 117t-14 128.5t14 128.5t41 117t65.5 99.5t86.5 77z" />
    <glyph glyph-name="parenright" unicode=")" horiz-adv-x="310" 
d="M62 756q48 -32 86.5 -77t65.5 -99.5t41 -117t14 -128.5t-14 -128.5t-41 -117t-65.5 -99.5t-86.5 -77l-41 32q44 38 75 84.5t51 97.5t29.5 104t9.5 104t-9.5 104t-29.5 104t-51 97.5t-75 84.5z" />
    <glyph glyph-name="asterisk" unicode="*" horiz-adv-x="407" 
d="M387 592l-149 -27l104 -110l-66 -48l-73 133l-72 -133l-67 48l105 110l-149 28l25 78l137 -65l-19 150h82l-20 -150l137 64z" />
    <glyph glyph-name="plus" unicode="+" 
d="M528 336h-194v-192h-68v192h-194v68h194v192h68v-192h194v-68z" />
    <glyph glyph-name="comma" unicode="," horiz-adv-x="230" 
d="M168 0l-72 -134h-39l54 134h-49v100h106v-100z" />
    <glyph glyph-name="hyphen" unicode="-" horiz-adv-x="314" 
d="M274 238h-234v75h234v-75z" />
    <glyph glyph-name="hyphen" unicode="&#xad;" horiz-adv-x="314" 
d="M274 238h-234v75h234v-75z" />
    <glyph glyph-name="period" unicode="." horiz-adv-x="230" 
d="M168 0h-106v100h106v-100z" />
    <glyph glyph-name="slash" unicode="/" horiz-adv-x="418" 
d="M418 742l-349 -742h-69l350 742h68z" />
    <glyph glyph-name="zero" unicode="0" horiz-adv-x="614" 
d="M468 366q0 86 -13 146t-34.5 98t-51 55t-62.5 17q-31 0 -60 -17t-51.5 -54t-36 -96.5t-13.5 -144.5q0 -82 13 -140.5t35.5 -96t51 -55t60.5 -17.5q33 0 62 17.5t51.5 54.5t35.5 94.5t13 138.5zM562 369q0 -88 -18 -159t-51 -121.5t-80.5 -77.5t-105.5 -27
q-60 0 -107 27.5t-80 78t-50.5 120.5t-17.5 156q0 91 17.5 163t50.5 122.5t80 77.5t107 27q59 0 106.5 -27t80.5 -77t50.5 -121.5t17.5 -161.5z" />
    <glyph glyph-name="one" unicode="1" horiz-adv-x="614" 
d="M374 0h-89v630q-8 -7 -23.5 -14.5t-34.5 -14t-38.5 -11.5t-35.5 -6v72q18 2 40 8.5t42 17.5t36.5 26t23.5 34h79v-742z" />
    <glyph glyph-name="two" unicode="2" horiz-adv-x="614" 
d="M548 0h-469v60l200 213q39 41 65 74.5t42.5 63.5t23.5 59t7 61q0 35 -11.5 62.5t-32 47t-47.5 29.5t-57 10q-49 0 -86.5 -24t-66.5 -62l-62 46q43 57 98 87t123 30q49 0 92.5 -15.5t75 -44.5t50 -71t18.5 -95q0 -37 -9 -70.5t-27.5 -68t-48 -71.5t-70.5 -80l-157 -166
h349v-75z" />
    <glyph glyph-name="three" unicode="3" horiz-adv-x="614" 
d="M212 354v72h54q70 0 113.5 37.5t43.5 100.5q0 55 -38.5 88t-105.5 33q-49 0 -84 -20.5t-64 -55.5l-58 49q39 50 92.5 74t116.5 24q57 0 100 -14t72 -39.5t43.5 -60.5t14.5 -77q0 -58 -30.5 -103t-92.5 -69q34 -7 62 -24t48 -41t30.5 -54t10.5 -62q0 -103 -64.5 -164.5
t-183.5 -61.5q-69 0 -129.5 28t-102.5 82l60 50q15 -18 34.5 -34.5t41.5 -28.5t46 -19t47 -7q70 0 113.5 40.5t43.5 115.5q0 63 -47.5 102t-128.5 39h-58z" />
    <glyph glyph-name="four" unicode="4" horiz-adv-x="614" 
d="M390 246v397l-254 -397h254zM557 178h-82v-178h-85v178h-347v60l321 504h111v-496h82v-68z" />
    <glyph glyph-name="five" unicode="5" horiz-adv-x="614" 
d="M282 464q117 0 184.5 -59.5t67.5 -172.5q0 -52 -16.5 -97t-48 -78t-77.5 -52t-106 -19q-70 0 -130.5 28.5t-102.5 82.5l60 49q15 -18 34.5 -34.5t41.5 -28.5t46 -19t48 -7q36 0 65 12.5t49.5 35.5t31.5 54.5t11 69.5q0 80 -46.5 121.5t-124.5 41.5h-167l45 349h356v-72
h-288l-26 -205h93z" />
    <glyph glyph-name="six" unicode="6" horiz-adv-x="614" 
d="M465 241q0 33 -9 63t-27 53.5t-44 37.5t-60 14q-30 0 -55.5 -11.5t-45.5 -30.5t-34.5 -45t-22.5 -54q0 -39 10 -77t29.5 -67.5t47.5 -48t65 -18.5q33 0 60 14.5t46 39t29.5 58t10.5 72.5zM459 608q-26 38 -56.5 56t-65.5 18q-36 0 -68 -17.5t-56 -54.5t-39 -94.5
t-17 -137.5q32 54 81 78t102 24q51 0 91 -17.5t67.5 -49t41.5 -75.5t14 -96q0 -51 -15.5 -97.5t-45 -82t-73.5 -56t-101 -20.5q-64 0 -111 27t-78 75.5t-46 116.5t-15 150q0 198 69 299.5t198 101.5q55 0 102.5 -23t86.5 -78z" />
    <glyph glyph-name="seven" unicode="7" horiz-adv-x="614" 
d="M523 679l-258 -679h-95l260 667h-370v75h463v-63z" />
    <glyph glyph-name="eight" unicode="8" horiz-adv-x="614" 
d="M470 211q0 37 -13 65.5t-35 47t-51 28t-61 9.5q-77 0 -121 -41t-44 -110q0 -36 14 -64t37 -47t53 -28.5t62 -9.5q38 0 67.5 12.5t50 33.5t31 48t10.5 56zM449 564q0 21 -10 42t-28 38t-43.5 27.5t-56.5 10.5q-39 0 -66.5 -12.5t-44.5 -30.5t-25 -39.5t-8 -39.5
q0 -33 12 -57.5t32 -40t46.5 -23t55.5 -7.5q23 0 47 8t44 24t32.5 41t12.5 59zM78 563q0 42 17 77t48 61t73 40.5t93 14.5q56 0 98.5 -17t71.5 -44t44 -60t15 -66q0 -68 -31 -111t-78 -62q60 -18 97.5 -66t37.5 -121q0 -54 -20 -96t-54.5 -70.5t-80.5 -43.5t-99 -15
q-64 0 -112.5 17.5t-81 47.5t-49 70.5t-16.5 85.5q0 40 10.5 71.5t29 54.5t43 39t52.5 26q-51 19 -79.5 63t-28.5 104z" />
    <glyph glyph-name="nine" unicode="9" horiz-adv-x="614" 
d="M447 474q0 39 -10 77t-29.5 67.5t-47.5 48t-65 18.5q-33 0 -60 -14.5t-46 -39t-29.5 -58t-10.5 -72.5q0 -33 9 -63t27 -53t44 -36.5t60 -13.5q30 0 55.5 11t45.5 30t34.5 44t22.5 54zM149 132q25 -35 57 -54t71 -19q36 0 68 17.5t56.5 54.5t39.5 94.5t17 137.5
q-32 -54 -81 -76.5t-102 -22.5q-51 0 -91 17.5t-67.5 48.5t-42 74.5t-14.5 95.5t15.5 98.5t45 81.5t73.5 55.5t101 20.5q64 0 111 -27t78 -75.5t46.5 -116.5t15.5 -150q0 -198 -69.5 -300t-198.5 -102q-55 0 -103 23t-85 76z" />
    <glyph glyph-name="colon" unicode=":" horiz-adv-x="230" 
d="M168 0h-106v100h106v-100zM168 388h-106v100h106v-100z" />
    <glyph glyph-name="semicolon" unicode=";" horiz-adv-x="230" 
d="M168 0l-72 -134h-39l54 134h-49v100h106v-100zM168 388h-106v100h106v-100z" />
    <glyph glyph-name="semicolon" unicode="&#x37e;" horiz-adv-x="230" 
d="M168 0l-72 -134h-39l54 134h-49v100h106v-100zM168 388h-106v100h106v-100z" />
    <glyph glyph-name="less" unicode="&#x3c;" 
d="M526 128l-451 209v69l451 207v-70l-373 -172l373 -173v-70z" />
    <glyph glyph-name="equal" unicode="=" 
d="M528 245h-456v64h456v-64zM528 433h-456v64h456v-64z" />
    <glyph glyph-name="greater" unicode="&#x3e;" 
d="M525 337l-451 -209v70l373 173l-373 172v70l451 -207v-69z" />
    <glyph glyph-name="question" unicode="?" horiz-adv-x="495" 
d="M289 0h-106v96h106v-96zM12 642q41 58 94.5 85.5t117.5 27.5q55 0 97 -15t70.5 -42.5t42.5 -65t14 -82.5q0 -34 -7.5 -62t-19.5 -51.5t-27.5 -43t-32.5 -37.5l-45 -47q-37 -38 -37 -80v-65h-85v71q0 40 14.5 69t40.5 56l48 50q28 29 45 62.5t17 81.5q0 26 -9 49.5
t-26 41.5t-42 28.5t-58 10.5q-43 0 -80 -23t-66 -66z" />
    <glyph glyph-name="at" unicode="@" horiz-adv-x="929" 
d="M581 432q-21 20 -47.5 31.5t-56.5 11.5q-38 0 -66.5 -20.5t-47.5 -52t-28.5 -68t-9.5 -69.5q0 -23 5.5 -44t16.5 -37.5t29 -26.5t43 -10q35 0 67 15.5t58 37.5zM476 541q32 0 64 -12t53 -35l7 38h73l-56 -344q-1 -4 -1.5 -8.5t0.5 -8.5q2 -14 12 -25t31 -11q41 0 71.5 22
t51 56t30.5 75.5t10 79.5q0 69 -26 124t-71 93t-107 58t-134 20q-82 0 -151 -28.5t-119 -79t-78 -118.5t-28 -147q0 -84 31 -150.5t84.5 -112t124 -70t149.5 -24.5q66 0 123 19t99 44l36 -44q-51 -31 -117 -51.5t-150 -20.5q-93 0 -173.5 28.5t-140 81.5t-93.5 129t-34 171
q0 94 33.5 172.5t93 134.5t140 87.5t174.5 31.5q78 0 149.5 -23.5t126 -67.5t86.5 -108t32 -145q0 -52 -13.5 -103.5t-41.5 -93t-71.5 -67.5t-102.5 -26q-36 0 -66 15.5t-41 38.5q-30 -26 -66.5 -40.5t-71.5 -14.5q-41 0 -72 14.5t-51.5 39.5t-30.5 58t-10 70
q0 49 15.5 98.5t45 89.5t72.5 65t99 25z" />
    <glyph glyph-name="A" unicode="A" horiz-adv-x="627" 
d="M434 276l-125 359l-122 -359h247zM621 0h-94l-71 204h-291l-69 -204h-90l258 742h94z" />
    <glyph glyph-name="B" unicode="B" horiz-adv-x="634" 
d="M340 72q78 0 115 38t37 107q0 66 -37 99.5t-122 33.5h-159v-278h166zM332 422q35 0 61.5 11t44.5 29t27 42t9 50q0 52 -36.5 84t-117.5 32h-146v-248h158zM85 0v742h245q62 0 106.5 -13t72.5 -37t41 -57.5t13 -73.5q0 -53 -23.5 -98.5t-80.5 -71.5q60 -17 93.5 -64
t33.5 -113q0 -99 -58 -156.5t-185 -57.5h-258z" />
    <glyph glyph-name="C" unicode="C" horiz-adv-x="647" 
d="M613 121q-45 -68 -106.5 -102t-136.5 -34t-134 28t-99 78.5t-61 120.5t-21 154q0 88 22.5 160t63.5 123t99 79t129 28q80 0 135 -32.5t97 -90.5l-65 -48q-32 45 -73 69.5t-95 24.5q-49 0 -89 -21.5t-69 -61t-45 -97t-16 -129.5t16.5 -129t45.5 -96.5t70 -61t89 -21.5
q60 0 102.5 30t77.5 81z" />
    <glyph glyph-name="D" unicode="D" horiz-adv-x="691" 
d="M309 75q52 0 94.5 19t73.5 55.5t48 91.5t17 127q0 140 -63 219.5t-180 79.5h-124v-592h134zM310 742q80 0 141 -28t102 -77.5t62 -118t21 -149.5q0 -74 -18.5 -141t-57 -117.5t-97.5 -80.5t-140 -30h-237v742h224z" />
    <glyph glyph-name="E" unicode="E" horiz-adv-x="582" 
d="M523 0h-438v742h425v-72h-336v-242h282v-72h-282v-284h349v-72z" />
    <glyph glyph-name="F" unicode="F" horiz-adv-x="555" 
d="M521 670h-346v-254h302v-72h-302v-344h-89v742h435v-72z" />
    <glyph glyph-name="G" unicode="G" horiz-adv-x="708" 
d="M554 83q-34 -49 -85 -73.5t-105 -24.5q-74 0 -131 28t-97 78.5t-60.5 120.5t-20.5 154q0 88 22.5 160t64 123t100 79t129.5 28q80 0 136.5 -30.5t98.5 -87.5l-66 -48q-33 45 -74.5 67t-95.5 22q-49 0 -89.5 -21.5t-70 -61t-45.5 -97t-16 -129.5t15.5 -129t45 -96.5
t71 -61t92.5 -21.5q27 0 56.5 10.5t54.5 30.5t41 50t16 69v97h-184v72h273v-391h-66z" />
    <glyph glyph-name="H" unicode="H" horiz-adv-x="685" 
d="M600 0h-89v355h-337v-355h-89v742h89v-312h337v312h89v-742z" />
    <glyph glyph-name="I" unicode="I" horiz-adv-x="270" 
d="M180 742v-742h-89v742h89z" />
    <glyph glyph-name="J" unicode="J" horiz-adv-x="510" 
d="M431 742v-561q0 -52 -17 -89t-45.5 -60.5t-65.5 -34.5t-76 -11q-144 0 -209 114l66 45q24 -41 55.5 -61.5t80.5 -20.5q20 0 41.5 6.5t39.5 21t29.5 38.5t11.5 59v554h89z" />
    <glyph glyph-name="K" unicode="K" horiz-adv-x="616" 
d="M611 0h-107l-249 369l-81 -91v-278h-89v742h89v-346l299 346h107l-265 -308z" />
    <glyph glyph-name="L" unicode="L" horiz-adv-x="539" 
d="M511 0h-426v742h89v-667h337v-75z" />
    <glyph glyph-name="M" unicode="M" horiz-adv-x="797" 
d="M712 0h-85v562l-202 -461h-60l-195 458v-559h-85v742h93l220 -519l226 519h88v-742z" />
    <glyph glyph-name="N" unicode="N" horiz-adv-x="686" 
d="M601 0h-87l-344 584v-584h-85v742h86l345 -584v584h85v-742z" />
    <glyph glyph-name="O" unicode="O" horiz-adv-x="718" 
d="M569 366q0 73 -15 131t-42.5 98.5t-66.5 62t-87 21.5t-86.5 -21.5t-65.5 -61t-42 -97t-15 -129.5q0 -71 15 -128t42.5 -97t66 -61.5t85.5 -21.5q48 0 87 21.5t66.5 61.5t42.5 96t15 125zM663 369q0 -86 -21.5 -156.5t-61.5 -121t-96 -78.5t-125 -28t-125.5 28t-96 78
t-61 120.5t-21.5 154.5q0 89 21 161t60.5 123t96 78.5t126.5 27.5t126 -27.5t95.5 -78.5t61 -122.5t21.5 -158.5z" />
    <glyph glyph-name="P" unicode="P" horiz-adv-x="605" 
d="M339 377q36 0 61.5 12.5t42 32.5t24.5 46.5t8 55.5q0 28 -9 54.5t-28 46.5t-48.5 32t-70.5 12h-145v-292h165zM329 741q64 0 109.5 -18t74.5 -48t42.5 -69t13.5 -80q0 -47 -15 -87.5t-43 -70t-69 -46.5t-92 -17h-176v-305h-89v741h244z" />
    <glyph glyph-name="Q" unicode="Q" horiz-adv-x="718" 
d="M506 137q30 40 46.5 98t16.5 131t-15 131t-42.5 98.5t-66.5 62t-87 21.5t-86.5 -21.5t-65.5 -61t-42 -97t-15 -129.5q0 -71 15 -128t42.5 -97t66 -61.5t85.5 -21.5q26 0 49 6.5t43 17.5l-87 104l57 48zM503 23q-62 -38 -144 -38q-69 0 -125.5 28t-96 78t-61 120.5
t-21.5 154.5q0 89 21 161t60.5 123t96 78.5t126.5 27.5t126 -27.5t95.5 -78.5t61 -122.5t21.5 -158.5q0 -96 -26.5 -172t-74.5 -127l65 -77l-57 -49z" />
    <glyph glyph-name="R" unicode="R" horiz-adv-x="645" 
d="M346 408q36 0 61.5 11.5t41.5 30.5t23.5 43t7.5 49q0 54 -37.5 90.5t-119.5 36.5h-149v-261h172zM597 0h-102l-147 336h-174v-336h-89v741h247q63 0 108.5 -14.5t75 -41t44 -62t14.5 -77.5q0 -74 -36.5 -126t-102.5 -72z" />
    <glyph glyph-name="S" unicode="S" horiz-adv-x="556" 
d="M328 417q39 -17 72 -35.5t57.5 -43.5t38.5 -58t14 -78q0 -55 -20 -95.5t-53 -67.5t-76.5 -40.5t-90.5 -13.5q-71 0 -134 29.5t-107 78.5l55 59q39 -44 88 -68.5t97 -24.5q26 0 52 8t47 24.5t34.5 41t13.5 57.5q0 29 -9.5 51t-27 39t-42 30.5t-55.5 27.5l-71 31
q-34 15 -64 31.5t-52 38.5t-35 51t-13 69q0 48 18 85t48.5 61.5t72.5 37.5t90 13q69 0 125 -27t96 -75l-54 -57q-32 37 -76 61t-91 24q-27 0 -51.5 -7.5t-43 -22t-29.5 -36t-11 -50.5q0 -45 30.5 -70.5t85.5 -48.5z" />
    <glyph glyph-name="T" unicode="T" horiz-adv-x="549" 
d="M533 667h-214v-667h-89v667h-214v75h517v-75z" />
    <glyph glyph-name="U" unicode="U" horiz-adv-x="665" 
d="M586 229q0 -66 -22 -112t-57.5 -75t-81 -42t-91.5 -13q-49 0 -95 14t-81 44t-56.5 77.5t-21.5 115.5v504h89v-504q0 -44 13 -77t35.5 -54.5t52.5 -32t64 -10.5q32 0 62 10t53.5 30t37.5 51.5t14 74.5v512h85v-513z" />
    <glyph glyph-name="V" unicode="V" horiz-adv-x="644" 
d="M618 742l-251 -742h-89l-252 742h94l204 -615l202 615h92z" />
    <glyph glyph-name="W" unicode="W" horiz-adv-x="869" 
d="M843 742l-188 -742h-87l-133 508l-133 -508h-85l-191 742h91l145 -598l135 520h77l137 -521l144 599h88z" />
    <glyph glyph-name="X" unicode="X" horiz-adv-x="619" 
d="M596 0h-105l-183 310l-184 -310h-101l234 383l-219 359h105l166 -283l167 283h101l-217 -356z" />
    <glyph glyph-name="Y" unicode="Y" horiz-adv-x="625" 
d="M600 742l-239 -443v-299h-89v294l-246 448h99l190 -355l190 355h95z" />
    <glyph glyph-name="Z" unicode="Z" horiz-adv-x="573" 
d="M528 0h-487v68l370 601h-351v72h458v-66l-370 -600h380v-75z" />
    <glyph glyph-name="bracketleft" unicode="[" horiz-adv-x="310" 
d="M249 -56h-158v798h158v-55h-79v-688h79v-55z" />
    <glyph glyph-name="backslash" unicode="\" horiz-adv-x="418" 
d="M418 0h-69l-349 742h68z" />
    <glyph glyph-name="bracketright" unicode="]" horiz-adv-x="310" 
d="M219 -56h-158v55h79v688h-79v55h158v-798z" />
    <glyph glyph-name="asciicircum" unicode="^" 
d="M538 394h-73l-165 283l-162 -283h-74l203 348h63z" />
    <glyph glyph-name="underscore" unicode="_" 
d="M604 -198h-610v55h610v-55z" />
    <glyph glyph-name="grave" unicode="`" horiz-adv-x="333" 
d="M257 656l-25 -37l-190 106l42 59z" />
    <glyph glyph-name="a" unicode="a" horiz-adv-x="544" 
d="M342 283q-62 -8 -102.5 -19t-64.5 -27t-33.5 -38t-9.5 -50q0 -39 27 -65.5t75 -26.5q42 0 78 17.5t78 52.5v162zM392 64q-45 -39 -89 -57t-92 -18q-40 0 -71.5 12.5t-53 34t-32.5 50.5t-11 61q0 50 18.5 83.5t54 55.5t87 34.5t118.5 20.5l69 8v31q0 33 -11 55.5t-29 36.5
t-40 20t-44 6q-48 0 -86.5 -19t-77.5 -55l-46 55q94 87 214 87q46 0 83.5 -12t64.5 -35.5t42 -58t15 -79.5v-381h-83v64z" />
    <glyph glyph-name="b" unicode="b" 
d="M160 131q35 -35 70 -53t77 -18q36 0 64.5 16t49 44.5t31 68t10.5 86.5q0 49 -11 90t-31 69.5t-49 44.5t-65 16q-44 0 -79 -20t-67 -50v-294zM157 0h-82v756h85v-262q29 33 68.5 52.5t93.5 19.5q48 0 90 -20.5t73 -58t48.5 -91t17.5 -119.5q0 -65 -17 -118.5t-48 -91
t-73 -58t-91 -20.5q-45 0 -86 16t-79 58v-63z" />
    <glyph glyph-name="c" unicode="c" horiz-adv-x="549" 
d="M520 113q-18 -25 -40 -47.5t-49 -39.5t-59.5 -27t-72.5 -10q-54 0 -99.5 20t-79 57t-52.5 90.5t-19 120.5q0 66 18.5 119t51.5 91t79 58.5t102 20.5q70 0 122.5 -30.5t88.5 -87.5l-62 -43q-26 40 -61 65t-88 25q-34 0 -63.5 -14t-51.5 -42t-34.5 -69.5t-12.5 -95.5
q0 -48 12 -87.5t34 -67.5t52 -43.5t66 -15.5q27 0 50 8.5t42.5 22.5t36 32t31.5 38z" />
    <glyph glyph-name="d" unicode="d" 
d="M440 425q-32 30 -67 50t-79 20q-36 0 -65 -16t-49 -44.5t-31 -69.5t-11 -90q0 -47 10.5 -86.5t31 -68t49 -44.5t64.5 -16q42 0 77.5 21t69.5 58v286zM440 70q-32 -43 -72 -62t-90 -19t-91.5 20.5t-72.5 58t-48 91t-17 118.5q0 66 17.5 119.5t48 91t72.5 58t90 20.5
q54 0 94 -19.5t69 -52.5v262h85v-756h-85v70z" />
    <glyph glyph-name="e" unicode="e" horiz-adv-x="577" 
d="M440 328q-7 77 -46.5 123.5t-103.5 46.5q-62 0 -102.5 -47.5t-48.5 -122.5h301zM522 96q-47 -58 -102 -82.5t-124 -24.5q-51 0 -96 18.5t-78.5 55.5t-53 91t-19.5 125q0 68 18 121.5t50.5 90t76 56t94.5 19.5q67 0 113.5 -27t74.5 -70t40.5 -96.5t12.5 -105.5h-393
q1 -51 15 -89.5t37 -65t52 -39.5t61 -13q42 0 83 18.5t81 69.5z" />
    <glyph glyph-name="f" unicode="f" horiz-adv-x="311" 
d="M332 680q-14 2 -31 4t-36 2q-38 0 -58.5 -15.5t-20.5 -59.5v-56h119v-68h-119v-487h-85v487h-90v68h90v56q0 78 39 112t122 34q18 0 37 -3t33 -5v-69z" />
    <glyph glyph-name="g" unicode="g" 
d="M440 425q-32 31 -67 50.5t-79 19.5q-71 0 -113.5 -57t-42.5 -155q0 -47 11 -85.5t31 -66t49 -42.5t65 -15q44 0 78.5 18.5t67.5 50.5v282zM525 5q0 -96 -58 -151.5t-174 -55.5q-80 0 -136.5 25t-94.5 60l45 58q37 -32 82.5 -52t103.5 -20q75 0 111 38t36 105v62
q-37 -39 -75.5 -55t-86.5 -16q-49 0 -91 19.5t-72.5 56t-48 88.5t-17.5 117q0 66 17.5 118.5t48 88.5t72.5 55.5t91 19.5q54 0 92 -19.5t70 -54.5v63h85v-550z" />
    <glyph glyph-name="h" unicode="h" horiz-adv-x="577" 
d="M507 0h-85v376q0 54 -23 83.5t-79 29.5q-39 0 -81 -19t-79 -48v-422h-85v756h85v-263q36 29 81 51t99 22q80 0 123.5 -44.5t43.5 -121.5v-400z" />
    <glyph glyph-name="i" unicode="i" horiz-adv-x="240" 
d="M163 0h-85v555h85v-555zM163 673h-88v83h88v-83z" />
    <glyph glyph-name="j" unicode="j" horiz-adv-x="244" 
d="M166 -27q0 -79 -38.5 -127.5t-123.5 -48.5q-31 0 -61.5 8.5t-55.5 22.5l27 60q45 -20 85 -20t61 26.5t21 86.5v574h85v-582zM169 673h-88v83h88v-83z" />
    <glyph glyph-name="k" unicode="k" horiz-adv-x="515" 
d="M500 0h-98l-191 280l-51 -51v-229h-85v756h85v-420l215 219h105l-211 -216z" />
    <glyph glyph-name="l" unicode="l" horiz-adv-x="240" 
d="M163 0h-85v756h85v-756z" />
    <glyph glyph-name="m" unicode="m" horiz-adv-x="857" 
d="M473 0h-85v381q0 51 -18.5 79.5t-66.5 28.5q-32 0 -68 -18t-75 -49v-422h-85v555h82v-64q35 30 78.5 52.5t88.5 22.5q54 0 86 -24t48 -61q18 15 38.5 30t43 27t47.5 20t51 8q29 0 56 -8.5t47.5 -28t33 -51.5t12.5 -78v-400h-85v381q0 108 -85 108q-34 0 -72 -20.5
t-73 -47.5q1 -5 1 -12v-15v-394z" />
    <glyph glyph-name="n" unicode="n" horiz-adv-x="577" 
d="M507 0h-85v376q0 54 -23 83.5t-79 29.5q-39 0 -81.5 -19t-78.5 -48v-422h-85v555h82v-64q38 29 83.5 52t99.5 23q80 0 123.5 -44.5t43.5 -121.5v-400z" />
    <glyph glyph-name="o" unicode="o" 
d="M462 277q0 49 -11.5 89t-32.5 68.5t-51 44.5t-67 16t-67 -16t-51 -44.5t-32.5 -68.5t-11.5 -89t11.5 -89t32.5 -68.5t51 -44t67 -15.5t67 15.5t51 44t32.5 68.5t11.5 89zM551 277q0 -66 -18 -119.5t-51 -91t-79.5 -57.5t-102.5 -20t-102.5 20t-79.5 57.5t-51 91
t-18 119.5t18 119t51 91t79.5 58.5t102.5 20.5t102.5 -20.5t79.5 -58.5t51 -91t18 -119z" />
    <glyph glyph-name="p" unicode="p" 
d="M160 130q32 -30 67 -50t79 -20q36 0 65 15.5t49 44.5t31 69t11 90q0 47 -10.5 87t-31 68.5t-49 44.5t-64.5 16q-44 0 -78.5 -19t-68.5 -52v-294zM157 492q38 40 77.5 57t87.5 17q49 0 91 -20.5t73 -58.5t48 -91.5t17 -118.5q0 -67 -17.5 -120t-48.5 -90.5t-73 -57.5
t-90 -20q-54 0 -93.5 19t-68.5 52v-262h-85v757h82v-63z" />
    <glyph glyph-name="q" unicode="q" 
d="M440 424q-34 33 -68.5 52t-78.5 19q-36 0 -64.5 -16t-49 -44.5t-31 -68.5t-10.5 -87q0 -50 11 -90t31 -69t49 -44.5t65 -15.5q44 0 79 20t67 50v294zM525 -202h-85v262q-29 -33 -69 -52t-94 -19q-48 0 -90 20t-72.5 57.5t-48 90.5t-17.5 120q0 65 17 118.5t48 91.5
t72.5 58.5t91.5 20.5q48 0 86 -17t76 -57v63h85v-757z" />
    <glyph glyph-name="r" unicode="r" horiz-adv-x="399" 
d="M160 469q13 18 29.5 35t36 31t41.5 22.5t46 8.5q23 0 41.5 -4t35.5 -15l-37 -77q-13 8 -24.5 11t-29.5 3t-36.5 -7.5t-36.5 -20.5t-35 -30t-31 -36v-390h-85v555h85v-86z" />
    <glyph glyph-name="s" unicode="s" horiz-adv-x="482" 
d="M287 319q32 -12 59.5 -25t48 -31t32.5 -43t12 -61q0 -42 -17 -74t-45.5 -53t-66 -32t-77.5 -11q-59 0 -111.5 22t-92.5 65l48 51q35 -34 76 -52t79 -18q23 0 44.5 6.5t38.5 18.5t27.5 29t10.5 38q0 39 -30.5 59t-78.5 37l-61 22q-30 11 -54.5 23.5t-42 29.5t-27 39.5
t-9.5 52.5q0 33 13 61t38 49t61.5 32.5t84.5 11.5q54 0 100.5 -19t84.5 -60l-48 -51q-34 35 -69.5 48.5t-68.5 13.5q-22 0 -42 -5t-35 -14.5t-24 -24t-9 -32.5q0 -30 25 -48t66 -33z" />
    <glyph glyph-name="t" unicode="t" horiz-adv-x="344" 
d="M311 -4q-14 -3 -32.5 -5t-34.5 -2q-43 0 -70.5 9t-44 27.5t-23 47t-6.5 66.5v348h-89v68h89v126l85 43v-169h126v-68h-126v-345q0 -45 15.5 -63.5t53.5 -18.5q13 0 29 2.5t28 4.5v-71z" />
    <glyph glyph-name="u" unicode="u" horiz-adv-x="577" 
d="M420 64q-35 -28 -82 -51.5t-101 -23.5q-81 0 -124 44.5t-43 121.5v400h85v-376q0 -54 23.5 -83.5t79.5 -29.5q39 0 81.5 19t78.5 48v422h85v-555h-83v64z" />
    <glyph glyph-name="v" unicode="v" horiz-adv-x="538" 
d="M516 555l-209 -555h-79l-206 555h90l157 -444l159 444h88z" />
    <glyph glyph-name="w" unicode="w" horiz-adv-x="735" 
d="M712 555l-154 -555h-78l-115 391l-121 -391h-77l-144 555h87l103 -426l116 380h77l111 -380l113 426h82z" />
    <glyph glyph-name="x" unicode="x" horiz-adv-x="545" 
d="M521 0h-101l-150 221l-149 -221h-97l197 285l-188 270h101l137 -204l138 204h97l-186 -268z" />
    <glyph glyph-name="y" unicode="y" horiz-adv-x="531" 
d="M509 555l-225 -625q-13 -36 -27.5 -60.5t-35.5 -40.5t-50 -23t-69 -7q-17 0 -36 2.5t-33 6.5v72q12 -3 33.5 -6.5t37.5 -3.5q41 0 64 20.5t41 68.5l26 69l-213 527h90l166 -421l144 421h87z" />
    <glyph glyph-name="z" unicode="z" horiz-adv-x="454" 
d="M428 0h-403v57l291 427h-276v72h380v-57l-290 -427h298v-72z" />
    <glyph glyph-name="braceleft" unicode="{" horiz-adv-x="310" 
d="M281 -56h-37q-39 0 -65.5 8t-42.5 25.5t-22.5 45t-6.5 66.5v125q0 59 -20.5 81t-68.5 22v52q48 0 68.5 22t20.5 81v125q0 39 6.5 66.5t22.5 45t42.5 25.5t65.5 8h37v-55h-25q-41 0 -55.5 -20.5t-14.5 -71.5v-114q0 -57 -17.5 -89.5t-59.5 -48.5q42 -16 59.5 -48.5
t17.5 -89.5v-114q0 -51 14.5 -71.5t55.5 -20.5h25v-55z" />
    <glyph glyph-name="bar" unicode="|" horiz-adv-x="333" 
d="M197 -202h-61v958h61v-958z" />
    <glyph glyph-name="braceright" unicode="}" horiz-adv-x="310" 
d="M292 317q-48 0 -68 -22t-20 -81v-125q0 -39 -7 -66.5t-23 -45t-42.5 -25.5t-65.5 -8h-37v55h25q41 0 56 20.5t15 71.5v114q0 57 17 89.5t59 48.5q-42 16 -59 48.5t-17 89.5v114q0 51 -15 71.5t-56 20.5h-25v55h37q39 0 65.5 -8t42.5 -25.5t23 -45t7 -66.5v-125
q0 -59 20 -81t68 -22v-52z" />
    <glyph glyph-name="asciitilde" unicode="~" 
d="M570 352q-36 -29 -76 -48.5t-78 -19.5q-27 0 -55.5 10.5t-58.5 22.5q-6 2 -15 6t-18.5 8.5t-18 8t-14.5 4.5q-29 12 -57 12q-31 0 -57.5 -11t-61.5 -38l-28 45q36 29 76 48.5t78 19.5q27 0 54.5 -10.5t56.5 -21.5q6 -2 15.5 -6t19 -8.5t18.5 -8t15 -4.5q31 -13 58 -13
q31 0 57.5 11.5t61.5 37.5z" />
    <glyph glyph-name="Zcaron" horiz-adv-x="573" 
d="M528 0h-487v68l370 601h-351v72h458v-66l-370 -600h380v-75zM455 918l-133 -124h-66l-132 124l28 34l137 -98l137 98z" />
    <glyph glyph-name="Zcaron" unicode="&#x17d;" horiz-adv-x="573" 
d="M528 0h-487v68l370 601h-351v72h458v-66l-370 -600h380v-75zM455 918l-133 -124h-66l-132 124l28 34l137 -98l137 98z" />
    <glyph glyph-name="zcaron" horiz-adv-x="454" 
d="M428 0h-403v57l291 427h-276v72h380v-57l-290 -427h298v-72zM399 743l-132 -125h-66l-132 125l28 34l137 -99l137 98z" />
    <glyph glyph-name="zcaron" unicode="&#x17e;" horiz-adv-x="454" 
d="M428 0h-403v57l291 427h-276v72h380v-57l-290 -427h298v-72zM399 743l-132 -125h-66l-132 125l28 34l137 -99l137 98z" />
    <glyph glyph-name="nonbreakingspace" unicode="&#xa0;" horiz-adv-x="281" 
 />
    <glyph glyph-name="exclamdown" unicode="&#xa1;" horiz-adv-x="289" 
d="M197 -198h-105l23 587h59zM197 459h-106v96h106v-96z" />
    <glyph glyph-name="cent" unicode="&#xa2;" horiz-adv-x="614" 
d="M386 562q-28 11 -60 11q-34 0 -63.5 -14t-51.5 -42t-34.5 -69.5t-12.5 -95.5q0 -48 12 -87.5t34 -67.5zM546 191q-18 -25 -40 -47.5t-49 -39.5t-59.5 -27t-72.5 -10q-55 0 -101 20l-85 -176l-53 28l87 180q-45 37 -71.5 96.5t-26.5 139.5q0 66 18.5 119t51.5 91t79 58.5
t102 20.5q50 0 91 -16l44 91l54 -26l-45 -94q20 -14 36.5 -32.5t30.5 -40.5l-62 -43q-8 13 -17.5 25t-20.5 22l-180 -374q31 -18 71 -18q27 0 50 8.5t42.5 22.5t36 32t31.5 38z" />
    <glyph glyph-name="sterling" unicode="&#xa3;" horiz-adv-x="614" 
d="M462 365v-68h-211q0 -5 1 -12t1 -14q0 -55 -22.5 -105t-60.5 -91h398v-75h-503v66q45 25 72 76.5t27 132.5q0 6 -1 12t-1 10h-77v68h67q-4 17 -8 37.5t-7 42t-5 41.5t-2 36q0 51 13 94t40 74t69 48.5t101 17.5q62 0 112.5 -25.5t87.5 -82.5l-65 -45q-23 40 -54 59.5
t-76 19.5q-69 0 -104 -43t-35 -116q0 -38 8.5 -79t16.5 -79h218z" />
    <glyph glyph-name="currency" unicode="&#xa4;" horiz-adv-x="573" 
d="M411 370q0 25 -9 48t-25 40.5t-39.5 28t-51.5 10.5q-27 0 -49.5 -10.5t-38 -27.5t-24.5 -40.5t-9 -48.5q0 -26 9 -48.5t25.5 -39.5t38.5 -27t48 -10q27 0 50 10t39.5 27t26 39.5t9.5 48.5zM534 164l-42 -42l-95 93q-29 -20 -55.5 -27.5t-55.5 -7.5q-28 0 -55.5 8.5
t-53.5 27.5l-96 -94l-43 42l95 97q-18 25 -27 53t-9 56q0 29 8 57t27 53l-94 95l43 43l94 -93q26 20 54.5 28.5t56.5 8.5q29 0 57.5 -8t54.5 -28l94 92l42 -43l-91 -93q20 -26 28 -54.5t8 -57.5q0 -56 -37 -111z" />
    <glyph glyph-name="yen" unicode="&#xa5;" horiz-adv-x="614" 
d="M590 742l-194 -355h128v-61h-160l-9 -17v-58h169v-61h-169v-190h-89v190h-171v61h171v53l-12 22h-159v61h126l-196 355h99l185 -345l185 345h96z" />
    <glyph glyph-name="brokenbar" unicode="&#xa6;" 
d="M321 -197h-61v388h61v-388zM321 351h-61v388h61v-388z" />
    <glyph glyph-name="section" unicode="&#xa7;" horiz-adv-x="455" 
d="M228 269q19 -13 39.5 -28.5t37.5 -29.5q22 17 32.5 39.5t10.5 45.5q0 35 -13.5 56t-46.5 44l-59 42q-18 13 -36 26.5t-41 30.5q-23 -17 -34 -38.5t-11 -44.5q0 -17 2.5 -30.5t9 -25.5t18.5 -23t31 -24zM83 626q0 25 10 48.5t31 41.5t52 29t73 11q28 0 59 -8t66 -29
l-38 -56q-18 11 -41.5 19.5t-43.5 8.5q-33 0 -60.5 -17t-27.5 -49q0 -16 4 -28t14 -23.5t26 -24t39 -28.5l94 -65q43 -29 62 -66t19 -82q0 -39 -16.5 -73.5t-58.5 -63.5q40 -48 39 -98q0 -27 -12 -53t-34 -47t-53.5 -34t-71.5 -13q-48 0 -90 13.5t-83 45.5l45 53
q32 -24 63.5 -34.5t65.5 -10.5q35 0 62.5 20t28.5 52q1 33 -20.5 59.5t-76.5 64.5l-94 65q-46 32 -63.5 65.5t-17.5 80.5q0 32 18.5 70t62.5 67q-19 21 -25.5 40t-6.5 49z" />
    <glyph glyph-name="dieresis" unicode="&#xa8;" horiz-adv-x="333" 
d="M125 646h-94v90h94v-90zM302 646h-94v90h94v-90z" />
    <glyph glyph-name="copyright" unicode="&#xa9;" horiz-adv-x="866" 
d="M601 230q-33 -51 -73.5 -70t-90.5 -19q-48 0 -85 17t-62.5 47.5t-38.5 72t-13 89.5q0 51 13.5 94t39 73.5t63 48t84.5 17.5q49 0 84.5 -17.5t70.5 -62.5l-51 -37q-25 32 -49.5 45.5t-54.5 13.5q-54 0 -90.5 -43.5t-36.5 -128.5q0 -42 10 -74t27 -53.5t40.5 -32.5
t49.5 -11q31 0 60 16t52 54zM761 370q0 68 -25.5 128t-70 104.5t-104.5 70.5t-128 26t-128 -26t-104.5 -70.5t-70 -104.5t-25.5 -128t25.5 -128t70 -104t104.5 -69.5t128 -25.5t128 25.5t104.5 69.5t70 104t25.5 128zM818 371q0 -80 -30 -150.5t-82.5 -123t-122.5 -82.5
t-150 -30t-150.5 30t-122.5 82.5t-82 123t-30 150.5t30 150t82 122.5t122.5 83t150.5 30.5t150 -30.5t122.5 -83t82.5 -122.5t30 -150z" />
    <glyph glyph-name="ordfeminine" unicode="&#xaa;" horiz-adv-x="372" 
d="M248 583q-17 -2 -41.5 -4.5t-47 -10t-38 -21t-15.5 -37.5q0 -20 12.5 -32.5t38.5 -12.5q23 0 45 10t46 29v79zM314 419h-66v30q-52 -37 -107 -37q-51 0 -77 28t-26 70q0 40 22 63t54 35t68.5 16t65.5 7v12q0 30 -16.5 45.5t-44.5 15.5q-27 0 -54 -11.5t-57 -38.5l-35 42
q70 61 148 61q64 0 94.5 -34t30.5 -83v-221z" />
    <glyph glyph-name="guillemotleft" unicode="&#xab;" horiz-adv-x="516" 
d="M272 79l-41 -40l-196 216v47l196 216l41 -40l-156 -200zM486 79l-41 -40l-196 216v47l196 216l41 -40l-155 -200z" />
    <glyph glyph-name="logicalnot" unicode="&#xac;" 
d="M526 245h-66v188h-385v64h451v-252z" />
    <glyph glyph-name="registered" unicode="&#xae;" horiz-adv-x="866" 
d="M445 395q43 0 61.5 23t18.5 52t-21.5 48.5t-74.5 19.5h-83v-143h99zM607 149h-76l-81 191h-104v-191h-70v444h157q81 0 120.5 -35t39.5 -86q0 -39 -20 -70.5t-59 -47.5zM761 370q0 68 -25.5 128t-70 104.5t-104.5 70.5t-128 26t-128 -26t-104.5 -70.5t-70 -104.5
t-25.5 -128t25.5 -128t70 -104t104.5 -69.5t128 -25.5t128 25.5t104.5 69.5t70 104t25.5 128zM818 371q0 -80 -30 -150.5t-82.5 -123t-122.5 -82.5t-150 -30t-150.5 30t-122.5 82.5t-82 123t-30 150.5t30 150t82 122.5t122.5 83t150.5 30.5t150 -30.5t122.5 -83t82.5 -122.5
t30 -150z" />
    <glyph glyph-name="macron" unicode="&#xaf;" horiz-adv-x="333" 
d="M302 662h-271v61h271v-61z" />
    <glyph glyph-name="macron" unicode="&#x2c9;" horiz-adv-x="333" 
d="M302 662h-271v61h271v-61z" />
    <glyph glyph-name="degree" unicode="&#xb0;" horiz-adv-x="390" 
d="M282 615q0 36 -25.5 62t-61.5 26t-60.5 -26t-24.5 -62t24.5 -62.5t60.5 -26.5q18 0 34 7t27.5 19.5t18.5 28.5t7 34zM335 615q0 -29 -11 -55t-30 -45.5t-44.5 -30.5t-54.5 -11t-54.5 11t-44.5 30.5t-29.5 45.5t-10.5 55t10.5 55t29.5 45t44.5 30t54.5 11t54.5 -11
t44.5 -30t30 -45t11 -55z" />
    <glyph glyph-name="plusminus" unicode="&#xb1;" 
d="M527 11h-454v68h454v-68zM527 336h-193v-184h-68v184h-193v68h193v184h68v-184h193v-68z" />
    <glyph glyph-name="twosuperior" unicode="&#xb2;" horiz-adv-x="393" 
d="M339 341h-282v38l94 94q49 49 73.5 83t24.5 71q0 35 -20 52.5t-52 17.5q-23 0 -45 -10.5t-43 -36.5l-49 36q32 38 66.5 53.5t76.5 15.5q60 0 99.5 -32.5t39.5 -96.5q0 -26 -9.5 -50.5t-25.5 -48t-37 -45t-43 -40.5l-47 -40h179v-61z" />
    <glyph glyph-name="threesuperior" unicode="&#xb3;" horiz-adv-x="393" 
d="M134 525v55h44q34 0 55 19.5t21 46.5q0 24 -19 38t-54 14q-46 0 -85 -41l-44 40q52 59 133 59q67 0 104.5 -29.5t37.5 -78.5q0 -28 -14 -52t-45 -39q32 -11 53 -36t21 -60q0 -59 -40.5 -94t-112.5 -35q-44 0 -79 17t-64 49l42 40q20 -21 46.5 -34.5t52.5 -13.5
q38 0 60 18t22 51q0 31 -24 48.5t-69 17.5h-42z" />
    <glyph glyph-name="acute" unicode="&#xb4;" horiz-adv-x="333" 
d="M291 725l-190 -106l-25 37l173 128z" />
    <glyph glyph-name="mu" unicode="&#xb5;" horiz-adv-x="577" 
d="M420 60q-29 -28 -70 -49t-91 -21q-33 0 -59 9t-45 26v-227h-85v757h85v-376q0 -55 23.5 -86.5t79.5 -31.5q39 0 80.5 20t79.5 50v424h85v-555h-83v60z" />
    <glyph glyph-name="mu" unicode="&#x3bc;" horiz-adv-x="577" 
d="M420 60q-29 -28 -70 -49t-91 -21q-33 0 -59 9t-45 26v-227h-85v757h85v-376q0 -55 23.5 -86.5t79.5 -31.5q39 0 80.5 20t79.5 50v424h85v-555h-83v60z" />
    <glyph glyph-name="paragraph" unicode="&#xb6;" horiz-adv-x="528" 
d="M476 693h-37v-754h-55v754h-68v-754h-53v395q-51 3 -94 18t-74 41.5t-48.5 63t-17.5 81.5q0 44 13 81.5t41 64.5t72.5 42.5t106.5 15.5h214v-49z" />
    <glyph glyph-name="periodcentered" unicode="&#xb7;" horiz-adv-x="225" 
d="M166 321h-106v100h106v-100z" />
    <glyph glyph-name="periodcentered" unicode="&#x2219;" horiz-adv-x="225" 
d="M166 321h-106v100h106v-100z" />
    <glyph glyph-name="cedilla" unicode="&#xb8;" horiz-adv-x="333" 
d="M190 -27q45 -2 66.5 -24t21.5 -56q0 -24 -10 -41.5t-26 -28t-36.5 -15.5t-42.5 -5q-10 0 -25.5 1.5t-28.5 3.5v51q11 -2 21.5 -2.5t16.5 -0.5q32 0 49.5 8.5t17.5 29.5q0 40 -57 40h-18v68h51v-29z" />
    <glyph glyph-name="onesuperior" unicode="&#xb9;" horiz-adv-x="393" 
d="M240 341h-71v321q-14 -7 -34 -13t-43 -8v58q28 3 54 14.5t34 33.5h60v-406z" />
    <glyph glyph-name="ordmasculine" unicode="&#xba;" horiz-adv-x="402" 
d="M292 584q0 54 -25 86t-66 32t-65.5 -32t-24.5 -86t24.5 -86t65.5 -32t66 32t25 86zM360 584q0 -39 -11.5 -70.5t-32.5 -54t-50 -34.5t-65 -12q-72 0 -115 46.5t-43 124.5t43 124.5t115 46.5t115.5 -46.5t43.5 -124.5z" />
    <glyph glyph-name="guillemotright" unicode="&#xbb;" horiz-adv-x="516" 
d="M267 255l-196 -216l-41 40l156 199l-156 200l41 40l196 -216v-47zM481 255l-195 -216l-42 40l156 199l-156 200l42 40l195 -216v-47z" />
    <glyph glyph-name="onequarter" unicode="&#xbc;" horiz-adv-x="841" 
d="M657 143v185l-129 -185h129zM240 341h-71v321q-14 -7 -34 -13t-43 -8v58q28 3 54 14.5t34 33.5h60v-406zM674 729l-459 -750l-49 27l459 750zM771 88h-47v-88h-67v88h-201v48l190 270h78v-263h47v-55z" />
    <glyph glyph-name="onehalf" unicode="&#xbd;" horiz-adv-x="841" 
d="M234 341h-70v321q-14 -7 -34.5 -13t-43.5 -8v58q28 3 54 14.5t34 33.5h60v-406zM641 729l-459 -750l-49 27l459 750zM790 0h-282v38l94 94q49 49 73.5 83t24.5 71q0 35 -20 52.5t-52 17.5q-23 0 -45 -10.5t-43 -36.5l-49 36q32 38 66.5 53.5t76.5 15.5q60 0 99.5 -32.5
t39.5 -96.5q0 -26 -9.5 -50.5t-25.5 -48t-37 -45t-43 -40.5l-47 -40h179v-61z" />
    <glyph glyph-name="threequarters" unicode="&#xbe;" horiz-adv-x="841" 
d="M657 143v185l-129 -185h129zM134 525v55h44q34 0 55 19.5t21 46.5q0 24 -19 38t-54 14q-46 0 -85 -41l-44 40q52 59 133 59q67 0 104.5 -29.5t37.5 -78.5q0 -28 -14 -52t-45 -39q32 -11 53 -36t21 -60q0 -59 -40.5 -94t-112.5 -35q-44 0 -79 17t-64 49l42 40
q20 -21 46.5 -34.5t52.5 -13.5q38 0 60 18t22 51q0 31 -24 48.5t-69 17.5h-42zM771 88h-47v-88h-67v88h-201v48l190 270h78v-263h47v-55zM706 729l-459 -750l-49 27l459 750z" />
    <glyph glyph-name="questiondown" unicode="&#xbf;" horiz-adv-x="495" 
d="M482 -84q-41 -58 -94 -85.5t-117 -27.5q-56 0 -97.5 15t-70 42.5t-42.5 65t-14 82.5q0 32 6.5 58.5t18 48.5t25.5 41t29 36q1 1 7 8t13.5 14.5t13.5 14.5t7 8q6 6 16.5 17.5t13.5 19.5q11 14 15 27.5t4 27.5v62h85v-68q0 -40 -15 -69.5t-41 -56.5l-47 -49
q-28 -29 -45 -63t-17 -82q0 -26 9 -49.5t26 -41t42 -28t58 -10.5q43 0 80 23t66 66zM312 459h-106v96h106v-96z" />
    <glyph glyph-name="Agrave" unicode="&#xc0;" horiz-adv-x="627" 
d="M434 276l-125 359l-122 -359h247zM621 0h-94l-71 204h-291l-69 -204h-90l258 742h94zM388 831l-25 -37l-190 106l42 59z" />
    <glyph glyph-name="Aacute" unicode="&#xc1;" horiz-adv-x="627" 
d="M434 276l-125 359l-122 -359h247zM621 0h-94l-71 204h-291l-69 -204h-90l258 742h94zM445 900l-190 -106l-25 37l173 128z" />
    <glyph glyph-name="Acircumflex" unicode="&#xc2;" horiz-adv-x="627" 
d="M434 276l-125 359l-122 -359h247zM621 0h-94l-71 204h-291l-69 -204h-90l258 742h94zM475 828l-28 -34l-137 98l-138 -98l-28 34l132 124h67z" />
    <glyph glyph-name="Atilde" unicode="&#xc3;" horiz-adv-x="627" 
d="M434 276l-125 359l-122 -359h247zM621 0h-94l-71 204h-291l-69 -204h-90l258 742h94zM282 822q-11 5 -22 8t-21 3q-17 0 -30.5 -5.5t-33.5 -24.5l-30 30q20 31 46.5 46t51.5 15q22 0 49 -11l37 -15q13 -5 23.5 -9t21.5 -4q17 0 30.5 5.5t33.5 24.5l30 -30
q-20 -31 -46 -46t-51 -15q-14 0 -27.5 4.5t-27.5 9.5z" />
    <glyph glyph-name="Adieresis" unicode="&#xc4;" horiz-adv-x="627" 
d="M434 276l-125 359l-122 -359h247zM621 0h-94l-71 204h-291l-69 -204h-90l258 742h94zM267 794h-94v90h94v-90zM444 794h-94v90h94v-90z" />
    <glyph glyph-name="Aring" unicode="&#xc5;" horiz-adv-x="627" 
d="M434 276l-125 359l-122 -359h247zM365 796q0 22 -15.5 39t-38.5 17q-22 0 -38 -16.5t-16 -39.5t15.5 -38.5t38.5 -15.5t38.5 16t15.5 38zM621 0h-94l-71 204h-291l-69 -204h-90l249 715q-20 14 -31 35t-11 46q0 20 7.5 38.5t21 32t31.5 21.5t38 8q21 0 39 -8.5t31 -22
t20.5 -32t7.5 -37.5q0 -24 -11 -45.5t-30 -35.5z" />
    <glyph glyph-name="AE" unicode="&#xc6;" horiz-adv-x="950" 
d="M453 276v376l-205 -376h205zM891 0h-438v204h-245l-111 -204h-98l415 742h464v-72h-336v-242h282v-72h-282v-284h349v-72z" />
    <glyph glyph-name="Ccedilla" unicode="&#xc7;" horiz-adv-x="647" 
d="M613 121q-45 -68 -106.5 -102t-136.5 -34h-3v-12q45 -2 66.5 -24t21.5 -56q0 -24 -10 -41.5t-26 -28t-36.5 -15.5t-42.5 -5q-10 0 -25.5 1.5t-28.5 3.5v51q11 -2 21.5 -2.5t16.5 -0.5q32 0 49.5 8.5t17.5 29.5q0 40 -57 40h-18v55q-63 10 -111.5 41.5t-81.5 81t-50.5 114
t-17.5 140.5q0 88 22.5 160t63.5 123t99 79t129 28q80 0 135 -32.5t97 -90.5l-65 -48q-32 45 -73 69.5t-95 24.5q-49 0 -89 -21.5t-69 -61t-45 -97t-16 -129.5t16.5 -129t45.5 -96.5t70 -61t89 -21.5q60 0 102.5 30t77.5 81z" />
    <glyph glyph-name="Egrave" unicode="&#xc8;" horiz-adv-x="582" 
d="M523 0h-438v742h425v-72h-336v-242h282v-72h-282v-284h349v-72zM381 831l-25 -37l-190 106l42 59z" />
    <glyph glyph-name="Eacute" unicode="&#xc9;" horiz-adv-x="582" 
d="M523 0h-438v742h425v-72h-336v-242h282v-72h-282v-284h349v-72zM435 900l-190 -106l-25 37l173 128z" />
    <glyph glyph-name="Ecircumflex" unicode="&#xca;" horiz-adv-x="582" 
d="M523 0h-438v742h425v-72h-336v-242h282v-72h-282v-284h349v-72zM461 828l-28 -34l-137 98l-137 -98l-28 34l132 124h66z" />
    <glyph glyph-name="Edieresis" unicode="&#xcb;" horiz-adv-x="582" 
d="M523 0h-438v742h425v-72h-336v-242h282v-72h-282v-284h349v-72zM254 794h-94v90h94v-90zM431 794h-94v90h94v-90z" />
    <glyph glyph-name="Igrave" unicode="&#xcc;" horiz-adv-x="270" 
d="M180 742v-742h-89v742h89zM212 831l-26 -37l-189 106l41 59z" />
    <glyph glyph-name="Iacute" unicode="&#xcd;" horiz-adv-x="270" 
d="M180 742v-742h-89v742h89zM274 900l-190 -106l-25 37l173 128z" />
    <glyph glyph-name="Icircumflex" unicode="&#xce;" horiz-adv-x="270" 
d="M180 742v-742h-89v742h89zM300 828l-28 -34l-137 98l-137 -98l-28 34l132 124h66z" />
    <glyph glyph-name="Idieresis" unicode="&#xcf;" horiz-adv-x="270" 
d="M180 742v-742h-89v742h89zM94 794h-94v90h94v-90zM270 794h-94v90h94v-90z" />
    <glyph glyph-name="Eth" unicode="&#xd0;" horiz-adv-x="690" 
d="M309 75q51 0 94 19t74 55.5t48 91.5t17 127q0 140 -63 219.5t-181 79.5h-124v-262h176v-61h-176v-269h135zM309 742q80 0 141 -28t102.5 -77.5t62.5 -118t21 -149.5q0 -74 -18.5 -141t-57 -117.5t-97.5 -80.5t-140 -30h-238v344h-79v61h79v337h224z" />
    <glyph glyph-name="Ntilde" unicode="&#xd1;" horiz-adv-x="686" 
d="M601 0h-87l-344 584v-584h-85v742h86l345 -584v584h85v-742zM317 822q-11 5 -22 8t-21 3q-17 0 -30.5 -5.5t-33.5 -24.5l-29 30q20 31 46 46t51 15q22 0 49 -11l37 -15q13 -5 23.5 -9t21.5 -4q17 0 30.5 5.5t33.5 24.5l30 -30q-20 -31 -46 -46t-51 -15q-14 0 -27.5 4.5
t-27.5 9.5z" />
    <glyph glyph-name="Ograve" unicode="&#xd2;" horiz-adv-x="718" 
d="M569 366q0 73 -15 131t-42.5 98.5t-66.5 62t-87 21.5t-86.5 -21.5t-65.5 -61t-42 -97t-15 -129.5q0 -71 15 -128t42.5 -97t66 -61.5t85.5 -21.5q48 0 87 21.5t66.5 61.5t42.5 96t15 125zM663 369q0 -86 -21.5 -156.5t-61.5 -121t-96 -78.5t-125 -28t-125.5 28t-96 78
t-61 120.5t-21.5 154.5q0 89 21 161t60.5 123t96 78.5t126.5 27.5t126 -27.5t95.5 -78.5t61 -122.5t21.5 -158.5zM438 831l-25 -37l-190 106l42 59z" />
    <glyph glyph-name="Oacute" unicode="&#xd3;" horiz-adv-x="718" 
d="M569 366q0 73 -15 131t-42.5 98.5t-66.5 62t-87 21.5t-86.5 -21.5t-65.5 -61t-42 -97t-15 -129.5q0 -71 15 -128t42.5 -97t66 -61.5t85.5 -21.5q48 0 87 21.5t66.5 61.5t42.5 96t15 125zM663 369q0 -86 -21.5 -156.5t-61.5 -121t-96 -78.5t-125 -28t-125.5 28t-96 78
t-61 120.5t-21.5 154.5q0 89 21 161t60.5 123t96 78.5t126.5 27.5t126 -27.5t95.5 -78.5t61 -122.5t21.5 -158.5zM490 900l-189 -106l-26 37l174 128z" />
    <glyph glyph-name="Ocircumflex" unicode="&#xd4;" horiz-adv-x="718" 
d="M569 366q0 73 -15 131t-42.5 98.5t-66.5 62t-87 21.5t-86.5 -21.5t-65.5 -61t-42 -97t-15 -129.5q0 -71 15 -128t42.5 -97t66 -61.5t85.5 -21.5q48 0 87 21.5t66.5 61.5t42.5 96t15 125zM663 369q0 -86 -21.5 -156.5t-61.5 -121t-96 -78.5t-125 -28t-125.5 28t-96 78
t-61 120.5t-21.5 154.5q0 89 21 161t60.5 123t96 78.5t126.5 27.5t126 -27.5t95.5 -78.5t61 -122.5t21.5 -158.5zM523 828l-28 -34l-137 98l-137 -98l-28 34l132 124h66z" />
    <glyph glyph-name="Otilde" unicode="&#xd5;" horiz-adv-x="718" 
d="M569 366q0 73 -15 131t-42.5 98.5t-66.5 62t-87 21.5t-86.5 -21.5t-65.5 -61t-42 -97t-15 -129.5q0 -71 15 -128t42.5 -97t66 -61.5t85.5 -21.5q48 0 87 21.5t66.5 61.5t42.5 96t15 125zM663 369q0 -86 -21.5 -156.5t-61.5 -121t-96 -78.5t-125 -28t-125.5 28t-96 78
t-61 120.5t-21.5 154.5q0 89 21 161t60.5 123t96 78.5t126.5 27.5t126 -27.5t95.5 -78.5t61 -122.5t21.5 -158.5zM380 868q13 -5 24 -9t22 -4q17 0 30.5 5.5t33.5 24.5l29 -30q-20 -31 -46 -46t-51 -15q-14 0 -27.5 4.5t-27.5 9.5l-34 14q-11 5 -21.5 8t-20.5 3
q-17 0 -30.5 -5.5t-33.5 -24.5l-30 30q20 31 46 46t51 15q23 0 50 -11z" />
    <glyph glyph-name="Odieresis" unicode="&#xd6;" horiz-adv-x="718" 
d="M569 366q0 73 -15 131t-42.5 98.5t-66.5 62t-87 21.5t-86.5 -21.5t-65.5 -61t-42 -97t-15 -129.5q0 -71 15 -128t42.5 -97t66 -61.5t85.5 -21.5q48 0 87 21.5t66.5 61.5t42.5 96t15 125zM663 369q0 -86 -21.5 -156.5t-61.5 -121t-96 -78.5t-125 -28t-125.5 28t-96 78
t-61 120.5t-21.5 154.5q0 89 21 161t60.5 123t96 78.5t126.5 27.5t126 -27.5t95.5 -78.5t61 -122.5t21.5 -158.5zM318 794h-94v90h94v-90zM495 794h-94v90h94v-90z" />
    <glyph glyph-name="multiply" unicode="&#xd7;" 
d="M501 222l-50 -46l-151 147l-152 -148l-46 47l150 149l-151 147l47 48l152 -149l150 147l48 -47l-150 -146z" />
    <glyph glyph-name="Oslash" unicode="&#xd8;" horiz-adv-x="718" 
d="M227 119q52 -57 131 -57q48 0 87 21.5t66.5 61.5t42.5 96t15 125q0 65 -11.5 118t-33.5 92zM490 622q-52 57 -132 57q-48 0 -86.5 -21.5t-65.5 -61t-42 -97t-15 -129.5q0 -63 11.5 -114.5t32.5 -89.5zM576 656q42 -51 64.5 -123.5t22.5 -163.5q0 -86 -21.5 -156.5
t-61.5 -121t-96 -78.5t-125 -28q-105 0 -179 62l-41 -63l-44 30l47 72q-42 51 -64.5 122t-22.5 158q0 89 21 161t60.5 123t96 78.5t126.5 27.5q53 0 97.5 -16t80.5 -45l41 62l44 -30z" />
    <glyph glyph-name="Ugrave" unicode="&#xd9;" horiz-adv-x="665" 
d="M586 229q0 -66 -22 -112t-57.5 -75t-81 -42t-91.5 -13q-49 0 -95 14t-81 44t-56.5 77.5t-21.5 115.5v504h89v-504q0 -44 13 -77t35.5 -54.5t52.5 -32t64 -10.5q32 0 62 10t53.5 30t37.5 51.5t14 74.5v512h85v-513zM406 831l-25 -37l-190 106l42 59z" />
    <glyph glyph-name="Uacute" unicode="&#xda;" horiz-adv-x="665" 
d="M586 229q0 -66 -22 -112t-57.5 -75t-81 -42t-91.5 -13q-49 0 -95 14t-81 44t-56.5 77.5t-21.5 115.5v504h89v-504q0 -44 13 -77t35.5 -54.5t52.5 -32t64 -10.5q32 0 62 10t53.5 30t37.5 51.5t14 74.5v512h85v-513zM476 900l-190 -106l-25 37l173 128z" />
    <glyph glyph-name="Ucircumflex" unicode="&#xdb;" horiz-adv-x="665" 
d="M586 229q0 -66 -22 -112t-57.5 -75t-81 -42t-91.5 -13q-49 0 -95 14t-81 44t-56.5 77.5t-21.5 115.5v504h89v-504q0 -44 13 -77t35.5 -54.5t52.5 -32t64 -10.5q32 0 62 10t53.5 30t37.5 51.5t14 74.5v512h85v-513zM498 828l-28 -34l-137 98l-137 -98l-28 34l132 124h66z
" />
    <glyph glyph-name="Udieresis" unicode="&#xdc;" horiz-adv-x="665" 
d="M586 229q0 -66 -22 -112t-57.5 -75t-81 -42t-91.5 -13q-49 0 -95 14t-81 44t-56.5 77.5t-21.5 115.5v504h89v-504q0 -44 13 -77t35.5 -54.5t52.5 -32t64 -10.5q32 0 62 10t53.5 30t37.5 51.5t14 74.5v512h85v-513zM291 794h-94v90h94v-90zM468 794h-94v90h94v-90z" />
    <glyph glyph-name="Yacute" unicode="&#xdd;" horiz-adv-x="625" 
d="M600 742l-239 -443v-299h-89v294l-246 448h99l190 -355l190 355h95zM466 900l-189 -106l-26 37l174 128z" />
    <glyph glyph-name="Thorn" unicode="&#xde;" horiz-adv-x="607" 
d="M339 232q36 0 61.5 12.5t42 33t24.5 47t8 55.5q0 28 -9 54t-28 46t-48.5 32t-70.5 12h-145v-292h165zM329 596q64 0 109.5 -18.5t74.5 -48.5t42.5 -68.5t13.5 -78.5q0 -48 -15 -88.5t-43 -70t-69 -46.5t-92 -17h-176v-160h-89v742h89v-146h155z" />
    <glyph glyph-name="germandbls" unicode="&#xdf;" horiz-adv-x="589" 
d="M239 363v72h51q24 0 46 9.5t38.5 27t26 42t9.5 53.5q0 22 -7.5 43t-22.5 37.5t-38 27t-55 10.5q-57 0 -92 -32.5t-35 -95.5v-557h-85v555q0 52 15.5 89.5t43.5 62.5t68 37t89 12q44 0 82 -13t66 -37.5t44 -59t16 -76.5q0 -51 -28 -96.5t-82 -69.5q75 -18 113 -68.5
t38 -116.5q0 -61 -18.5 -104.5t-47.5 -71t-66.5 -40.5t-74.5 -13q-32 0 -66 7.5t-62 21.5l29 64q21 -11 45 -16.5t46 -5.5q21 0 43 9t40.5 28.5t30.5 50t12 72.5q0 33 -12 59.5t-34 45t-51.5 28t-64.5 9.5h-50z" />
    <glyph glyph-name="agrave" unicode="&#xe0;" horiz-adv-x="544" 
d="M342 283q-62 -8 -102.5 -19t-64.5 -27t-33.5 -38t-9.5 -50q0 -39 27 -65.5t75 -26.5q42 0 78 17.5t78 52.5v162zM392 64q-45 -39 -89 -57t-92 -18q-40 0 -71.5 12.5t-53 34t-32.5 50.5t-11 61q0 50 18.5 83.5t54 55.5t87 34.5t118.5 20.5l69 8v31q0 33 -11 55.5t-29 36.5
t-40 20t-44 6q-48 0 -86.5 -19t-77.5 -55l-46 55q94 87 214 87q46 0 83.5 -12t64.5 -35.5t42 -58t15 -79.5v-381h-83v64zM359 656l-25 -37l-190 106l42 59z" />
    <glyph glyph-name="aacute" unicode="&#xe1;" horiz-adv-x="544" 
d="M342 283q-62 -8 -102.5 -19t-64.5 -27t-33.5 -38t-9.5 -50q0 -39 27 -65.5t75 -26.5q42 0 78 17.5t78 52.5v162zM392 64q-45 -39 -89 -57t-92 -18q-40 0 -71.5 12.5t-53 34t-32.5 50.5t-11 61q0 50 18.5 83.5t54 55.5t87 34.5t118.5 20.5l69 8v31q0 33 -11 55.5t-29 36.5
t-40 20t-44 6q-48 0 -86.5 -19t-77.5 -55l-46 55q94 87 214 87q46 0 83.5 -12t64.5 -35.5t42 -58t15 -79.5v-381h-83v64zM405 725l-189 -106l-26 37l174 128z" />
    <glyph glyph-name="acircumflex" unicode="&#xe2;" horiz-adv-x="544" 
d="M342 283q-62 -8 -102.5 -19t-64.5 -27t-33.5 -38t-9.5 -50q0 -39 27 -65.5t75 -26.5q42 0 78 17.5t78 52.5v162zM392 64q-45 -39 -89 -57t-92 -18q-40 0 -71.5 12.5t-53 34t-32.5 50.5t-11 61q0 50 18.5 83.5t54 55.5t87 34.5t118.5 20.5l69 8v31q0 33 -11 55.5t-29 36.5
t-40 20t-44 6q-48 0 -86.5 -19t-77.5 -55l-46 55q94 87 214 87q46 0 83.5 -12t64.5 -35.5t42 -58t15 -79.5v-381h-83v64zM436 652l-28 -34l-137 98l-137 -98l-28 34l132 125h66z" />
    <glyph glyph-name="atilde" unicode="&#xe3;" horiz-adv-x="544" 
d="M342 283q-62 -8 -102.5 -19t-64.5 -27t-33.5 -38t-9.5 -50q0 -39 27 -65.5t75 -26.5q42 0 78 17.5t78 52.5v162zM392 64q-45 -39 -89 -57t-92 -18q-40 0 -71.5 12.5t-53 34t-32.5 50.5t-11 61q0 50 18.5 83.5t54 55.5t87 34.5t118.5 20.5l69 8v31q0 33 -11 55.5t-29 36.5
t-40 20t-44 6q-48 0 -86.5 -19t-77.5 -55l-46 55q94 87 214 87q46 0 83.5 -12t64.5 -35.5t42 -58t15 -79.5v-381h-83v64zM293 719q13 -5 24 -8.5t22 -3.5q17 0 30.5 5t33.5 24l29 -30q-20 -31 -46 -45.5t-51 -14.5q-14 0 -27.5 4t-27.5 9l-34 14q-11 5 -21.5 8t-20.5 3
q-17 0 -30.5 -5.5t-33.5 -24.5l-30 30q20 31 46 46t51 15q23 0 50 -11z" />
    <glyph glyph-name="adieresis" unicode="&#xe4;" horiz-adv-x="544" 
d="M342 283q-62 -8 -102.5 -19t-64.5 -27t-33.5 -38t-9.5 -50q0 -39 27 -65.5t75 -26.5q42 0 78 17.5t78 52.5v162zM392 64q-45 -39 -89 -57t-92 -18q-40 0 -71.5 12.5t-53 34t-32.5 50.5t-11 61q0 50 18.5 83.5t54 55.5t87 34.5t118.5 20.5l69 8v31q0 33 -11 55.5t-29 36.5
t-40 20t-44 6q-48 0 -86.5 -19t-77.5 -55l-46 55q94 87 214 87q46 0 83.5 -12t64.5 -35.5t42 -58t15 -79.5v-381h-83v64zM228 646h-94v90h94v-90zM405 646h-94v90h94v-90z" />
    <glyph glyph-name="aring" unicode="&#xe5;" horiz-adv-x="544" 
d="M342 283q-62 -8 -102.5 -19t-64.5 -27t-33.5 -38t-9.5 -50q0 -39 27 -65.5t75 -26.5q42 0 78 17.5t78 52.5v162zM331 721q0 23 -15.5 38.5t-38.5 15.5t-39 -15.5t-16 -38.5t16 -39t39 -16t38.5 16t15.5 39zM392 64q-45 -39 -89 -57t-92 -18q-40 0 -71.5 12.5t-53 34
t-32.5 50.5t-11 61q0 50 18.5 83.5t54 55.5t87 34.5t118.5 20.5l69 8v31q0 33 -11 55.5t-29 36.5t-40 20t-44 6q-48 0 -86.5 -19t-77.5 -55l-46 55q94 87 214 87q46 0 83.5 -12t64.5 -35.5t42 -58t15 -79.5v-381h-83v64zM371 721q0 -19 -7 -36t-19.5 -30.5t-29.5 -21.5
t-38 -8q-40 0 -68 28t-28 68q0 19 7.5 37t20.5 31.5t30.5 21.5t37.5 8q21 0 38 -8.5t29.5 -22t19.5 -31t7 -36.5z" />
    <glyph glyph-name="ae" unicode="&#xe6;" horiz-adv-x="917" 
d="M340 283q-62 -8 -102 -19t-63.5 -27t-33 -38t-9.5 -50q0 -41 27 -66.5t75 -25.5q22 0 45 8t45.5 21.5t43.5 31.5t41 37q-9 25 -14.5 53t-5.5 60v21zM780 328q-7 77 -46.5 123.5t-103.5 46.5q-62 0 -102.5 -47.5t-48.5 -122.5h301zM629 566q67 0 113.5 -27t74.5 -70
t40.5 -96.5t12.5 -105.5h-393q1 -51 15 -89.5t36.5 -65t51.5 -39.5t61 -13q42 0 84 18.5t81 69.5l56 -52q-47 -58 -102 -82.5t-124 -24.5q-64 0 -117.5 29t-85.5 86q-51 -51 -103.5 -83t-116.5 -32q-40 0 -71.5 12t-53.5 33.5t-33.5 50.5t-11.5 62q0 50 18.5 83.5t54 55.5
t87 34.5t118.5 20.5l68 8v31q0 58 -34.5 88t-88.5 30q-43 0 -82 -16.5t-82 -57.5l-46 55q51 47 103 67t111 20q66 0 113 -27t64 -75q32 52 80 77t102 25z" />
    <glyph glyph-name="ccedilla" unicode="&#xe7;" horiz-adv-x="549" 
d="M520 113q-18 -24 -39 -46t-47 -39t-57.5 -27.5t-69.5 -11.5v-16q45 -2 66.5 -24t21.5 -56q0 -24 -10 -41.5t-26 -28t-36.5 -15.5t-42.5 -5q-10 0 -25.5 1.5t-28.5 3.5v51q11 -2 21.5 -2.5t16.5 -0.5q32 0 49.5 8.5t17.5 29.5q0 40 -57 40h-18v58q-45 7 -83 30t-65.5 59.5
t-43 86t-15.5 109.5q0 66 18.5 119t51.5 91t79 58.5t102 20.5q70 0 122.5 -30.5t88.5 -87.5l-63 -43q-26 40 -60.5 65t-87.5 25q-34 0 -63.5 -14t-51.5 -42t-34.5 -69.5t-12.5 -95.5q0 -48 12 -87.5t34 -67.5t52 -43.5t66 -15.5q27 0 50 8.5t42.5 22.5t36 32t31.5 38z" />
    <glyph glyph-name="egrave" unicode="&#xe8;" horiz-adv-x="577" 
d="M440 328q-7 77 -46.5 123.5t-103.5 46.5q-62 0 -102.5 -47.5t-48.5 -122.5h301zM522 96q-47 -58 -102 -82.5t-124 -24.5q-51 0 -96 18.5t-78.5 55.5t-53 91t-19.5 125q0 68 18 121.5t50.5 90t76 56t94.5 19.5q67 0 113.5 -27t74.5 -70t40.5 -96.5t12.5 -105.5h-393
q1 -51 15 -89.5t37 -65t52 -39.5t61 -13q42 0 83.5 18.5t80.5 69.5zM381 656l-25 -37l-190 106l42 59z" />
    <glyph glyph-name="eacute" unicode="&#xe9;" horiz-adv-x="577" 
d="M440 328q-7 77 -46.5 123.5t-103.5 46.5q-62 0 -102.5 -47.5t-48.5 -122.5h301zM522 96q-47 -58 -102 -82.5t-124 -24.5q-51 0 -96 18.5t-78.5 55.5t-53 91t-19.5 125q0 68 18 121.5t50.5 90t76 56t94.5 19.5q67 0 113.5 -27t74.5 -70t40.5 -96.5t12.5 -105.5h-393
q1 -51 15 -89.5t37 -65t52 -39.5t61 -13q42 0 83.5 18.5t80.5 69.5zM433 725l-190 -106l-25 37l173 128z" />
    <glyph glyph-name="ecircumflex" unicode="&#xea;" horiz-adv-x="577" 
d="M440 328q-7 77 -46.5 123.5t-103.5 46.5q-62 0 -102.5 -47.5t-48.5 -122.5h301zM522 96q-47 -58 -102 -82.5t-124 -24.5q-51 0 -96 18.5t-78.5 55.5t-53 91t-19.5 125q0 68 18 121.5t50.5 90t76 56t94.5 19.5q67 0 113.5 -27t74.5 -70t40.5 -96.5t12.5 -105.5h-393
q1 -51 15 -89.5t37 -65t52 -39.5t61 -13q42 0 83.5 18.5t80.5 69.5zM454 652l-28 -34l-137 98l-137 -98l-29 34l133 125h66z" />
    <glyph glyph-name="edieresis" unicode="&#xeb;" horiz-adv-x="577" 
d="M440 328q-7 77 -46.5 123.5t-103.5 46.5q-62 0 -102.5 -47.5t-48.5 -122.5h301zM522 96q-47 -58 -102 -82.5t-124 -24.5q-51 0 -96 18.5t-78.5 55.5t-53 91t-19.5 125q0 68 18 121.5t50.5 90t76 56t94.5 19.5q67 0 113.5 -27t74.5 -70t40.5 -96.5t12.5 -105.5h-393
q1 -51 15 -89.5t37 -65t52 -39.5t61 -13q42 0 83.5 18.5t80.5 69.5zM248 646h-94v90h94v-90zM425 646h-94v90h94v-90z" />
    <glyph glyph-name="igrave" unicode="&#xec;" horiz-adv-x="240" 
d="M163 0h-85v555h85v-555zM202 656l-25 -37l-190 106l42 59z" />
    <glyph glyph-name="iacute" unicode="&#xed;" horiz-adv-x="240" 
d="M163 0h-85v555h85v-555zM254 725l-190 -106l-26 37l174 128z" />
    <glyph glyph-name="icircumflex" unicode="&#xee;" horiz-adv-x="240" 
d="M163 0h-85v555h85v-555zM285 652l-28 -34l-137 98l-137 -98l-28 34l132 125h66z" />
    <glyph glyph-name="idieresis" unicode="&#xef;" horiz-adv-x="240" 
d="M163 0h-85v555h85v-555zM79 646h-94v90h94v-90zM256 646h-94v90h94v-90z" />
    <glyph glyph-name="eth" unicode="&#xf0;" horiz-adv-x="606" 
d="M468 256q0 41 -11.5 77t-33.5 62.5t-52.5 41.5t-67.5 15q-38 0 -68 -15t-52 -41.5t-33.5 -62t-11.5 -77.5t11.5 -78t33.5 -62t52 -41t68 -15q37 0 67.5 14.5t52.5 41t33.5 62.5t11.5 78zM362 656q104 -85 149.5 -181t45.5 -215q0 -60 -18.5 -109.5t-51.5 -85.5t-80 -56
t-104 -20t-104 19.5t-80 55t-51.5 84.5t-18.5 109q0 59 18.5 107.5t51 83t77.5 53.5t98 19q32 0 64 -10.5t60 -30.5q-24 42 -58.5 79t-67.5 62l-123 -68l-24 44l104 59q-23 16 -42.5 28t-42.5 23l28 50q32 -14 63.5 -31t60.5 -37l119 66l24 -44z" />
    <glyph glyph-name="ntilde" unicode="&#xf1;" horiz-adv-x="577" 
d="M507 0h-85v376q0 55 -23 87t-79 32q-39 0 -80.5 -20.5t-79.5 -50.5v-424h-85v555h82v-62q38 29 83.5 51t99.5 22q80 0 123.5 -44.5t43.5 -121.5v-400zM316 719q13 -5 23.5 -8.5t21.5 -3.5q17 0 30.5 5t33.5 24l30 -30q-20 -31 -46 -45.5t-51 -14.5q-14 0 -27.5 4t-27.5 9
l-34 14q-11 5 -22 8t-21 3q-17 0 -30.5 -5.5t-33.5 -24.5l-29 30q20 31 46 46t51 15q23 0 50 -11z" />
    <glyph glyph-name="ograve" unicode="&#xf2;" 
d="M462 277q0 49 -11.5 89t-32.5 68.5t-51 44.5t-67 16t-67 -16t-51 -44.5t-32.5 -68.5t-11.5 -89t11.5 -89t32.5 -68.5t51 -44t67 -15.5t67 15.5t51 44t32.5 68.5t11.5 89zM551 277q0 -66 -18 -119.5t-51 -91t-79.5 -57.5t-102.5 -20t-102.5 20t-79.5 57.5t-51 91
t-18 119.5t18 119t51 91t79.5 58.5t102.5 20.5t102.5 -20.5t79.5 -58.5t51 -91t18 -119zM393 656l-25 -37l-190 106l42 59z" />
    <glyph glyph-name="oacute" unicode="&#xf3;" 
d="M462 277q0 49 -11.5 89t-32.5 68.5t-51 44.5t-67 16t-67 -16t-51 -44.5t-32.5 -68.5t-11.5 -89t11.5 -89t32.5 -68.5t51 -44t67 -15.5t67 15.5t51 44t32.5 68.5t11.5 89zM551 277q0 -66 -18 -119.5t-51 -91t-79.5 -57.5t-102.5 -20t-102.5 20t-79.5 57.5t-51 91
t-18 119.5t18 119t51 91t79.5 58.5t102.5 20.5t102.5 -20.5t79.5 -58.5t51 -91t18 -119zM427 725l-190 -106l-25 37l173 128z" />
    <glyph glyph-name="ocircumflex" unicode="&#xf4;" 
d="M462 277q0 49 -11.5 89t-32.5 68.5t-51 44.5t-67 16t-67 -16t-51 -44.5t-32.5 -68.5t-11.5 -89t11.5 -89t32.5 -68.5t51 -44t67 -15.5t67 15.5t51 44t32.5 68.5t11.5 89zM551 277q0 -66 -18 -119.5t-51 -91t-79.5 -57.5t-102.5 -20t-102.5 20t-79.5 57.5t-51 91
t-18 119.5t18 119t51 91t79.5 58.5t102.5 20.5t102.5 -20.5t79.5 -58.5t51 -91t18 -119zM465 652l-28 -34l-137 98l-137 -98l-28 34l132 125h66z" />
    <glyph glyph-name="otilde" unicode="&#xf5;" 
d="M462 277q0 49 -11.5 89t-32.5 68.5t-51 44.5t-67 16t-67 -16t-51 -44.5t-32.5 -68.5t-11.5 -89t11.5 -89t32.5 -68.5t51 -44t67 -15.5t67 15.5t51 44t32.5 68.5t11.5 89zM551 277q0 -66 -18 -119.5t-51 -91t-79.5 -57.5t-102.5 -20t-102.5 20t-79.5 57.5t-51 91
t-18 119.5t18 119t51 91t79.5 58.5t102.5 20.5t102.5 -20.5t79.5 -58.5t51 -91t18 -119zM321 719q13 -5 24 -8.5t22 -3.5q17 0 30.5 5t33.5 24l30 -30q-20 -31 -46.5 -45.5t-51.5 -14.5q-14 0 -27 4t-27 9l-34 14q-11 5 -22 8t-21 3q-17 0 -30.5 -5.5t-33.5 -24.5l-30 30
q20 31 46 46t51 15q23 0 50 -11z" />
    <glyph glyph-name="odieresis" unicode="&#xf6;" 
d="M462 277q0 49 -11.5 89t-32.5 68.5t-51 44.5t-67 16t-67 -16t-51 -44.5t-32.5 -68.5t-11.5 -89t11.5 -89t32.5 -68.5t51 -44t67 -15.5t67 15.5t51 44t32.5 68.5t11.5 89zM551 277q0 -66 -18 -119.5t-51 -91t-79.5 -57.5t-102.5 -20t-102.5 20t-79.5 57.5t-51 91
t-18 119.5t18 119t51 91t79.5 58.5t102.5 20.5t102.5 -20.5t79.5 -58.5t51 -91t18 -119zM258 646h-94v90h94v-90zM435 646h-94v90h94v-90z" />
    <glyph glyph-name="divide" unicode="&#xf7;" 
d="M347 146h-94v90h94v-90zM528 336h-456v68h456v-68zM347 504h-94v90h94v-90z" />
    <glyph glyph-name="oslash" unicode="&#xf8;" 
d="M206 93q37 -33 94 -33q37 0 67 15.5t51 44t32.5 68.5t11.5 89q0 44 -9 80t-26 64zM392 463q-38 32 -92 32q-37 0 -67 -16t-51 -44.5t-32.5 -68.5t-11.5 -89q0 -42 8.5 -77.5t24.5 -63.5zM476 493q35 -38 55 -92.5t20 -123.5q0 -66 -18 -119.5t-51 -91t-79.5 -57.5
t-102.5 -20q-81 0 -138 39l-33 -49l-44 30l37 54q-35 38 -54 92t-19 122q0 66 18 119t51 91t79.5 58.5t102.5 20.5q77 0 135 -38l33 48l44 -30z" />
    <glyph glyph-name="ugrave" unicode="&#xf9;" horiz-adv-x="577" 
d="M420 64q-35 -28 -82 -51.5t-101 -23.5q-81 0 -124 44.5t-43 121.5v400h85v-376q0 -54 23.5 -83.5t79.5 -29.5q39 0 81.5 19t78.5 48v422h85v-555h-83v64zM360 656l-25 -37l-190 106l42 59z" />
    <glyph glyph-name="uacute" unicode="&#xfa;" horiz-adv-x="577" 
d="M420 64q-35 -28 -82 -51.5t-101 -23.5q-81 0 -124 44.5t-43 121.5v400h85v-376q0 -54 23.5 -83.5t79.5 -29.5q39 0 81.5 19t78.5 48v422h85v-555h-83v64zM433 725l-190 -106l-25 37l173 128z" />
    <glyph glyph-name="ucircumflex" unicode="&#xfb;" horiz-adv-x="577" 
d="M420 64q-35 -28 -82 -51.5t-101 -23.5q-81 0 -124 44.5t-43 121.5v400h85v-376q0 -54 23.5 -83.5t79.5 -29.5q39 0 81.5 19t78.5 48v422h85v-555h-83v64zM455 652l-28 -34l-137 98l-137 -98l-28 34l132 125h66z" />
    <glyph glyph-name="udieresis" unicode="&#xfc;" horiz-adv-x="577" 
d="M420 64q-35 -28 -82 -51.5t-101 -23.5q-81 0 -124 44.5t-43 121.5v400h85v-376q0 -54 23.5 -83.5t79.5 -29.5q39 0 81.5 19t78.5 48v422h85v-555h-83v64zM248 646h-94v90h94v-90zM425 646h-94v90h94v-90z" />
    <glyph glyph-name="yacute" unicode="&#xfd;" horiz-adv-x="531" 
d="M509 555l-226 -629q-13 -36 -28 -60.5t-36 -40.5t-50 -23t-69 -7q-17 0 -35.5 2.5t-32.5 6.5v71q12 -3 33.5 -6t37.5 -3q41 0 64.5 20t40.5 68l27 74l-213 527h90l166 -421l144 421h87zM426 725l-190 -106l-25 37l173 128z" />
    <glyph glyph-name="thorn" unicode="&#xfe;" 
d="M160 130q32 -30 67 -50t79 -20q36 0 65 15.5t49 44.5t31 69t11 90q0 47 -10.5 87t-31 68.5t-49 44.5t-64.5 16q-44 0 -78.5 -19t-68.5 -52v-294zM160 494q35 38 74.5 55t87.5 17q49 0 91 -20.5t73 -58.5t48 -91.5t17 -118.5q0 -67 -17.5 -120t-48.5 -90.5t-73 -57.5
t-90 -20q-54 0 -93.5 19t-68.5 52v-262h-85v958h85v-262z" />
    <glyph glyph-name="ydieresis" unicode="&#xff;" horiz-adv-x="531" 
d="M509 555l-224 -625q-13 -36 -28 -60.5t-36 -40.5t-50 -23t-69 -7q-17 0 -36 2.5t-33 6.5v72q12 -3 33.5 -6.5t37.5 -3.5q41 0 64 20.5t41 68.5l26 69l-213 527h90l166 -421l144 421h87zM230 646h-94v90h94v-90zM407 646h-94v90h94v-90z" />
    <glyph glyph-name="Amacron" unicode="&#x100;" horiz-adv-x="627" 
d="M446 794h-271v61h271v-61zM434 276l-125 359l-122 -359h247zM621 0h-94l-71 204h-291l-69 -204h-90l258 742h94z" />
    <glyph glyph-name="amacron" unicode="&#x101;" horiz-adv-x="544" 
d="M412 662h-271v61h271v-61zM342 283q-62 -8 -102.5 -19t-64.5 -27t-33.5 -38t-9.5 -50q0 -39 27 -65.5t75 -26.5q42 0 78 17.5t78 52.5v162zM392 64q-45 -39 -89 -57t-92 -18q-40 0 -71.5 12.5t-53 34t-32.5 50.5t-11 61q0 50 18.5 83.5t54 55.5t87 34.5t118.5 20.5l69 8
v31q0 33 -11 55.5t-29 36.5t-40 20t-44 6q-48 0 -86.5 -19t-77.5 -55l-46 55q94 87 214 87q46 0 83.5 -12t64.5 -35.5t42 -58t15 -79.5v-381h-83v64z" />
    <glyph glyph-name="Abreve" unicode="&#x102;" horiz-adv-x="627" 
d="M451 908q-14 -55 -50 -84t-92 -29t-92.5 29t-49.5 84l44 12q14 -31 40 -47.5t58 -16.5t58 16.5t40 47.5zM434 276l-125 359l-122 -359h247zM621 0h-94l-71 204h-291l-69 -204h-90l258 742h94z" />
    <glyph glyph-name="abreve" unicode="&#x103;" horiz-adv-x="544" 
d="M407 747q-14 -55 -50 -84t-92 -29t-92.5 29t-49.5 84l44 12q14 -31 40 -47.5t58 -16.5t58 16.5t40 47.5zM342 283q-62 -8 -102.5 -19t-64.5 -27t-33.5 -38t-9.5 -50q0 -39 27 -65.5t75 -26.5q42 0 78 17.5t78 52.5v162zM392 64q-45 -39 -89 -57t-92 -18q-40 0 -71.5 12.5
t-53 34t-32.5 50.5t-11 61q0 50 18.5 83.5t54 55.5t87 34.5t118.5 20.5l69 8v31q0 33 -11 55.5t-29 36.5t-40 20t-44 6q-48 0 -86.5 -19t-77.5 -55l-46 55q94 87 214 87q46 0 83.5 -12t64.5 -35.5t42 -58t15 -79.5v-381h-83v64z" />
    <glyph glyph-name="Aogonek" unicode="&#x104;" horiz-adv-x="627" 
d="M685 -177q-20 -8 -36.5 -10.5t-36.5 -2.5q-42 0 -70.5 21.5t-28.5 64.5q0 32 16.5 59t42.5 45h-45l-71 204h-291l-69 -204h-90l258 742h94l263 -742q-22 -19 -33 -40t-11 -41q0 -23 15.5 -37t46.5 -14q22 0 46 7v-52zM434 276l-125 359l-122 -359h247z" />
    <glyph glyph-name="aogonek" unicode="&#x105;" horiz-adv-x="544" 
d="M392 64q-45 -39 -89 -57t-92 -18q-40 0 -71.5 12.5t-53 34t-32.5 50.5t-11 61q0 50 18.5 83.5t54 55.5t87 34.5t118.5 20.5l69 8v31q0 33 -11 55.5t-29 36.5t-40 20t-44 6q-48 0 -86.5 -19t-77.5 -55l-46 55q94 87 214 87q46 0 83.5 -12t64.5 -35.5t42 -58t15 -79.5v-381
q-22 -19 -33 -40t-11 -41q0 -23 15.5 -37t46.5 -14q22 0 46 7v-52q-20 -8 -36.5 -10.5t-36.5 -2.5q-42 0 -70.5 21.5t-28.5 64.5q0 32 16.5 59t42.5 45h-34v64zM342 283q-62 -8 -102.5 -19t-64.5 -27t-33.5 -38t-9.5 -50q0 -39 27 -65.5t75 -26.5q42 0 78 17.5t78 52.5v162z
" />
    <glyph glyph-name="Cacute" unicode="&#x106;" horiz-adv-x="647" 
d="M505 900l-190 -106l-25 37l173 128zM613 121q-45 -68 -106.5 -102t-136.5 -34t-134 28t-99 78.5t-61 120.5t-21 154q0 88 22.5 160t63.5 123t99 79t129 28q80 0 135 -32.5t97 -90.5l-65 -48q-32 45 -73 69.5t-95 24.5q-49 0 -89 -21.5t-69 -61t-45 -97t-16 -129.5
t16.5 -129t45.5 -96.5t70 -61t89 -21.5q60 0 102.5 30t77.5 81z" />
    <glyph glyph-name="cacute" unicode="&#x107;" horiz-adv-x="549" 
d="M441 725l-190 -106l-25 37l173 128zM520 113q-18 -25 -40 -47.5t-49 -39.5t-59.5 -27t-72.5 -10q-54 0 -99.5 20t-79 57t-52.5 90.5t-19 120.5q0 66 18.5 119t51.5 91t79 58.5t102 20.5q70 0 122.5 -30.5t88.5 -87.5l-62 -43q-26 40 -61 65t-88 25q-34 0 -63.5 -14
t-51.5 -42t-34.5 -69.5t-12.5 -95.5q0 -48 12 -87.5t34 -67.5t52 -43.5t66 -15.5q27 0 50 8.5t42.5 22.5t36 32t31.5 38z" />
    <glyph glyph-name="Ccircumflex" unicode="&#x108;" horiz-adv-x="647" 
d="M526 828l-28 -34l-137 98l-137 -98l-28 34l132 125h66zM613 121q-45 -68 -106.5 -102t-136.5 -34t-134 28t-99 78.5t-61 120.5t-21 154q0 88 22.5 160t63.5 123t99 79t129 28q80 0 135 -32.5t97 -90.5l-65 -48q-32 45 -73 69.5t-95 24.5q-49 0 -89 -21.5t-69 -61t-45 -97
t-16 -129.5t16.5 -129t45.5 -96.5t70 -61t89 -21.5q60 0 102.5 30t77.5 81z" />
    <glyph glyph-name="ccircumflex" unicode="&#x109;" horiz-adv-x="549" 
d="M462 652l-28 -34l-137 98l-137 -98l-28 34l132 125h66zM520 113q-18 -25 -40 -47.5t-49 -39.5t-59.5 -27t-72.5 -10q-54 0 -99.5 20t-79 57t-52.5 90.5t-19 120.5q0 66 18.5 119t51.5 91t79 58.5t102 20.5q70 0 122.5 -30.5t88.5 -87.5l-62 -43q-26 40 -61 65t-88 25
q-34 0 -63.5 -14t-51.5 -42t-34.5 -69.5t-12.5 -95.5q0 -48 12 -87.5t34 -67.5t52 -43.5t66 -15.5q27 0 50 8.5t42.5 22.5t36 32t31.5 38z" />
    <glyph glyph-name="Cdotaccent" unicode="&#x10a;" horiz-adv-x="647" 
d="M412 794h-97v90h97v-90zM613 121q-45 -68 -106.5 -102t-136.5 -34t-134 28t-99 78.5t-61 120.5t-21 154q0 88 22.5 160t63.5 123t99 79t129 28q80 0 135 -32.5t97 -90.5l-65 -48q-32 45 -73 69.5t-95 24.5q-49 0 -89 -21.5t-69 -61t-45 -97t-16 -129.5t16.5 -129
t45.5 -96.5t70 -61t89 -21.5q60 0 102.5 30t77.5 81z" />
    <glyph glyph-name="cdotaccent" unicode="&#x10b;" horiz-adv-x="549" 
d="M345 647h-97v90h97v-90zM520 113q-18 -25 -40 -47.5t-49 -39.5t-59.5 -27t-72.5 -10q-54 0 -99.5 20t-79 57t-52.5 90.5t-19 120.5q0 66 18.5 119t51.5 91t79 58.5t102 20.5q70 0 122.5 -30.5t88.5 -87.5l-62 -43q-26 40 -61 65t-88 25q-34 0 -63.5 -14t-51.5 -42
t-34.5 -69.5t-12.5 -95.5q0 -48 12 -87.5t34 -67.5t52 -43.5t66 -15.5q27 0 50 8.5t42.5 22.5t36 32t31.5 38z" />
    <glyph glyph-name="Ccaron" unicode="&#x10c;" horiz-adv-x="647" 
d="M533 919l-132 -125h-66l-132 125l28 34l137 -99l137 98zM613 121q-45 -68 -106.5 -102t-136.5 -34t-134 28t-99 78.5t-61 120.5t-21 154q0 88 22.5 160t63.5 123t99 79t129 28q80 0 135 -32.5t97 -90.5l-65 -48q-32 45 -73 69.5t-95 24.5q-49 0 -89 -21.5t-69 -61
t-45 -97t-16 -129.5t16.5 -129t45.5 -96.5t70 -61t89 -21.5q60 0 102.5 30t77.5 81z" />
    <glyph glyph-name="ccaron" unicode="&#x10d;" horiz-adv-x="549" 
d="M459 743l-132 -125h-66l-132 125l28 34l137 -99l137 98zM520 113q-18 -25 -40 -47.5t-49 -39.5t-59.5 -27t-72.5 -10q-54 0 -99.5 20t-79 57t-52.5 90.5t-19 120.5q0 66 18.5 119t51.5 91t79 58.5t102 20.5q70 0 122.5 -30.5t88.5 -87.5l-62 -43q-26 40 -61 65t-88 25
q-34 0 -63.5 -14t-51.5 -42t-34.5 -69.5t-12.5 -95.5q0 -48 12 -87.5t34 -67.5t52 -43.5t66 -15.5q27 0 50 8.5t42.5 22.5t36 32t31.5 38z" />
    <glyph glyph-name="Dcaron" unicode="&#x10e;" horiz-adv-x="691" 
d="M453 919l-132 -125h-66l-132 125l28 34l137 -99l137 98zM309 75q52 0 94.5 19t73.5 55.5t48 91.5t17 127q0 140 -63 219.5t-180 79.5h-124v-592h134zM310 742q80 0 141 -28t102 -77.5t62 -118t21 -149.5q0 -74 -18.5 -141t-57 -117.5t-97.5 -80.5t-140 -30h-237v742h224z
" />
    <glyph glyph-name="dcaron" unicode="&#x10f;" horiz-adv-x="727" 
d="M692 669l-71 -116h-35l56 116h-44v87h94v-87zM440 425q-32 30 -67 50t-79 20q-36 0 -65 -16t-49 -44.5t-31 -69.5t-11 -90q0 -47 10.5 -86.5t31 -68t49 -44.5t64.5 -16q42 0 77.5 21t69.5 58v286zM440 70q-32 -43 -72 -62t-90 -19t-91.5 20.5t-72.5 58t-48 91t-17 118.5
q0 66 17.5 119.5t48 91t72.5 58t90 20.5q54 0 94 -19.5t69 -52.5v262h85v-756h-85v70z" />
    <glyph glyph-name="Dcroat" unicode="&#x110;" horiz-adv-x="690" 
d="M309 75q51 0 94 19t74 55.5t48 91.5t17 127q0 140 -63 219.5t-181 79.5h-124v-262h176v-61h-176v-269h135zM309 742q80 0 141 -28t102.5 -77.5t62.5 -118t21 -149.5q0 -74 -18.5 -141t-57 -117.5t-97.5 -80.5t-140 -30h-238v344h-79v61h79v337h224z" />
    <glyph glyph-name="dcroat" unicode="&#x111;" 
d="M440 70q-32 -43 -72 -62t-90 -19t-91.5 20.5t-72.5 58t-48 91t-17 118.5q0 66 17.5 119.5t48 91t72.5 58t90 20.5q54 0 94 -19.5t69 -52.5v137h-166v61h166v64h85v-64h76v-61h-76v-631h-85v70zM440 425q-32 30 -67 50t-79 20q-36 0 -65 -16t-49 -44.5t-31 -69.5t-11 -90
q0 -47 10.5 -86.5t31 -68t49 -44.5t64.5 -16q42 0 77.5 21t69.5 58v286z" />
    <glyph glyph-name="Emacron" unicode="&#x112;" horiz-adv-x="582" 
d="M446 794h-271v61h271v-61zM523 0h-438v742h425v-72h-336v-242h282v-72h-282v-284h349v-72z" />
    <glyph glyph-name="emacron" unicode="&#x113;" horiz-adv-x="577" 
d="M419 662h-271v61h271v-61zM440 328q-7 77 -46.5 123.5t-103.5 46.5q-62 0 -102.5 -47.5t-48.5 -122.5h301zM522 96q-47 -58 -102 -82.5t-124 -24.5q-51 0 -96 18.5t-78.5 55.5t-53 91t-19.5 125q0 68 18 121.5t50.5 90t76 56t94.5 19.5q67 0 113.5 -27t74.5 -70
t40.5 -96.5t12.5 -105.5h-393q1 -51 15 -89.5t37 -65t52 -39.5t61 -13q42 0 83 18.5t81 69.5z" />
    <glyph glyph-name="Ebreve" unicode="&#x114;" horiz-adv-x="582" 
d="M451 908q-14 -55 -50 -84t-92 -29t-92.5 29t-49.5 84l44 12q14 -31 40 -47.5t58 -16.5t58 16.5t40 47.5zM523 0h-438v742h425v-72h-336v-242h282v-72h-282v-284h349v-72z" />
    <glyph glyph-name="ebreve" unicode="&#x115;" horiz-adv-x="577" 
d="M427 747q-14 -55 -50 -84t-92 -29t-92.5 29t-49.5 84l44 12q14 -31 40 -47.5t58 -16.5t58 16.5t40 47.5zM440 328q-7 77 -46.5 123.5t-103.5 46.5q-62 0 -102.5 -47.5t-48.5 -122.5h301zM522 96q-47 -58 -102 -82.5t-124 -24.5q-51 0 -96 18.5t-78.5 55.5t-53 91
t-19.5 125q0 68 18 121.5t50.5 90t76 56t94.5 19.5q67 0 113.5 -27t74.5 -70t40.5 -96.5t12.5 -105.5h-393q1 -51 15 -89.5t37 -65t52 -39.5t61 -13q42 0 83 18.5t81 69.5z" />
    <glyph glyph-name="Edotaccent" unicode="&#x116;" horiz-adv-x="582" 
d="M369 794h-97v90h97v-90zM523 0h-438v742h425v-72h-336v-242h282v-72h-282v-284h349v-72z" />
    <glyph glyph-name="edotaccent" unicode="&#x117;" horiz-adv-x="577" 
d="M333 647h-97v90h97v-90zM440 328q-7 77 -46.5 123.5t-103.5 46.5q-62 0 -102.5 -47.5t-48.5 -122.5h301zM522 96q-47 -58 -102 -82.5t-124 -24.5q-51 0 -96 18.5t-78.5 55.5t-53 91t-19.5 125q0 68 18 121.5t50.5 90t76 56t94.5 19.5q67 0 113.5 -27t74.5 -70t40.5 -96.5
t12.5 -105.5h-393q1 -51 15 -89.5t37 -65t52 -39.5t61 -13q42 0 83 18.5t81 69.5z" />
    <glyph glyph-name="Eogonek" unicode="&#x118;" horiz-adv-x="582" 
d="M577 -177q-20 -8 -36.5 -10.5t-36.5 -2.5q-42 0 -70.5 21.5t-28.5 64.5q0 32 16.5 59t42.5 45h-379v742h425v-72h-336v-242h282v-72h-282v-284h349v-72h-10q-22 -19 -33 -40t-11 -41q0 -23 15.5 -37t46.5 -14q22 0 46 7v-52z" />
    <glyph glyph-name="eogonek" unicode="&#x119;" horiz-adv-x="577" 
d="M495 -177q-20 -8 -36.5 -10.5t-36.5 -2.5q-42 0 -70.5 21.5t-28.5 64.5q0 32 16.5 59t41.5 45q-20 -6 -41 -8.5t-44 -2.5q-51 0 -96 18.5t-78.5 55.5t-53 91t-19.5 125q0 68 18 121.5t50.5 90t76 56t94.5 19.5q67 0 113.5 -27t74.5 -70t40.5 -96.5t12.5 -105.5h-393
q1 -51 15 -89.5t37 -65t52 -39.5t61 -13q42 0 83 18.5t81 69.5l57 -52l-11.5 -11.5t-15 -15.5t-14 -14.5l-8.5 -8.5l-20 -20t-28.5 -32t-26 -37.5t-11.5 -37.5q0 -23 15.5 -37t46.5 -14q22 0 46 7v-52zM440 328q-7 77 -46.5 123.5t-103.5 46.5q-62 0 -102.5 -47.5
t-48.5 -122.5h301z" />
    <glyph glyph-name="Ecaron" unicode="&#x11a;" horiz-adv-x="582" 
d="M473 919l-132 -125h-66l-132 125l28 34l137 -99l137 98zM523 0h-438v742h425v-72h-336v-242h282v-72h-282v-284h349v-72z" />
    <glyph glyph-name="ecaron" unicode="&#x11b;" horiz-adv-x="577" 
d="M449 743l-132 -125h-66l-132 125l28 34l137 -99l137 98zM440 328q-7 77 -46.5 123.5t-103.5 46.5q-62 0 -102.5 -47.5t-48.5 -122.5h301zM522 96q-47 -58 -102 -82.5t-124 -24.5q-51 0 -96 18.5t-78.5 55.5t-53 91t-19.5 125q0 68 18 121.5t50.5 90t76 56t94.5 19.5
q67 0 113.5 -27t74.5 -70t40.5 -96.5t12.5 -105.5h-393q1 -51 15 -89.5t37 -65t52 -39.5t61 -13q42 0 83 18.5t81 69.5z" />
    <glyph glyph-name="Gcircumflex" unicode="&#x11c;" horiz-adv-x="708" 
d="M526 828l-28 -34l-137 98l-137 -98l-28 34l132 125h66zM554 83q-34 -49 -85 -73.5t-105 -24.5q-74 0 -131 28t-97 78.5t-60.5 120.5t-20.5 154q0 88 22.5 160t64 123t100 79t129.5 28q80 0 136.5 -30.5t98.5 -87.5l-66 -48q-33 45 -74.5 67t-95.5 22q-49 0 -89.5 -21.5
t-70 -61t-45.5 -97t-16 -129.5t15.5 -129t45 -96.5t71 -61t92.5 -21.5q27 0 56.5 10.5t54.5 30.5t41 50t16 69v97h-184v72h273v-391h-66z" />
    <glyph glyph-name="gcircumflex" unicode="&#x11d;" 
d="M455 652l-28 -34l-137 98l-137 -98l-28 34l132 125h66zM440 425q-32 31 -67 50.5t-79 19.5q-71 0 -113.5 -57t-42.5 -155q0 -47 11 -85.5t31 -66t49 -42.5t65 -15q44 0 78.5 18.5t67.5 50.5v282zM525 5q0 -96 -58 -151.5t-174 -55.5q-80 0 -136.5 25t-94.5 60l45 58
q37 -32 82.5 -52t103.5 -20q75 0 111 38t36 105v62q-37 -39 -75.5 -55t-86.5 -16q-49 0 -91 19.5t-72.5 56t-48 88.5t-17.5 117q0 66 17.5 118.5t48 88.5t72.5 55.5t91 19.5q54 0 92 -19.5t70 -54.5v63h85v-550z" />
    <glyph glyph-name="Gbreve" unicode="&#x11e;" horiz-adv-x="708" 
d="M511 908q-14 -55 -50 -84t-92 -29t-92.5 29t-49.5 84l44 12q14 -31 40 -47.5t58 -16.5t58 16.5t40 47.5zM554 83q-34 -49 -85 -73.5t-105 -24.5q-74 0 -131 28t-97 78.5t-60.5 120.5t-20.5 154q0 88 22.5 160t64 123t100 79t129.5 28q80 0 136.5 -30.5t98.5 -87.5
l-66 -48q-33 45 -74.5 67t-95.5 22q-49 0 -89.5 -21.5t-70 -61t-45.5 -97t-16 -129.5t15.5 -129t45 -96.5t71 -61t92.5 -21.5q27 0 56.5 10.5t54.5 30.5t41 50t16 69v97h-184v72h273v-391h-66z" />
    <glyph glyph-name="gbreve" unicode="&#x11f;" 
d="M427 747q-14 -55 -50 -84t-92 -29t-92.5 29t-49.5 84l44 12q14 -31 40 -47.5t58 -16.5t58 16.5t40 47.5zM440 425q-32 31 -67 50.5t-79 19.5q-71 0 -113.5 -57t-42.5 -155q0 -47 11 -85.5t31 -66t49 -42.5t65 -15q44 0 78.5 18.5t67.5 50.5v282zM525 5q0 -96 -58 -151.5
t-174 -55.5q-80 0 -136.5 25t-94.5 60l45 58q37 -32 82.5 -52t103.5 -20q75 0 111 38t36 105v62q-37 -39 -75.5 -55t-86.5 -16q-49 0 -91 19.5t-72.5 56t-48 88.5t-17.5 117q0 66 17.5 118.5t48 88.5t72.5 55.5t91 19.5q54 0 92 -19.5t70 -54.5v63h85v-550z" />
    <glyph glyph-name="Gcommaaccent" unicode="&#x122;" horiz-adv-x="708" 
d="M401 -90q0 -30 -10 -51t-25.5 -34t-34 -19t-36.5 -6q-7 0 -18.5 0.5t-16.5 1.5v38q9 -2 15 -2h14q63 0 69 57h-36v79h79v-64zM554 83q-34 -49 -85 -73.5t-105 -24.5q-74 0 -131 28t-97 78.5t-60.5 120.5t-20.5 154q0 88 22.5 160t64 123t100 79t129.5 28
q80 0 136.5 -30.5t98.5 -87.5l-66 -48q-33 45 -74.5 67t-95.5 22q-49 0 -89.5 -21.5t-70 -61t-45.5 -97t-16 -129.5t15.5 -129t45 -96.5t71 -61t92.5 -21.5q27 0 56.5 10.5t54.5 30.5t41 50t16 69v97h-184v72h273v-391h-66z" />
    <glyph glyph-name="gcommaaccent" unicode="&#x123;" 
d="M229 695l70 100h35l-56 -100h45v-86h-94v86zM440 425q-32 31 -67 50.5t-79 19.5q-71 0 -113.5 -57t-42.5 -155q0 -47 11 -85.5t31 -66t49 -42.5t65 -15q44 0 78.5 18.5t67.5 50.5v282zM525 5q0 -96 -58 -151.5t-174 -55.5q-80 0 -136.5 25t-94.5 60l45 58
q37 -32 82.5 -52t103.5 -20q75 0 111 38t36 105v62q-37 -39 -75.5 -55t-86.5 -16q-49 0 -91 19.5t-72.5 56t-48 88.5t-17.5 117q0 66 17.5 118.5t48 88.5t72.5 55.5t91 19.5q54 0 92 -19.5t70 -54.5v63h85v-550z" />
    <glyph glyph-name="Hcircumflex" unicode="&#x124;" horiz-adv-x="685" 
d="M510 828l-28 -34l-137 98l-137 -98l-28 34l132 125h66zM600 0h-89v355h-337v-355h-89v742h89v-312h337v312h89v-742z" />
    <glyph glyph-name="hcircumflex" unicode="&#x125;" horiz-adv-x="577" 
d="M456 828l-28 -34l-137 98l-137 -98l-28 34l132 125h66zM507 0h-85v376q0 54 -23 83.5t-79 29.5q-39 0 -81 -19t-79 -48v-422h-85v756h85v-263q36 29 81 51t99 22q80 0 123.5 -44.5t43.5 -121.5v-400z" />
    <glyph glyph-name="Itilde" unicode="&#x128;" horiz-adv-x="270" 
d="M110 822q-11 5 -22 8t-21 3q-17 0 -30.5 -5.5t-33.5 -24.5l-29 30q20 31 46 46t51 15q22 0 49 -11l37 -15q13 -5 23.5 -9t21.5 -4q17 0 30.5 5.5t33.5 24.5l30 -30q-20 -31 -46 -46t-51 -15q-14 0 -27.5 4.5t-27.5 9.5zM180 742v-742h-89v742h89z" />
    <glyph glyph-name="itilde" unicode="&#x129;" horiz-adv-x="240" 
d="M142 719q13 -5 24 -8.5t22 -3.5q17 0 30.5 5t33.5 24l30 -30q-20 -31 -46 -45.5t-51 -14.5q-14 0 -27.5 4t-27.5 9l-34 14q-11 5 -22 8t-21 3q-17 0 -30.5 -5.5t-33.5 -24.5l-30 30q20 31 46 46t51 15q23 0 50 -11zM163 0h-85v555h85v-555z" />
    <glyph glyph-name="Imacron" unicode="&#x12a;" horiz-adv-x="270" 
d="M270 794h-271v61h271v-61zM180 742v-742h-89v742h89z" />
    <glyph glyph-name="imacron" unicode="&#x12b;" horiz-adv-x="240" 
d="M256 662h-271v61h271v-61zM163 0h-85v555h85v-555z" />
    <glyph glyph-name="Ibreve" unicode="&#x12c;" horiz-adv-x="270" 
d="M277 908q-14 -55 -50 -84t-92 -29t-92.5 29t-49.5 84l44 12q14 -31 40 -47.5t58 -16.5t58 16.5t40 47.5zM180 742v-742h-89v742h89z" />
    <glyph glyph-name="ibreve" unicode="&#x12d;" horiz-adv-x="240" 
d="M262 747q-14 -55 -50 -84t-92 -29t-92.5 29t-49.5 84l44 12q14 -31 40 -47.5t58 -16.5t58 16.5t40 47.5zM163 0h-85v555h85v-555z" />
    <glyph glyph-name="Iogonek" unicode="&#x12e;" horiz-adv-x="270" 
d="M91 0v742h89v-742q-22 -19 -33 -40t-11 -41q0 -23 15.5 -37t46.5 -14q22 0 46 7v-52q-20 -8 -36.5 -10.5t-36.5 -2.5q-42 0 -70.5 21.5t-28.5 64.5q0 32 16.5 59t42.5 45h-40z" />
    <glyph glyph-name="iogonek" unicode="&#x12f;" horiz-adv-x="240" 
d="M163 673h-88v83h88v-83zM78 0v555h85v-555q-22 -19 -33 -40t-11 -41q0 -23 15.5 -37t46.5 -14q22 0 46 7v-52q-20 -8 -36.5 -10.5t-36.5 -2.5q-42 0 -70.5 21.5t-28.5 64.5q0 32 16.5 59t42.5 45h-36z" />
    <glyph glyph-name="Idotaccent" unicode="&#x130;" horiz-adv-x="270" 
d="M184 794h-97v90h97v-90zM180 742v-742h-89v742h89z" />
    <glyph glyph-name="dotlessi" unicode="&#x131;" horiz-adv-x="240" 
d="M163 0h-85v555h85v-555z" />
    <glyph glyph-name="Jcircumflex" unicode="&#x134;" horiz-adv-x="510" 
d="M526 828l-28 -34l-137 98l-137 -98l-28 34l132 125h66zM431 742v-561q0 -52 -17 -89t-45.5 -60.5t-65.5 -34.5t-76 -11q-144 0 -209 114l66 45q24 -41 55.5 -61.5t80.5 -20.5q20 0 41.5 6.5t39.5 21t29.5 38.5t11.5 59v554h89z" />
    <glyph glyph-name="jcircumflex" unicode="&#x135;" horiz-adv-x="244" 
d="M282 652l-28 -34l-137 98l-137 -98l-28 34l132 125h66zM166 -27q0 -79 -38.5 -127.5t-123.5 -48.5q-31 0 -61.5 8.5t-55.5 22.5l27 60q45 -20 85 -20t61 26.5t21 86.5v574h85v-582z" />
    <glyph glyph-name="Kcommaaccent" unicode="&#x136;" horiz-adv-x="616" 
d="M385 -90q0 -30 -10 -51t-25.5 -34t-34 -19t-36.5 -6q-7 0 -18.5 0.5t-16.5 1.5v38q9 -2 15 -2h14q63 0 69 57h-36v79h79v-64zM611 0h-107l-249 369l-81 -91v-278h-89v742h89v-346l299 346h107l-265 -308z" />
    <glyph glyph-name="kcommaaccent" unicode="&#x137;" horiz-adv-x="515" 
d="M328 -90q0 -30 -10 -51t-25.5 -34t-34 -19t-36.5 -6q-7 0 -18.5 0.5t-16.5 1.5v38q9 -2 15 -2h14q63 0 69 57h-36v79h79v-64zM500 0h-98l-191 280l-51 -51v-229h-85v756h85v-420l215 219h105l-211 -216z" />
    <glyph glyph-name="Lacute" unicode="&#x139;" horiz-adv-x="539" 
d="M317 900l-190 -106l-25 37l173 128zM511 0h-426v742h89v-667h337v-75z" />
    <glyph glyph-name="lacute" unicode="&#x13a;" horiz-adv-x="240" 
d="M275 900l-190 -106l-25 37l173 128zM163 0h-85v756h85v-756z" />
    <glyph glyph-name="Lcommaaccent" unicode="&#x13b;" horiz-adv-x="539" 
d="M378 -90q0 -30 -10 -51t-25.5 -34t-34 -19t-36.5 -6q-7 0 -18.5 0.5t-16.5 1.5v38q9 -2 15 -2h14q63 0 69 57h-36v79h79v-64zM511 0h-426v742h89v-667h337v-75z" />
    <glyph glyph-name="lcommaaccent" unicode="&#x13c;" horiz-adv-x="240" 
d="M163 -90q0 -30 -10 -51t-25 -34t-33.5 -19t-36.5 -6q-7 0 -18.5 0.5t-16.5 1.5v38q9 -2 15 -2h14q63 0 69 57h-36v79h78v-64zM163 0h-85v756h85v-756z" />
    <glyph glyph-name="Lcaron" unicode="&#x13d;" horiz-adv-x="539" 
d="M400 669l-71 -116h-35l56 116h-44v87h94v-87zM511 0h-426v742h89v-667h337v-75z" />
    <glyph glyph-name="lcaron" unicode="&#x13e;" horiz-adv-x="365" 
d="M330 669l-71 -116h-35l56 116h-44v87h94v-87zM163 0h-85v756h85v-756z" />
    <glyph glyph-name="Lslash" unicode="&#x141;" horiz-adv-x="539" 
d="M511 0h-425v287l-71 -50l-35 50l106 75v380h89v-315l122 87l35 -50l-157 -112v-277h336v-75z" />
    <glyph glyph-name="lslash" unicode="&#x142;" horiz-adv-x="352" 
d="M347 483l-128 -93v-390h-85v331l-93 -69l-35 50l128 93v351h85v-292l93 68z" />
    <glyph glyph-name="Nacute" unicode="&#x143;" horiz-adv-x="686" 
d="M507 900l-190 -106l-25 37l173 128zM601 0h-87l-344 584v-584h-85v742h86l345 -584v584h85v-742z" />
    <glyph glyph-name="nacute" unicode="&#x144;" horiz-adv-x="577" 
d="M481 725l-190 -106l-25 37l173 128zM507 0h-85v376q0 54 -23 83.5t-79 29.5q-39 0 -81.5 -19t-78.5 -48v-422h-85v555h82v-64q38 29 83.5 52t99.5 23q80 0 123.5 -44.5t43.5 -121.5v-400z" />
    <glyph glyph-name="Ncommaaccent" unicode="&#x145;" horiz-adv-x="686" 
d="M381 -90q0 -30 -10 -51t-25.5 -34t-34 -19t-36.5 -6q-7 0 -18.5 0.5t-16.5 1.5v38q9 -2 15 -2h14q63 0 69 57h-36v79h79v-64zM601 0h-87l-344 584v-584h-85v742h86l345 -584v584h85v-742z" />
    <glyph glyph-name="ncommaaccent" unicode="&#x146;" horiz-adv-x="577" 
d="M341 -90q0 -30 -10 -51t-25.5 -34t-34 -19t-36.5 -6q-7 0 -18.5 0.5t-16.5 1.5v38q9 -2 15 -2h14q63 0 69 57h-36v79h79v-64zM507 0h-85v376q0 54 -23 83.5t-79 29.5q-39 0 -81.5 -19t-78.5 -48v-422h-85v555h82v-64q38 29 83.5 52t99.5 23q80 0 123.5 -44.5t43.5 -121.5
v-400z" />
    <glyph glyph-name="Ncaron" unicode="&#x147;" horiz-adv-x="686" 
d="M518 919l-132 -125h-66l-132 125l28 34l137 -99l137 98zM601 0h-87l-344 584v-584h-85v742h86l345 -584v584h85v-742z" />
    <glyph glyph-name="ncaron" unicode="&#x148;" horiz-adv-x="577" 
d="M468 743l-132 -125h-66l-132 125l28 34l137 -99l137 98zM507 0h-85v376q0 54 -23 83.5t-79 29.5q-39 0 -81.5 -19t-78.5 -48v-422h-85v555h82v-64q38 29 83.5 52t99.5 23q80 0 123.5 -44.5t43.5 -121.5v-400z" />
    <glyph glyph-name="Omacron" unicode="&#x14c;" horiz-adv-x="718" 
d="M489 794h-271v61h271v-61zM569 366q0 73 -15 131t-42.5 98.5t-66.5 62t-87 21.5t-86.5 -21.5t-65.5 -61t-42 -97t-15 -129.5q0 -71 15 -128t42.5 -97t66 -61.5t85.5 -21.5q48 0 87 21.5t66.5 61.5t42.5 96t15 125zM663 369q0 -86 -21.5 -156.5t-61.5 -121t-96 -78.5
t-125 -28t-125.5 28t-96 78t-61 120.5t-21.5 154.5q0 89 21 161t60.5 123t96 78.5t126.5 27.5t126 -27.5t95.5 -78.5t61 -122.5t21.5 -158.5z" />
    <glyph glyph-name="omacron" unicode="&#x14d;" 
d="M431 662h-271v61h271v-61zM462 277q0 49 -11.5 89t-32.5 68.5t-51 44.5t-67 16t-67 -16t-51 -44.5t-32.5 -68.5t-11.5 -89t11.5 -89t32.5 -68.5t51 -44t67 -15.5t67 15.5t51 44t32.5 68.5t11.5 89zM551 277q0 -66 -18 -119.5t-51 -91t-79.5 -57.5t-102.5 -20t-102.5 20
t-79.5 57.5t-51 91t-18 119.5t18 119t51 91t79.5 58.5t102.5 20.5t102.5 -20.5t79.5 -58.5t51 -91t18 -119z" />
    <glyph glyph-name="Obreve" unicode="&#x14e;" horiz-adv-x="718" 
d="M499 908q-14 -55 -50 -84t-92 -29t-92.5 29t-49.5 84l44 12q14 -31 40 -47.5t58 -16.5t58 16.5t40 47.5zM569 366q0 73 -15 131t-42.5 98.5t-66.5 62t-87 21.5t-86.5 -21.5t-65.5 -61t-42 -97t-15 -129.5q0 -71 15 -128t42.5 -97t66 -61.5t85.5 -21.5q48 0 87 21.5
t66.5 61.5t42.5 96t15 125zM663 369q0 -86 -21.5 -156.5t-61.5 -121t-96 -78.5t-125 -28t-125.5 28t-96 78t-61 120.5t-21.5 154.5q0 89 21 161t60.5 123t96 78.5t126.5 27.5t126 -27.5t95.5 -78.5t61 -122.5t21.5 -158.5z" />
    <glyph glyph-name="obreve" unicode="&#x14f;" 
d="M442 747q-14 -55 -50 -84t-92 -29t-92.5 29t-49.5 84l44 12q14 -31 40 -47.5t58 -16.5t58 16.5t40 47.5zM462 277q0 49 -11.5 89t-32.5 68.5t-51 44.5t-67 16t-67 -16t-51 -44.5t-32.5 -68.5t-11.5 -89t11.5 -89t32.5 -68.5t51 -44t67 -15.5t67 15.5t51 44t32.5 68.5
t11.5 89zM551 277q0 -66 -18 -119.5t-51 -91t-79.5 -57.5t-102.5 -20t-102.5 20t-79.5 57.5t-51 91t-18 119.5t18 119t51 91t79.5 58.5t102.5 20.5t102.5 -20.5t79.5 -58.5t51 -91t18 -119z" />
    <glyph glyph-name="Ohungarumlaut" unicode="&#x150;" horiz-adv-x="718" 
d="M448 920l-177 -126l-29 34l159 144zM614 920l-178 -126l-28 34l159 144zM569 366q0 73 -15 131t-42.5 98.5t-66.5 62t-87 21.5t-86.5 -21.5t-65.5 -61t-42 -97t-15 -129.5q0 -71 15 -128t42.5 -97t66 -61.5t85.5 -21.5q48 0 87 21.5t66.5 61.5t42.5 96t15 125zM663 369
q0 -86 -21.5 -156.5t-61.5 -121t-96 -78.5t-125 -28t-125.5 28t-96 78t-61 120.5t-21.5 154.5q0 89 21 161t60.5 123t96 78.5t126.5 27.5t126 -27.5t95.5 -78.5t61 -122.5t21.5 -158.5z" />
    <glyph glyph-name="ohungarumlaut" unicode="&#x151;" 
d="M394 744l-177 -126l-29 34l159 144zM560 744l-178 -126l-28 34l159 144zM462 277q0 49 -11.5 89t-32.5 68.5t-51 44.5t-67 16t-67 -16t-51 -44.5t-32.5 -68.5t-11.5 -89t11.5 -89t32.5 -68.5t51 -44t67 -15.5t67 15.5t51 44t32.5 68.5t11.5 89zM551 277q0 -66 -18 -119.5
t-51 -91t-79.5 -57.5t-102.5 -20t-102.5 20t-79.5 57.5t-51 91t-18 119.5t18 119t51 91t79.5 58.5t102.5 20.5t102.5 -20.5t79.5 -58.5t51 -91t18 -119z" />
    <glyph glyph-name="OE" unicode="&#x152;" horiz-adv-x="1066" 
d="M569 369q0 75 -15.5 133t-43.5 97t-67 59.5t-85 20.5q-47 0 -85.5 -21.5t-66 -61t-42.5 -97t-15 -129.5q0 -71 15 -128t42.5 -97t66 -61.5t85.5 -21.5q48 0 86.5 21t66.5 61t43 96.5t15 128.5zM569 742h425v-72h-336v-242h282v-72h-282v-284h349v-72h-438v84
q-37 -48 -91 -73.5t-119 -25.5q-69 0 -125.5 28t-96 78t-61 120.5t-21.5 154.5q0 89 21 161t60.5 123t96 78.5t126.5 27.5q65 0 119 -25t91 -73v84z" />
    <glyph glyph-name="oe" unicode="&#x153;" horiz-adv-x="987" 
d="M462 277q0 49 -11.5 89t-32.5 68.5t-51 44.5t-67 16t-67 -16t-51 -44.5t-32.5 -68.5t-11.5 -89t11.5 -89t32.5 -68.5t51 -44t67 -15.5t67 15.5t51 44t32.5 68.5t11.5 89zM850 328q-7 77 -46.5 123.5t-103.5 46.5q-62 0 -102.5 -47.5t-48.5 -122.5h301zM699 566
q67 0 113.5 -27t74.5 -70t40.5 -96.5t12.5 -105.5h-393q1 -51 15 -89.5t36.5 -65t51.5 -39.5t61 -13q42 0 84 18.5t81 69.5l56 -52q-47 -58 -101.5 -82.5t-123.5 -24.5q-62 0 -116 33t-86 98q-30 -61 -83 -96t-122 -35q-56 0 -102 20t-79 57.5t-51.5 91t-18.5 119.5
t18.5 119t51.5 91t79 58.5t102 20.5q68 0 120.5 -34t83.5 -95q32 64 83 96.5t112 32.5z" />
    <glyph glyph-name="Racute" unicode="&#x154;" horiz-adv-x="645" 
d="M484 900l-190 -106l-25 37l173 128zM346 408q36 0 61.5 11.5t41.5 30.5t23.5 43t7.5 49q0 54 -37.5 90.5t-119.5 36.5h-149v-261h172zM597 0h-102l-147 336h-174v-336h-89v741h247q63 0 108.5 -14.5t75 -41t44 -62t14.5 -77.5q0 -74 -36.5 -126t-102.5 -72z" />
    <glyph glyph-name="racute" unicode="&#x155;" horiz-adv-x="399" 
d="M361 725l-190 -106l-25 37l173 128zM160 469q13 18 29.5 35t36 31t41.5 22.5t46 8.5q23 0 41.5 -4t35.5 -15l-37 -77q-13 8 -24.5 11t-29.5 3t-36.5 -7.5t-36.5 -20.5t-35 -30t-31 -36v-390h-85v555h85v-86z" />
    <glyph glyph-name="Rcommaaccent" unicode="&#x156;" horiz-adv-x="645" 
d="M380 -90q0 -30 -10 -51t-25.5 -34t-34 -19t-36.5 -6q-7 0 -18.5 0.5t-16.5 1.5v38q9 -2 15 -2h14q63 0 69 57h-36v79h79v-64zM346 408q36 0 61.5 11.5t41.5 30.5t23.5 43t7.5 49q0 54 -37.5 90.5t-119.5 36.5h-149v-261h172zM597 0h-102l-147 336h-174v-336h-89v741h247
q63 0 108.5 -14.5t75 -41t44 -62t14.5 -77.5q0 -74 -36.5 -126t-102.5 -72z" />
    <glyph glyph-name="rcommaaccent" unicode="&#x157;" horiz-adv-x="399" 
d="M160 -90q0 -30 -10 -51t-25 -34t-33.5 -19t-36.5 -6q-7 0 -18.5 0.5t-16.5 1.5v38q9 -2 15 -2h14q63 0 69 57h-36v79h78v-64zM160 469q13 18 29.5 35t36 31t41.5 22.5t46 8.5q23 0 41.5 -4t35.5 -15l-37 -77q-13 8 -24.5 11t-29.5 3t-36.5 -7.5t-36.5 -20.5t-35 -30
t-31 -36v-390h-85v555h85v-86z" />
    <glyph glyph-name="Rcaron" unicode="&#x158;" horiz-adv-x="645" 
d="M478 919l-132 -125h-66l-132 125l28 34l137 -99l137 98zM346 408q36 0 61.5 11.5t41.5 30.5t23.5 43t7.5 49q0 54 -37.5 90.5t-119.5 36.5h-149v-261h172zM597 0h-102l-147 336h-174v-336h-89v741h247q63 0 108.5 -14.5t75 -41t44 -62t14.5 -77.5q0 -74 -36.5 -126
t-102.5 -72z" />
    <glyph glyph-name="rcaron" unicode="&#x159;" horiz-adv-x="399" 
d="M408 743l-132 -125h-66l-132 125l28 34l137 -99l137 98zM160 469q13 18 29.5 35t36 31t41.5 22.5t46 8.5q23 0 41.5 -4t35.5 -15l-37 -77q-13 8 -24.5 11t-29.5 3t-36.5 -7.5t-36.5 -20.5t-35 -30t-31 -36v-390h-85v555h85v-86z" />
    <glyph glyph-name="Sacute" unicode="&#x15a;" horiz-adv-x="556" 
d="M420 900l-190 -106l-25 37l173 128zM328 417q39 -17 72 -35.5t57.5 -43.5t38.5 -58t14 -78q0 -55 -20 -95.5t-53 -67.5t-76.5 -40.5t-90.5 -13.5q-71 0 -134 29.5t-107 78.5l55 59q39 -44 88 -68.5t97 -24.5q26 0 52 8t47 24.5t34.5 41t13.5 57.5q0 29 -9.5 51t-27 39
t-42 30.5t-55.5 27.5l-71 31q-34 15 -64 31.5t-52 38.5t-35 51t-13 69q0 48 18 85t48.5 61.5t72.5 37.5t90 13q69 0 125 -27t96 -75l-54 -57q-32 37 -76 61t-91 24q-27 0 -51.5 -7.5t-43 -22t-29.5 -36t-11 -50.5q0 -45 30.5 -70.5t85.5 -48.5z" />
    <glyph glyph-name="sacute" unicode="&#x15b;" horiz-adv-x="482" 
d="M401 725l-190 -106l-25 37l173 128zM287 319q32 -12 59.5 -25t48 -31t32.5 -43t12 -61q0 -42 -17 -74t-45.5 -53t-66 -32t-77.5 -11q-59 0 -111.5 22t-92.5 65l48 51q35 -34 76 -52t79 -18q23 0 44.5 6.5t38.5 18.5t27.5 29t10.5 38q0 39 -30.5 59t-78.5 37l-61 22
q-30 11 -54.5 23.5t-42 29.5t-27 39.5t-9.5 52.5q0 33 13 61t38 49t61.5 32.5t84.5 11.5q54 0 100.5 -19t84.5 -60l-48 -51q-34 35 -69.5 48.5t-68.5 13.5q-22 0 -42 -5t-35 -14.5t-24 -24t-9 -32.5q0 -30 25 -48t66 -33z" />
    <glyph glyph-name="Scircumflex" unicode="&#x15c;" horiz-adv-x="556" 
d="M441 828l-28 -34l-137 98l-137 -98l-28 34l132 125h66zM328 417q39 -17 72 -35.5t57.5 -43.5t38.5 -58t14 -78q0 -55 -20 -95.5t-53 -67.5t-76.5 -40.5t-90.5 -13.5q-71 0 -134 29.5t-107 78.5l55 59q39 -44 88 -68.5t97 -24.5q26 0 52 8t47 24.5t34.5 41t13.5 57.5
q0 29 -9.5 51t-27 39t-42 30.5t-55.5 27.5l-71 31q-34 15 -64 31.5t-52 38.5t-35 51t-13 69q0 48 18 85t48.5 61.5t72.5 37.5t90 13q69 0 125 -27t96 -75l-54 -57q-32 37 -76 61t-91 24q-27 0 -51.5 -7.5t-43 -22t-29.5 -36t-11 -50.5q0 -45 30.5 -70.5t85.5 -48.5z" />
    <glyph glyph-name="scircumflex" unicode="&#x15d;" horiz-adv-x="482" 
d="M408 652l-28 -34l-137 98l-137 -98l-28 34l132 125h66zM287 319q32 -12 59.5 -25t48 -31t32.5 -43t12 -61q0 -42 -17 -74t-45.5 -53t-66 -32t-77.5 -11q-59 0 -111.5 22t-92.5 65l48 51q35 -34 76 -52t79 -18q23 0 44.5 6.5t38.5 18.5t27.5 29t10.5 38q0 39 -30.5 59
t-78.5 37l-61 22q-30 11 -54.5 23.5t-42 29.5t-27 39.5t-9.5 52.5q0 33 13 61t38 49t61.5 32.5t84.5 11.5q54 0 100.5 -19t84.5 -60l-48 -51q-34 35 -69.5 48.5t-68.5 13.5q-22 0 -42 -5t-35 -14.5t-24 -24t-9 -32.5q0 -30 25 -48t66 -33z" />
    <glyph glyph-name="Scedilla" unicode="&#x15e;" horiz-adv-x="556" 
d="M292 -27q45 -2 66.5 -24t21.5 -56q0 -24 -10 -41.5t-26 -28t-36.5 -15.5t-42.5 -5q-10 0 -25.5 1.5t-28.5 3.5v51q11 -2 21.5 -2.5t16.5 -0.5q32 0 49.5 8.5t17.5 29.5q0 40 -57 40h-18v52q-63 6 -118 34.5t-94 72.5l55 59q39 -44 88 -68.5t97 -24.5q26 0 52 8t47 24.5
t34.5 41t13.5 57.5q0 29 -9.5 51t-27 39t-42 30.5t-55.5 27.5l-71 31q-34 15 -64 31.5t-52 38.5t-35 51t-13 69q0 48 18 85t48.5 61.5t72.5 37.5t90 13q69 0 125 -27t96 -75l-54 -57q-32 37 -76 61t-91 24q-27 0 -51.5 -7.5t-43 -22t-29.5 -36t-11 -50.5q0 -45 30.5 -70.5
t85.5 -48.5l71 -30q39 -17 72 -35.5t57.5 -43.5t38.5 -58t14 -78q0 -51 -18 -90t-48 -66t-69.5 -42t-82.5 -18v-13z" />
    <glyph glyph-name="Scedilla" unicode="&#xf6c1;" horiz-adv-x="556" 
d="M292 -27q45 -2 66.5 -24t21.5 -56q0 -24 -10 -41.5t-26 -28t-36.5 -15.5t-42.5 -5q-10 0 -25.5 1.5t-28.5 3.5v51q11 -2 21.5 -2.5t16.5 -0.5q32 0 49.5 8.5t17.5 29.5q0 40 -57 40h-18v52q-63 6 -118 34.5t-94 72.5l55 59q39 -44 88 -68.5t97 -24.5q26 0 52 8t47 24.5
t34.5 41t13.5 57.5q0 29 -9.5 51t-27 39t-42 30.5t-55.5 27.5l-71 31q-34 15 -64 31.5t-52 38.5t-35 51t-13 69q0 48 18 85t48.5 61.5t72.5 37.5t90 13q69 0 125 -27t96 -75l-54 -57q-32 37 -76 61t-91 24q-27 0 -51.5 -7.5t-43 -22t-29.5 -36t-11 -50.5q0 -45 30.5 -70.5
t85.5 -48.5l71 -30q39 -17 72 -35.5t57.5 -43.5t38.5 -58t14 -78q0 -51 -18 -90t-48 -66t-69.5 -42t-82.5 -18v-13z" />
    <glyph glyph-name="scedilla" unicode="&#x15f;" horiz-adv-x="482" 
d="M258 -27q45 -2 66.5 -24t21.5 -56q0 -24 -10 -41.5t-26 -28t-36.5 -15.5t-42.5 -5q-10 0 -25.5 1.5t-28.5 3.5v51q11 -2 21.5 -2.5t16.5 -0.5q32 0 49.5 8.5t17.5 29.5q0 40 -57 40h-18v56q-51 5 -97 26.5t-81 59.5l48 51q35 -34 76 -52t79 -18q23 0 44.5 6.5t38.5 18.5
t27.5 29t10.5 38q0 39 -30.5 59t-78.5 37l-61 22q-30 11 -54.5 23.5t-42 29.5t-27 39.5t-9.5 52.5q0 33 13 61t38 49t61.5 32.5t84.5 11.5q54 0 100.5 -19t84.5 -60l-48 -51q-34 35 -69.5 48.5t-68.5 13.5q-22 0 -42 -5t-35 -14.5t-24 -24t-9 -32.5q0 -30 25 -48t66 -33
l60 -22q32 -12 59.5 -25t48 -31t32.5 -43t12 -61q0 -39 -14.5 -69t-39.5 -51t-57.5 -33.5t-69.5 -15.5v-17z" />
    <glyph glyph-name="scedilla" unicode="&#xf6c2;" horiz-adv-x="482" 
d="M258 -27q45 -2 66.5 -24t21.5 -56q0 -24 -10 -41.5t-26 -28t-36.5 -15.5t-42.5 -5q-10 0 -25.5 1.5t-28.5 3.5v51q11 -2 21.5 -2.5t16.5 -0.5q32 0 49.5 8.5t17.5 29.5q0 40 -57 40h-18v56q-51 5 -97 26.5t-81 59.5l48 51q35 -34 76 -52t79 -18q23 0 44.5 6.5t38.5 18.5
t27.5 29t10.5 38q0 39 -30.5 59t-78.5 37l-61 22q-30 11 -54.5 23.5t-42 29.5t-27 39.5t-9.5 52.5q0 33 13 61t38 49t61.5 32.5t84.5 11.5q54 0 100.5 -19t84.5 -60l-48 -51q-34 35 -69.5 48.5t-68.5 13.5q-22 0 -42 -5t-35 -14.5t-24 -24t-9 -32.5q0 -30 25 -48t66 -33
l60 -22q32 -12 59.5 -25t48 -31t32.5 -43t12 -61q0 -39 -14.5 -69t-39.5 -51t-57.5 -33.5t-69.5 -15.5v-17z" />
    <glyph glyph-name="Scaron" unicode="&#x160;" horiz-adv-x="556" 
d="M328 417q39 -17 72 -35.5t57.5 -43.5t38.5 -58t14 -78q0 -55 -20 -95.5t-53 -67.5t-76.5 -40.5t-90.5 -13.5q-71 0 -134 29.5t-107 78.5l55 59q39 -44 88 -68.5t97 -24.5q26 0 52 8t47 24.5t34.5 41t13.5 57.5q0 29 -9.5 51t-27 39t-42 30.5t-55.5 27.5l-71 31
q-34 15 -64 31.5t-52 38.5t-35 51t-13 69q0 48 18 85t48.5 61.5t72.5 37.5t90 13q69 0 125 -27t96 -75l-54 -57q-32 37 -76 61t-91 24q-27 0 -51.5 -7.5t-43 -22t-29.5 -36t-11 -50.5q0 -45 30.5 -70.5t85.5 -48.5zM439 918l-132 -124h-66l-132 124l28 34l137 -98l137 98z
" />
    <glyph glyph-name="scaron" unicode="&#x161;" horiz-adv-x="482" 
d="M287 319q32 -12 59.5 -25t48 -31t32.5 -43t12 -61q0 -42 -17 -74t-45.5 -53t-66 -32t-77.5 -11q-59 0 -110.5 21t-93.5 66l48 51q35 -34 76 -52t79 -18q23 0 44.5 6.5t38.5 18.5t27.5 29t10.5 38q0 39 -30.5 59t-78.5 37l-61 22q-30 11 -54.5 23.5t-42 29.5t-27 39.5
t-9.5 52.5q0 33 13 61t38 49t61.5 32.5t84.5 11.5q54 0 97 -17t88 -62l-48 -51q-34 35 -69.5 48.5t-68.5 13.5q-22 0 -42 -5t-35 -14.5t-24 -24t-9 -32.5q0 -30 25 -48t66 -33zM410 743l-133 -125h-66l-132 125l28 34l137 -99l137 98z" />
    <glyph glyph-name="Tcommaaccent" unicode="&#x162;" horiz-adv-x="549" 
d="M319 -90q0 -30 -10 -51t-25 -34t-33.5 -19t-36.5 -6q-7 0 -18.5 0.5t-16.5 1.5v38q9 -2 15 -2h14q63 0 69 57h-36v79h78v-64zM533 667h-214v-667h-89v667h-214v75h517v-75z" />
    <glyph glyph-name="Tcommaaccent" unicode="&#x21a;" horiz-adv-x="549" 
d="M319 -90q0 -30 -10 -51t-25 -34t-33.5 -19t-36.5 -6q-7 0 -18.5 0.5t-16.5 1.5v38q9 -2 15 -2h14q63 0 69 57h-36v79h78v-64zM533 667h-214v-667h-89v667h-214v75h517v-75z" />
    <glyph glyph-name="tcommaaccent" unicode="&#x163;" horiz-adv-x="344" 
d="M270 -90q0 -30 -10 -51t-25.5 -34t-34 -19t-36.5 -6q-7 0 -18.5 0.5t-16.5 1.5v38q9 -2 15 -2h14q63 0 69 57h-36v79h79v-64zM311 -4q-14 -3 -32.5 -5t-34.5 -2q-43 0 -70.5 9t-44 27.5t-23 47t-6.5 66.5v348h-89v68h89v126l85 43v-169h126v-68h-126v-345
q0 -45 15.5 -63.5t53.5 -18.5q13 0 29 2.5t28 4.5v-71z" />
    <glyph glyph-name="tcommaaccent" unicode="&#x21b;" horiz-adv-x="344" 
d="M270 -90q0 -30 -10 -51t-25.5 -34t-34 -19t-36.5 -6q-7 0 -18.5 0.5t-16.5 1.5v38q9 -2 15 -2h14q63 0 69 57h-36v79h79v-64zM311 -4q-14 -3 -32.5 -5t-34.5 -2q-43 0 -70.5 9t-44 27.5t-23 47t-6.5 66.5v348h-89v68h89v126l85 43v-169h126v-68h-126v-345
q0 -45 15.5 -63.5t53.5 -18.5q13 0 29 2.5t28 4.5v-71z" />
    <glyph glyph-name="Tcaron" unicode="&#x164;" horiz-adv-x="549" 
d="M437 919l-132 -125h-66l-132 125l28 34l137 -99l137 98zM533 667h-214v-667h-89v667h-214v75h517v-75z" />
    <glyph glyph-name="tcaron" unicode="&#x165;" horiz-adv-x="344" 
d="M326 669l-57 -62h-35l36 62h-38v87h94v-87zM311 -4q-14 -3 -32.5 -5t-34.5 -2q-43 0 -70.5 9t-44 27.5t-23 47t-6.5 66.5v348h-89v68h89v126l85 43v-169h126v-68h-126v-345q0 -45 15.5 -63.5t53.5 -18.5q13 0 29 2.5t28 4.5v-71z" />
    <glyph glyph-name="Utilde" unicode="&#x168;" horiz-adv-x="665" 
d="M306 822q-11 5 -22 8t-21 3q-17 0 -30.5 -5.5t-33.5 -24.5l-29 30q20 31 46 46t51 15q22 0 49 -11l37 -15q13 -5 23.5 -9t21.5 -4q17 0 30.5 5.5t33.5 24.5l30 -30q-20 -31 -46 -46t-51 -15q-14 0 -27.5 4.5t-27.5 9.5zM586 229q0 -66 -22 -112t-57.5 -75t-81 -42
t-91.5 -13q-49 0 -95 14t-81 44t-56.5 77.5t-21.5 115.5v504h89v-504q0 -44 13 -77t35.5 -54.5t52.5 -32t64 -10.5q32 0 62 10t53.5 30t37.5 51.5t14 74.5v512h85v-513z" />
    <glyph glyph-name="utilde" unicode="&#x169;" horiz-adv-x="577" 
d="M302 719q13 -5 23.5 -8.5t21.5 -3.5q17 0 30.5 5t33.5 24l30 -30q-20 -31 -46 -45.5t-51 -14.5q-14 0 -27.5 4t-27.5 9l-34 14q-11 5 -22 8t-21 3q-17 0 -30.5 -5.5t-33.5 -24.5l-29 30q20 31 46 46t51 15q23 0 50 -11zM420 64q-35 -28 -82 -51.5t-101 -23.5
q-81 0 -124 44.5t-43 121.5v400h85v-376q0 -54 23.5 -83.5t79.5 -29.5q39 0 81.5 19t78.5 48v422h85v-555h-83v64z" />
    <glyph glyph-name="Umacron" unicode="&#x16a;" horiz-adv-x="665" 
d="M469 794h-271v61h271v-61zM586 229q0 -66 -22 -112t-57.5 -75t-81 -42t-91.5 -13q-49 0 -95 14t-81 44t-56.5 77.5t-21.5 115.5v504h89v-504q0 -44 13 -77t35.5 -54.5t52.5 -32t64 -10.5q32 0 62 10t53.5 30t37.5 51.5t14 74.5v512h85v-513z" />
    <glyph glyph-name="umacron" unicode="&#x16b;" horiz-adv-x="577" 
d="M417 662h-271v61h271v-61zM420 64q-35 -28 -82 -51.5t-101 -23.5q-81 0 -124 44.5t-43 121.5v400h85v-376q0 -54 23.5 -83.5t79.5 -29.5q39 0 81.5 19t78.5 48v422h85v-555h-83v64z" />
    <glyph glyph-name="Uring" unicode="&#x16e;" horiz-adv-x="665" 
d="M386 887q0 21 -14.5 37t-36.5 16t-37 -15.5t-15 -37.5t15 -37t37 -15t36.5 15.5t14.5 36.5zM430 887q0 -19 -7.5 -36t-21 -29.5t-31.5 -20t-39 -7.5q-40 0 -66 26.5t-26 66.5q0 19 7.5 37t20.5 31t30.5 21t37.5 8q21 0 38 -8t30 -21.5t20 -31t7 -36.5zM586 229
q0 -66 -22 -112t-57.5 -75t-81 -42t-91.5 -13q-49 0 -95 14t-81 44t-56.5 77.5t-21.5 115.5v504h89v-504q0 -44 13 -77t35.5 -54.5t52.5 -32t64 -10.5q32 0 62 10t53.5 30t37.5 51.5t14 74.5v512h85v-513z" />
    <glyph glyph-name="uring" unicode="&#x16f;" horiz-adv-x="577" 
d="M337 721q0 21 -14.5 37t-36.5 16t-37 -15.5t-15 -37.5t15 -37t37 -15t36.5 15.5t14.5 36.5zM381 721q0 -19 -7 -36t-20 -30.5t-30 -21.5t-38 -8q-40 0 -68 28t-28 68q0 19 7.5 37t20.5 31t30.5 21t37.5 8q21 0 38 -8t30 -21.5t20 -31t7 -36.5zM420 64q-35 -28 -82 -51.5
t-101 -23.5q-81 0 -124 44.5t-43 121.5v400h85v-376q0 -54 23.5 -83.5t79.5 -29.5q39 0 81.5 19t78.5 48v422h85v-555h-83v64z" />
    <glyph glyph-name="Uhungarumlaut" unicode="&#x170;" horiz-adv-x="665" 
d="M428 920l-177 -126l-29 34l159 144zM594 920l-178 -126l-28 34l159 144zM586 229q0 -66 -22 -112t-57.5 -75t-81 -42t-91.5 -13q-49 0 -95 14t-81 44t-56.5 77.5t-21.5 115.5v504h89v-504q0 -44 13 -77t35.5 -54.5t52.5 -32t64 -10.5q32 0 62 10t53.5 30t37.5 51.5
t14 74.5v512h85v-513z" />
    <glyph glyph-name="uhungarumlaut" unicode="&#x171;" horiz-adv-x="577" 
d="M374 744l-177 -126l-29 34l159 144zM540 744l-178 -126l-28 34l159 144zM420 64q-35 -28 -82 -51.5t-101 -23.5q-81 0 -124 44.5t-43 121.5v400h85v-376q0 -54 23.5 -83.5t79.5 -29.5q39 0 81.5 19t78.5 48v422h85v-555h-83v64z" />
    <glyph glyph-name="Uogonek" unicode="&#x172;" horiz-adv-x="665" 
d="M539 -177q-20 -8 -36.5 -10.5t-36.5 -2.5q-42 0 -70.5 21.5t-28.5 64.5q0 32 16.5 59t42.5 45q-43 -13 -92 -13t-95 14t-81 44t-56.5 77.5t-21.5 115.5v504h89v-504q0 -44 13 -77t35.5 -54.5t52.5 -32t64 -10.5q32 0 62 10t53.5 30t37.5 51.5t14 74.5v512h85v-513
q0 -63 -20.5 -108t-53.5 -75q-12 -11 -26 -26.5t-26.5 -33t-20.5 -35t-8 -32.5q0 -23 15.5 -37t46.5 -14q22 0 46 7v-52z" />
    <glyph glyph-name="uogonek" unicode="&#x173;" horiz-adv-x="577" 
d="M502 0q-22 -19 -33 -40t-11 -41q0 -23 15.5 -37t46.5 -14q22 0 46 7v-52q-20 -8 -36.5 -10.5t-36.5 -2.5q-42 0 -70.5 21.5t-28.5 64.5q0 32 16.5 59t42.5 45h-33v64q-35 -28 -82 -51.5t-101 -23.5q-81 0 -124 44.5t-43 121.5v400h85v-376q0 -54 23.5 -83.5t79.5 -29.5
q39 0 81.5 19t78.5 48v422h85v-555h-1z" />
    <glyph glyph-name="Ydieresis" unicode="&#x178;" horiz-adv-x="625" 
d="M600 742l-239 -443v-299h-89v294l-246 448h99l190 -355l190 355h95zM273 794h-94v90h94v-90zM450 794h-94v90h94v-90z" />
    <glyph glyph-name="Zacute" unicode="&#x179;" horiz-adv-x="573" 
d="M435 900l-190 -106l-25 37l173 128zM528 0h-487v68l370 601h-351v72h458v-66l-370 -600h380v-75z" />
    <glyph glyph-name="zacute" unicode="&#x17a;" horiz-adv-x="454" 
d="M387 725l-190 -106l-25 37l173 128zM428 0h-403v57l291 427h-276v72h380v-57l-290 -427h298v-72z" />
    <glyph glyph-name="Zdotaccent" unicode="&#x17b;" horiz-adv-x="573" 
d="M329 794h-97v90h97v-90zM528 0h-487v68l370 601h-351v72h458v-66l-370 -600h380v-75z" />
    <glyph glyph-name="zdotaccent" unicode="&#x17c;" horiz-adv-x="454" 
d="M277 647h-97v90h97v-90zM428 0h-403v57l291 427h-276v72h380v-57l-290 -427h298v-72z" />
    <glyph glyph-name="florin" unicode="&#x192;" horiz-adv-x="573" 
d="M298 602q16 73 54 113.5t115 40.5q19 0 43 -4t43 -9l-27 -64q-13 3 -27.5 4.5t-25.5 1.5q-35 0 -55.5 -21.5t-31.5 -68.5l-34 -150h106v-72h-123l-86 -382q-17 -73 -56.5 -109t-116.5 -36q-20 0 -41 1.5t-46 8.5l21 67q15 -3 33.5 -4.5t30.5 -1.5q34 0 55.5 21t32.5 66
l84 369h-99v72h116z" />
    <glyph glyph-name="Scommaaccent" unicode="&#x218;" horiz-adv-x="556" 
d="M310 -90q0 -30 -10 -51t-25.5 -34t-34 -19t-36.5 -6q-7 0 -18.5 0.5t-16.5 1.5v38q9 -2 15 -2h14q63 0 69 57h-36v79h79v-64zM328 417q39 -17 72 -35.5t57.5 -43.5t38.5 -58t14 -78q0 -55 -20 -95.5t-53 -67.5t-76.5 -40.5t-90.5 -13.5q-71 0 -134 29.5t-107 78.5l55 59
q39 -44 88 -68.5t97 -24.5q26 0 52 8t47 24.5t34.5 41t13.5 57.5q0 29 -9.5 51t-27 39t-42 30.5t-55.5 27.5l-71 31q-34 15 -64 31.5t-52 38.5t-35 51t-13 69q0 48 18 85t48.5 61.5t72.5 37.5t90 13q69 0 125 -27t96 -75l-54 -57q-32 37 -76 61t-91 24q-27 0 -51.5 -7.5
t-43 -22t-29.5 -36t-11 -50.5q0 -45 30.5 -70.5t85.5 -48.5z" />
    <glyph glyph-name="scommaaccent" unicode="&#x219;" horiz-adv-x="482" 
d="M280 -90q0 -30 -10 -51t-25.5 -34t-34 -19t-36.5 -6q-7 0 -18.5 0.5t-16.5 1.5v38q9 -2 15 -2h14q63 0 69 57h-36v79h79v-64zM287 319q32 -12 59.5 -25t48 -31t32.5 -43t12 -61q0 -42 -17 -74t-45.5 -53t-66 -32t-77.5 -11q-59 0 -111.5 22t-92.5 65l48 51q35 -34 76 -52
t79 -18q23 0 44.5 6.5t38.5 18.5t27.5 29t10.5 38q0 39 -30.5 59t-78.5 37l-61 22q-30 11 -54.5 23.5t-42 29.5t-27 39.5t-9.5 52.5q0 33 13 61t38 49t61.5 32.5t84.5 11.5q54 0 100.5 -19t84.5 -60l-48 -51q-34 35 -69.5 48.5t-68.5 13.5q-22 0 -42 -5t-35 -14.5t-24 -24
t-9 -32.5q0 -30 25 -48t66 -33z" />
    <glyph glyph-name="circumflex" unicode="&#x2c6;" horiz-adv-x="333" 
d="M332 652l-28 -34l-137 98l-137 -98l-28 34l132 125h66z" />
    <glyph glyph-name="caron" unicode="&#x2c7;" horiz-adv-x="333" 
d="M332 743l-132 -125h-66l-132 125l28 34l137 -99l137 98z" />
    <glyph glyph-name="breve" unicode="&#x2d8;" horiz-adv-x="333" 
d="M309 747q-14 -55 -50 -84t-92 -29t-92.5 29t-49.5 84l44 12q14 -31 40 -47.5t58 -16.5t58 16.5t40 47.5z" />
    <glyph glyph-name="dotaccent" unicode="&#x2d9;" horiz-adv-x="333" 
d="M215 647h-97v90h97v-90z" />
    <glyph glyph-name="ring" unicode="&#x2da;" horiz-adv-x="333" 
d="M218 721q0 21 -14.5 37t-36.5 16t-37 -15.5t-15 -37.5t15 -37t37 -15t36.5 15.5t14.5 36.5zM262 721q0 -19 -7 -36t-20 -30.5t-30 -21.5t-38 -8q-40 0 -68 28t-28 68q0 19 7.5 37t20.5 31t30.5 21t37.5 8q21 0 38 -8t30 -21.5t20 -31t7 -36.5z" />
    <glyph glyph-name="ogonek" unicode="&#x2db;" horiz-adv-x="333" 
d="M253 -177q-20 -8 -36.5 -10.5t-36.5 -2.5q-42 0 -70.5 21.5t-28.5 64.5q0 34 18 62t46 46h48q-48 -42 -48 -85q0 -23 15.5 -37t46.5 -14q22 0 46 7v-52z" />
    <glyph glyph-name="tilde" unicode="&#x2dc;" horiz-adv-x="333" 
d="M188 719q13 -5 24 -8.5t22 -3.5q17 0 30.5 5t33.5 24l30 -30q-20 -31 -46 -45.5t-51 -14.5q-14 0 -27.5 4t-27.5 9l-34 14q-11 5 -22 8t-21 3q-17 0 -30.5 -5.5t-33.5 -24.5l-30 30q20 31 46 46t51 15q23 0 50 -11z" />
    <glyph glyph-name="hungarumlaut" unicode="&#x2dd;" horiz-adv-x="333" 
d="M224 744l-177 -126l-29 34l159 144zM390 744l-178 -126l-28 34l159 144z" />
    <glyph glyph-name="tonos" unicode="&#x384;" horiz-adv-x="333" 
d="M291 725l-190 -106l-25 37l173 128z" />
    <glyph glyph-name="dieresistonos" unicode="&#x385;" horiz-adv-x="333" 
d="M13 646v90h94v-90h-94zM174 685h-43l23 150h97zM226 646v90h94v-90h-94z" />
    <glyph glyph-name="Alphatonos" unicode="&#x386;" horiz-adv-x="627" 
d="M309 635l-122 -359h247zM527 0l-71 204h-291l-69 -204h-90l258 742h94l263 -742h-94zM54 627h-61l107 115h109z" />
    <glyph glyph-name="Epsilontonos" unicode="&#x388;" horiz-adv-x="712" 
d="M9 627h-61l107 115h109zM215 0v742h425v-72h-336v-242h282v-72h-282v-283h349v-73h-438z" />
    <glyph glyph-name="Etatonos" unicode="&#x389;" horiz-adv-x="815" 
d="M9 627h-61l107 115h109zM640 0v355h-336v-355h-89v742h89v-312h336v312h90v-742h-90z" />
    <glyph glyph-name="Iotatonos" unicode="&#x38a;" horiz-adv-x="395" 
d="M215 0v742h90v-742h-90zM9 627h-61l107 115h109z" />
    <glyph glyph-name="Omicrontonos" unicode="&#x38c;" horiz-adv-x="742" 
d="M593 366q0 73 -15 131t-42.5 98.5t-66.5 62t-87 21.5t-86.5 -21.5t-65.5 -61t-42 -97t-15 -129.5q0 -71 15 -128t42.5 -97t66 -61.5t85.5 -21.5q48 0 87 21.5t66.5 61.5t42.5 96t15 125zM9 627h-61l107 115h109zM687 369q0 -86 -21.5 -156.5t-61.5 -121t-96 -78.5
t-125 -28t-125.5 28t-96 78t-61 120.5t-21.5 154.5q0 89 21 161t60.5 123t96 78.5t126.5 27.5t126 -27.5t95.5 -78.5t61 -122.5t21.5 -158.5z" />
    <glyph glyph-name="Upsilontonos" unicode="&#x38e;" horiz-adv-x="801" 
d="M9 627h-61l107 115h109zM536 299v-299h-88v294l-246 448h99l190 -355l190 355h95z" />
    <glyph glyph-name="Omegatonos" unicode="&#x38f;" horiz-adv-x="754" 
d="M9 627h-61l107 115h109zM457 0v64q33 33 59.5 67t45 73t29 84.5t10.5 102.5q0 66 -15.5 119.5t-44 91t-68 57.5t-87.5 20t-87.5 -20t-68 -57.5t-44 -91t-15.5 -119.5q0 -57 10 -102.5t29 -84.5t45.5 -73t59.5 -67v-64h-238v75h131q-68 66 -99.5 147t-31.5 169
q0 82 21 149t60.5 115t97 74.5t130.5 26.5t130.5 -26.5t97 -74.5t60.5 -115t21 -149q0 -88 -31.5 -169t-99.5 -147h131v-75h-238z" />
    <glyph glyph-name="iotadieresistonos" unicode="&#x390;" horiz-adv-x="313" 
d="M290 -4q-14 -3 -32.5 -5t-34.5 -2q-43 0 -70.5 9t-44 27.5t-23 47t-6.5 66.5v416h85v-413q0 -45 15.5 -63.5t53.5 -18.5q13 0 29 2.5t28 4.5v-71v0zM-31 646v90h94v-90h-94zM130 685h-43l23 150h97zM182 646v90h94v-90h-94z" />
    <glyph glyph-name="Alpha" unicode="&#x391;" horiz-adv-x="627" 
d="M309 635l-122 -359h247zM527 0l-71 204h-291l-69 -204h-90l258 742h94l263 -742h-94z" />
    <glyph glyph-name="Beta" unicode="&#x392;" horiz-adv-x="634" 
d="M493 217q0 66 -37.5 99t-122.5 33h-160v-275h167q78 0 115.5 37t37.5 106zM474 554q0 52 -36.5 84t-117.5 32h-147v-248h159q35 0 61.5 11t44.5 29t27 42t9 50zM585 214q0 -99 -57.5 -156.5t-184.5 -57.5h-258v742h245q62 0 106.5 -13t72.5 -37t41 -57.5t13 -73.5
q0 -53 -23.5 -98.5t-80.5 -71.5q60 -17 93 -64t33 -113z" />
    <glyph glyph-name="Gamma" unicode="&#x393;" horiz-adv-x="539" 
d="M174 667v-667h-89v742h426v-75h-337z" />
    <glyph glyph-name="Delta" unicode="&#x394;" horiz-adv-x="627" 
d="M309 627l-189 -555h382zM6 0l258 742h94l263 -742h-615z" />
    <glyph glyph-name="Delta" unicode="&#x2206;" horiz-adv-x="627" 
d="M309 627l-189 -555h382zM6 0l258 742h94l263 -742h-615z" />
    <glyph glyph-name="Epsilon" unicode="&#x395;" horiz-adv-x="582" 
d="M85 0v742h425v-72h-336v-242h282v-72h-282v-283h349v-73h-438z" />
    <glyph glyph-name="Zeta" unicode="&#x396;" horiz-adv-x="573" 
d="M41 0v68l370 600h-351v74h458v-67l-370 -600h380v-75h-487z" />
    <glyph glyph-name="Eta" unicode="&#x397;" horiz-adv-x="685" 
d="M510 0v355h-336v-355h-89v742h89v-312h336v312h90v-742h-90z" />
    <glyph glyph-name="Theta" unicode="&#x398;" horiz-adv-x="718" 
d="M230 334v76h258v-76h-258zM569 366q0 73 -15 131t-42.5 98.5t-66.5 62t-87 21.5t-86.5 -21.5t-65.5 -61t-42 -97t-15 -129.5q0 -71 15 -128t42.5 -97t66 -61.5t85.5 -21.5q48 0 87 21.5t66.5 61.5t42.5 96t15 125zM663 369q0 -86 -21.5 -156.5t-61.5 -121t-96 -78.5
t-125 -28t-125.5 28t-96 78t-61 120.5t-21.5 154.5q0 89 21 161t60.5 123t96 78.5t126.5 27.5t126 -27.5t95.5 -78.5t61 -122.5t21.5 -158.5z" />
    <glyph glyph-name="Iota" unicode="&#x399;" horiz-adv-x="270" 
d="M90 0v742h90v-742h-90z" />
    <glyph glyph-name="Kappa" unicode="&#x39a;" horiz-adv-x="616" 
d="M504 0l-249 369l-81 -91v-278h-89v742h89v-346l299 346h107l-265 -308l296 -434h-107z" />
    <glyph glyph-name="Lambda" unicode="&#x39b;" horiz-adv-x="627" 
d="M527 0l-218 627l-213 -627h-90l258 742h94l263 -742h-94z" />
    <glyph glyph-name="Mu" unicode="&#x39c;" horiz-adv-x="797" 
d="M627 0v562l-202 -461h-60l-195 458v-559h-85v742h93l220 -519l226 519h88v-742h-85z" />
    <glyph glyph-name="Nu" unicode="&#x39d;" horiz-adv-x="686" 
d="M514 0l-345 584v-584h-84v742h86l345 -584v584h85v-742h-87z" />
    <glyph glyph-name="Xi" unicode="&#x39e;" horiz-adv-x="577" 
d="M59 0v73h459v-73h-459zM106 356v72h366v-72h-366zM77 670v72h424v-72h-424z" />
    <glyph glyph-name="Omicron" unicode="&#x39f;" horiz-adv-x="718" 
d="M569 366q0 73 -15 131t-42.5 98.5t-66.5 62t-87 21.5t-86.5 -21.5t-65.5 -61t-42 -97t-15 -129.5q0 -71 15 -128t42.5 -97t66 -61.5t85.5 -21.5q48 0 87 21.5t66.5 61.5t42.5 96t15 125zM663 369q0 -86 -21.5 -156.5t-61.5 -121t-96 -78.5t-125 -28t-125.5 28t-96 78
t-61 120.5t-21.5 154.5q0 89 21 161t60.5 123t96 78.5t126.5 27.5t126 -27.5t95.5 -78.5t61 -122.5t21.5 -158.5z" />
    <glyph glyph-name="Pi" unicode="&#x3a0;" horiz-adv-x="685" 
d="M510 0v667h-336v-667h-89v742h515v-742h-90z" />
    <glyph glyph-name="Rho" unicode="&#x3a1;" horiz-adv-x="613" 
d="M476 524q0 28 -9 54.5t-28.5 46t-49 31.5t-70.5 12h-145v-291h165q36 0 61.5 12.5t42.5 32.5t25 46.5t8 55.5zM568 526q0 -47 -15 -87.5t-43 -70t-68.5 -46.5t-91.5 -17h-176v-305h-89v742h244q64 0 109.5 -18.5t74 -48.5t42 -69t13.5 -80z" />
    <glyph glyph-name="Sigma" unicode="&#x3a3;" horiz-adv-x="583" 
d="M38 0v68l248 324l-235 277v73h470v-75h-359l229 -270l-246 -322h396v-75h-503z" />
    <glyph glyph-name="Tau" unicode="&#x3a4;" horiz-adv-x="549" 
d="M319 667v-667h-89v667h-214v75h517v-75h-214z" />
    <glyph glyph-name="Upsilon" unicode="&#x3a5;" horiz-adv-x="625" 
d="M360 299v-299h-88v294l-246 448h99l190 -355l190 355h95z" />
    <glyph glyph-name="Phi" unicode="&#x3a6;" horiz-adv-x="753" 
d="M332 582q-47 -5 -82 -22.5t-58.5 -45.5t-35.5 -64.5t-12 -78.5t12 -78t35.5 -64t58.5 -46t82 -22v421zM609 371q0 42 -12 78.5t-35.5 64.5t-58.5 45.5t-82 22.5v-421q47 4 82 22t58.5 46t35.5 64t12 78zM701 371q0 -60 -19.5 -110t-55.5 -87t-88 -59.5t-117 -27.5v-87
h-89v87q-66 5 -118 28t-88 60t-55 86.5t-19 109.5t19 110t55 87t88 60t118 28v86h89v-86q66 -5 118 -28t88 -60t55 -87t19 -110z" />
    <glyph glyph-name="Chi" unicode="&#x3a7;" horiz-adv-x="619" 
d="M491 0l-183 310l-184 -310h-101l234 383l-219 359h105l166 -283l167 283h101l-217 -356l236 -386h-105z" />
    <glyph glyph-name="Psi" unicode="&#x3a8;" horiz-adv-x="762" 
d="M683 506q0 -68 -22 -116t-58 -78t-82 -44t-95 -14v-254h-90v254q-49 0 -95 14t-82 44t-58 78t-22 116v236h90v-236q0 -44 13.5 -77t36.5 -54.5t53.5 -32.5t63.5 -11v411h90v-411q33 0 63.5 11t53.5 32.5t36.5 54.5t13.5 77v236h90v-236v0z" />
    <glyph glyph-name="Omega" unicode="&#x3a9;" horiz-adv-x="736" 
d="M439 0v64q33 33 59.5 67t45 73t29 84.5t10.5 102.5q0 66 -15.5 119.5t-44 91t-68 57.5t-87.5 20t-87.5 -20t-68 -57.5t-44 -91t-15.5 -119.5q0 -57 10 -102.5t29 -84.5t45.5 -73t59.5 -67v-64h-238v75h131q-68 66 -99.5 147t-31.5 169q0 82 21 149t60.5 115t97 74.5
t130.5 26.5t130.5 -26.5t97 -74.5t60.5 -115t21 -149q0 -88 -31.5 -169t-99.5 -147h131v-75h-238z" />
    <glyph glyph-name="Omega" unicode="&#x2126;" horiz-adv-x="736" 
d="M439 0v64q33 33 59.5 67t45 73t29 84.5t10.5 102.5q0 66 -15.5 119.5t-44 91t-68 57.5t-87.5 20t-87.5 -20t-68 -57.5t-44 -91t-15.5 -119.5q0 -57 10 -102.5t29 -84.5t45.5 -73t59.5 -67v-64h-238v75h131q-68 66 -99.5 147t-31.5 169q0 82 21 149t60.5 115t97 74.5
t130.5 26.5t130.5 -26.5t97 -74.5t60.5 -115t21 -149q0 -88 -31.5 -169t-99.5 -147h131v-75h-238z" />
    <glyph glyph-name="Iotadieresis" unicode="&#x3aa;" horiz-adv-x="270" 
d="M90 0v742h90v-742h-90zM0 794v90h93v-90h-93zM176 794v90h94v-90h-94z" />
    <glyph glyph-name="Upsilondieresis" unicode="&#x3ab;" horiz-adv-x="625" 
d="M360 299v-299h-88v294l-246 448h99l190 -355l190 355h95zM179 794v90h94v-90h-94zM356 794v90h94v-90h-94z" />
    <glyph glyph-name="alphatonos" unicode="&#x3ac;" horiz-adv-x="627" 
d="M421 277q-7 29 -17 67t-27.5 71.5t-44.5 56.5t-67 23q-29 0 -52 -16t-40 -44.5t-26 -68.5t-9 -89t9 -89t26 -68.5t41.5 -44t56.5 -15.5q37 0 63 24t43.5 58.5t27.5 71.5t16 63zM500 0q-6 14 -13 31t-13.5 35t-12.5 36t-10 33q-34 -82 -80 -114t-100 -32q-53 0 -94 20
t-69.5 57.5t-43.5 91t-15 119.5t15 119t43.5 91t69.5 58.5t94 20.5q37 0 65.5 -11t50.5 -31.5t38.5 -49.5t28.5 -64l41 145h83l-85 -287l26 -90q4 -15 11.5 -36.5t16.5 -45.5t20 -49t22 -47h-89zM312 627h-61l107 115h109z" />
    <glyph glyph-name="epsilontonos" unicode="&#x3ad;" horiz-adv-x="488" 
d="M464 77q-45 -48 -96.5 -68t-105.5 -20q-48 0 -86.5 12.5t-65.5 35t-41.5 54.5t-14.5 70q0 24 7.5 45.5t20.5 38.5t31 29.5t38 18.5q-19 8 -34 21.5t-25.5 30t-16 34.5t-5.5 36q0 31 12.5 59t37 48t61 32t84.5 12q49 0 95.5 -16.5t91.5 -62.5l-48 -51q-31 32 -67 47
t-70 15q-53 0 -82 -26.5t-29 -62.5q0 -33 27.5 -59.5t84.5 -26.5h84v-69h-95q-60 0 -87 -27t-27 -65q0 -45 33.5 -73.5t93.5 -28.5q32 0 68.5 15.5t73.5 54.5l52 -53v0zM253 627h-61l107 115h109z" />
    <glyph glyph-name="etatonos" unicode="&#x3ae;" horiz-adv-x="577" 
d="M422 0v376q0 54 -23 83.5t-79 29.5q-39 0 -81.5 -19t-78.5 -48v-422h-85v555h82v-64q38 29 83.5 52t99.5 23q80 0 123.5 -44.5t43.5 -121.5v-400h-85zM300 627h-61l107 115h109z" />
    <glyph glyph-name="iotatonos" unicode="&#x3af;" horiz-adv-x="313" 
d="M290 -4q-14 -3 -32.5 -5t-34.5 -2q-43 0 -70.5 9t-44 27.5t-23 47t-6.5 66.5v416h85v-413q0 -45 15.5 -63.5t53.5 -18.5q13 0 29 2.5t28 4.5v-71v0zM139 627h-61l107 115h109z" />
    <glyph glyph-name="upsilondieresistonos" unicode="&#x3b0;" horiz-adv-x="581" 
d="M523 282q0 -62 -12.5 -115t-40.5 -93t-72.5 -62.5t-107.5 -22.5q-113 0 -166.5 66.5t-53.5 182.5v317h85v-319q0 -35 6.5 -67t22.5 -56t42 -38.5t64 -14.5q40 0 68 16.5t45.5 46t25 70t7.5 89.5q0 34 -5 73t-13.5 76t-18.5 69.5t-20 54.5h87q9 -21 19.5 -52.5t18.5 -68
t13.5 -76t5.5 -76.5zM117 646v90h94v-90h-94zM278 685h-43l23 150h97zM330 646v90h94v-90h-94z" />
    <glyph glyph-name="alpha" unicode="&#x3b1;" horiz-adv-x="627" 
d="M421 277q-7 29 -17 67t-27.5 71.5t-44.5 56.5t-67 23q-29 0 -52 -16t-40 -44.5t-26 -68.5t-9 -89t9 -89t26 -68.5t41.5 -44t56.5 -15.5q37 0 63 24t43.5 58.5t27.5 71.5t16 63zM500 0q-6 14 -13 31t-13.5 35t-12.5 36t-10 33q-34 -82 -80 -114t-100 -32q-53 0 -94 20
t-69.5 57.5t-43.5 91t-15 119.5t15 119t43.5 91t69.5 58.5t94 20.5q37 0 65.5 -11t50.5 -31.5t38.5 -49.5t28.5 -64l41 145h83l-85 -287l26 -90q4 -15 11.5 -36.5t16.5 -45.5t20 -49t22 -47h-89z" />
    <glyph glyph-name="beta" unicode="&#x3b2;" horiz-adv-x="581" 
d="M441 219q0 67 -41 104t-111 37h-50v71h51q24 0 46 10t38.5 28t26.5 42.5t10 53.5q0 22 -7.5 43.5t-22.5 38.5t-38.5 27.5t-55.5 10.5q-57 0 -92 -32.5t-35 -95.5v-444q29 -21 63 -36.5t76 -15.5q25 0 50.5 9t45.5 28t33 49t13 72zM530 217q0 -61 -20.5 -104.5t-53.5 -71
t-73.5 -40t-79.5 -12.5q-43 0 -79.5 14t-63.5 34v-239h-85v757q0 52 15.5 89.5t43.5 62.5t68 37t89 12q44 0 82 -13.5t65.5 -38t43.5 -59t16 -77.5q0 -51 -27.5 -97t-81.5 -70q70 -19 105.5 -68.5t35.5 -115.5z" />
    <glyph glyph-name="gamma" unicode="&#x3b3;" horiz-adv-x="538" 
d="M310 8v-210h-85v210l-203 547h90l157 -444l159 444h88z" />
    <glyph glyph-name="delta" unicode="&#x3b4;" horiz-adv-x="577" 
d="M439 241q0 35 -12 64t-33.5 53.5t-50.5 45.5t-63 39q-60 -25 -101 -76t-41 -126q0 -35 9.5 -68t28 -58.5t46.5 -41t65 -15.5q36 0 64 15.5t47.5 41t30 58.5t10.5 68zM528 241q0 -57 -18 -104t-50 -80.5t-76.5 -51.5t-97.5 -18q-54 0 -98 18t-74.5 51.5t-47.5 80.5
t-17 104q0 49 15.5 88t40.5 68.5t55 50t60 33.5l-16 11q-58 40 -81.5 70.5t-23.5 67.5q0 25 12.5 47.5t38 40t64 28t90.5 10.5q48 0 93 -13t80 -33l-32 -64q-32 18 -66 30t-76 12q-54 0 -86 -18t-32 -40q0 -20 23 -43t80 -57l89 -54q28 -17 55 -39.5t48.5 -51t34.5 -64.5
t13 -80z" />
    <glyph glyph-name="epsilon" unicode="&#x3b5;" horiz-adv-x="488" 
d="M464 77q-45 -48 -96.5 -68t-105.5 -20q-48 0 -86.5 12.5t-65.5 35t-41.5 54.5t-14.5 70q0 24 7.5 45.5t20.5 38.5t31 29.5t38 18.5q-19 8 -34 21.5t-25.5 30t-16 34.5t-5.5 36q0 31 12.5 59t37 48t61 32t84.5 12q49 0 95.5 -16.5t91.5 -62.5l-48 -51q-31 32 -67 47
t-70 15q-53 0 -82 -26.5t-29 -62.5q0 -33 27.5 -59.5t84.5 -26.5h84v-69h-95q-60 0 -87 -27t-27 -65q0 -45 33.5 -73.5t93.5 -28.5q32 0 68.5 15.5t73.5 54.5l52 -53v0z" />
    <glyph glyph-name="zeta" unicode="&#x3b6;" horiz-adv-x="499" 
d="M470 -50q0 -42 -17.5 -71t-46 -47t-64.5 -26t-72 -8q-20 0 -41.5 3t-41.5 8v73q22 -8 47.5 -11t48.5 -3q17 0 36 4t35 12.5t26.5 22.5t10.5 35q0 34 -35.5 48.5t-106.5 25.5q-41 6 -77.5 21.5t-63.5 39.5t-43 57.5t-16 76.5q0 46 12 95t40 101t73.5 106.5t113.5 110.5
l60 50h-192v68h293v-66l-63 -55q-67 -59 -114 -110t-77 -98t-43.5 -92.5t-13.5 -92.5q0 -35 10.5 -59.5t29 -40.5t44 -25t55.5 -15q43 -8 79 -18t61 -25.5t39 -38t14 -56.5z" />
    <glyph glyph-name="eta" unicode="&#x3b7;" horiz-adv-x="577" 
d="M422 0v376q0 54 -23 83.5t-79 29.5q-39 0 -81.5 -19t-78.5 -48v-422h-85v555h82v-64q38 29 83.5 52t99.5 23q80 0 123.5 -44.5t43.5 -121.5v-400h-85z" />
    <glyph glyph-name="theta" unicode="&#x3b8;" horiz-adv-x="606" 
d="M144 333q3 -72 17 -123.5t35.5 -84.5t48.5 -49t57 -16q31 0 59 16t49.5 49t35 84.5t16.5 123.5h-318zM462 403q-3 76 -16.5 129t-34.5 86.5t-49 48.5t-59 15q-30 0 -57.5 -15t-49 -48.5t-35.5 -86.5t-17 -129h318v0zM553 369q0 -88 -17 -159t-49.5 -121t-79 -77
t-104.5 -27q-60 0 -106.5 27.5t-78.5 77.5t-48.5 120t-16.5 156q0 91 16.5 163t48.5 122.5t78.5 77.5t106.5 27q59 0 105.5 -27t78.5 -77t49 -121.5t17 -161.5z" />
    <glyph glyph-name="iota" unicode="&#x3b9;" horiz-adv-x="313" 
d="M291 -4q-14 -3 -32.5 -5t-34.5 -2q-43 0 -70.5 9t-44 27.5t-23 47t-6.5 66.5v416h85v-413q0 -45 15.5 -63.5t53.5 -18.5q13 0 29 2.5t28 4.5v-71v0z" />
    <glyph glyph-name="kappa" unicode="&#x3ba;" horiz-adv-x="515" 
d="M402 0l-191 280l-51 -51v-229h-85v555h85v-219l215 219h105l-211 -216l231 -339h-98z" />
    <glyph glyph-name="lambda" unicode="&#x3bb;" horiz-adv-x="509" 
d="M507 -5q-26 0 -50 2t-44 10t-35 23t-24 42l-98 293l-163 -365h-91l218 474l-39 117q-15 46 -34.5 64.5t-45.5 18.5q-19 0 -36.5 -4.5t-41.5 -12.5l-20 67q26 11 53.5 14.5t48.5 3.5q22 0 43.5 -3.5t40 -13.5t33.5 -28.5t26 -49.5l174 -520q11 -34 32 -47.5t53 -13.5v-71
v0z" />
    <glyph glyph-name="nu" unicode="&#x3bd;" horiz-adv-x="538" 
d="M307 0h-79l-206 555h90l157 -444l159 444h88z" />
    <glyph glyph-name="xi" unicode="&#x3be;" horiz-adv-x="449" 
d="M420 -50q0 -42 -17.5 -71t-46 -47t-64.5 -26t-72 -8q-20 0 -41.5 3t-41.5 8v73q22 -8 47.5 -11t48.5 -3q17 0 36 4t35 12.5t26.5 22.5t10.5 35q0 17 -9 29t-24 20t-35.5 14t-43.5 11q-81 17 -130.5 63.5t-49.5 131.5q0 43 14 82.5t38 72t57 56.5t71 38q-64 10 -103 42.5
t-39 98.5q0 75 59.5 115t162.5 40h71v-70h-60q-76 0 -112 -20.5t-36 -67.5q0 -30 15 -47.5t38 -26.5t51 -11.5t54 -2.5h45v-70q-44 0 -86 -16t-76 -44.5t-54.5 -68t-20.5 -85.5q0 -56 23 -89t82 -46q31 -7 62.5 -16t57 -25t41.5 -40t16 -60z" />
    <glyph glyph-name="omicron" unicode="&#x3bf;" 
d="M462 277q0 49 -11.5 89t-32.5 68.5t-51 44.5t-67 16t-67 -16t-51 -44.5t-32.5 -68.5t-11.5 -89t11.5 -89t32.5 -68.5t51 -44t67 -15.5t67 15.5t51 44t32.5 68.5t11.5 89zM551 277q0 -66 -18 -119.5t-51 -91t-79.5 -57.5t-102.5 -20t-102.5 20t-79.5 57.5t-51 91
t-18 119.5t18 119t51 91t79.5 58.5t102.5 20.5t102.5 -20.5t79.5 -58.5t51 -91t18 -119z" />
    <glyph glyph-name="pi" unicode="&#x3c0;" horiz-adv-x="663" 
d="M543 487v-487h-86v487h-252v-487h-85v487h-110v68h643v-68h-110z" />
    <glyph glyph-name="rho" unicode="&#x3c1;" horiz-adv-x="621" 
d="M483 277q0 49 -11.5 89t-32.5 68.5t-51 44.5t-67 16t-67 -16t-51 -44.5t-32.5 -68.5t-11.5 -89t11.5 -89t32.5 -68.5t51 -44t67 -15.5t67 15.5t51 44t32.5 68.5t11.5 89zM572 277q0 -66 -18 -119.5t-51 -91t-79.5 -57.5t-102.5 -20q-49 0 -91.5 18.5t-74.5 56.5v-266h-85
v479q0 66 18 119t51 91t79.5 58.5t102.5 20.5t102.5 -20.5t79.5 -58.5t51 -91t18 -119z" />
    <glyph glyph-name="sigma1" unicode="&#x3c2;" horiz-adv-x="516" 
d="M437 443q-30 26 -61 39t-71 13q-49 0 -81 -23t-51 -58t-26.5 -78t-7.5 -83t8.5 -68t25.5 -47t43 -31t62 -19q32 -6 66 -14t62 -22.5t46 -38.5t18 -63q0 -42 -17.5 -71t-46 -47t-64.5 -26t-72 -8q-21 0 -42 3t-41 8v73q23 -8 47.5 -11t48.5 -3q17 0 36 4t35 12.5
t26.5 22.5t10.5 35q0 18 -10 29.5t-28.5 19.5t-45 13.5t-58.5 11.5q-106 20 -153 77.5t-47 160.5q0 62 15 118.5t46 99.5t79 68.5t114 25.5q51 0 97 -15.5t87 -55.5z" />
    <glyph glyph-name="sigma" unicode="&#x3c3;" horiz-adv-x="612" 
d="M462 277q0 63 -22.5 117.5t-64.5 92.5h-69q-42 0 -73.5 -17t-52.5 -46t-31.5 -67t-10.5 -80q0 -49 11.5 -89t32.5 -68.5t51 -44t67 -15.5t67 15.5t51 44t32.5 68.5t11.5 89zM464 487q43 -40 65 -89.5t22 -120.5q0 -66 -18 -119.5t-51 -91t-79.5 -57.5t-102.5 -20
t-102.5 20t-79.5 57.5t-51 91t-18 119.5q0 68 20.5 120t55 87t79.5 53t95 18h307v-68h-142z" />
    <glyph glyph-name="tau" unicode="&#x3c4;" horiz-adv-x="477" 
d="M281 484v-340q0 -33 12.5 -58.5t46.5 -25.5q14 0 37 5v-71q-9 -3 -20 -4t-27 -1q-42 0 -68 11.5t-41 31.5t-20 48t-5 61v343h-96q-23 0 -45 -5.5t-45 -14.5v74q17 8 34.5 12.5t49.5 4.5h373v-71h-186z" />
    <glyph glyph-name="upsilon" unicode="&#x3c5;" horiz-adv-x="581" 
d="M523 282q0 -62 -12.5 -115t-40.5 -93t-72.5 -62.5t-107.5 -22.5q-113 0 -166.5 66.5t-53.5 182.5v317h85v-319q0 -35 6.5 -67t22.5 -56t42 -38.5t64 -14.5q40 0 68 16.5t45.5 46t25 70t7.5 89.5q0 34 -5 73t-13.5 76t-18.5 69.5t-20 54.5h87q9 -21 19.5 -52.5t18.5 -68
t13.5 -76t5.5 -76.5z" />
    <glyph glyph-name="phi" unicode="&#x3c6;" horiz-adv-x="701" 
d="M563 277q0 40 -9.5 75.5t-30 63.5t-52.5 46t-78 23v-410q43 6 75 23t53 43.5t31.5 61t10.5 74.5zM652 277q0 -54 -15.5 -101.5t-48 -83.5t-81 -59t-114.5 -30v-205h-85v205q-66 7 -114.5 30t-81 59t-48 83.5t-15.5 101.5q0 49 13 94t38.5 81t63 61t87.5 35v-74
q-29 -9 -50 -28t-35 -45t-21 -58t-7 -66q0 -40 10.5 -74.5t31.5 -61t53 -43.5t75 -23v480h68q62 0 113 -19.5t87 -55.5t56 -87.5t20 -115.5z" />
    <glyph glyph-name="chi" unicode="&#x3c7;" horiz-adv-x="545" 
d="M420 0l-150 221l-149 -221h-97l197 285l-188 270h101l137 -204l138 204h97l-186 -268l201 -287h-101z" />
    <glyph glyph-name="psi" unicode="&#x3c8;" horiz-adv-x="715" 
d="M657 316q0 -135 -64.5 -218t-192.5 -95v-205h-85v205q-129 12 -187 83t-58 193v276h85v-276q0 -85 37 -136.5t123 -64.5v678h85v-678q87 11 128.5 71t41.5 167q0 39 -7 78t-16 72t-17.5 57t-11.5 32h88q21 -48 36 -111t15 -128z" />
    <glyph glyph-name="omega" unicode="&#x3c9;" horiz-adv-x="764" 
d="M702 250q0 -124 -44 -192.5t-130 -68.5q-113 0 -146 112q-19 -56 -54 -84t-92 -28q-86 0 -130 68.5t-44 192.5q0 66 13.5 146t42.5 159h88q-14 -37 -25 -76.5t-18 -79.5t-10.5 -78t-3.5 -71q0 -88 24.5 -140t75.5 -52q39 0 65 46t26 125v200h84v-200q0 -79 26 -125
t65 -46q51 0 75.5 52t24.5 140q0 33 -3.5 71t-10.5 78t-18 79.5t-25 76.5h88q29 -79 42.5 -159t13.5 -146z" />
    <glyph glyph-name="iotadieresis" unicode="&#x3ca;" horiz-adv-x="313" 
d="M291 -4q-14 -3 -32.5 -5t-34.5 -2q-43 0 -70.5 9t-44 27.5t-23 47t-6.5 66.5v416h85v-413q0 -45 15.5 -63.5t53.5 -18.5q13 0 29 2.5t28 4.5v-71v0zM-13 646v90h94v-90h-94zM164 646v90h94v-90h-94z" />
    <glyph glyph-name="upsilondieresis" unicode="&#x3cb;" horiz-adv-x="581" 
d="M523 282q0 -62 -12.5 -115t-40.5 -93t-72.5 -62.5t-107.5 -22.5q-113 0 -166.5 66.5t-53.5 182.5v317h85v-319q0 -35 6.5 -67t22.5 -56t42 -38.5t64 -14.5q40 0 68 16.5t45.5 46t25 70t7.5 89.5q0 34 -5 73t-13.5 76t-18.5 69.5t-20 54.5h87q9 -21 19.5 -52.5t18.5 -68
t13.5 -76t5.5 -76.5zM134 646v90h94v-90h-94zM311 646v90h94v-90h-94z" />
    <glyph glyph-name="omicrontonos" unicode="&#x3cc;" 
d="M462 277q0 49 -11.5 89t-32.5 68.5t-51 44.5t-67 16t-67 -16t-51 -44.5t-32.5 -68.5t-11.5 -89t11.5 -89t32.5 -68.5t51 -44t67 -15.5t67 15.5t51 44t32.5 68.5t11.5 89zM551 277q0 -66 -18 -119.5t-51 -91t-79.5 -57.5t-102.5 -20t-102.5 20t-79.5 57.5t-51 91
t-18 119.5t18 119t51 91t79.5 58.5t102.5 20.5t102.5 -20.5t79.5 -58.5t51 -91t18 -119zM287 627h-61l107 115h109z" />
    <glyph glyph-name="upsilontonos" unicode="&#x3cd;" horiz-adv-x="581" 
d="M523 282q0 -62 -12.5 -115t-40.5 -93t-72.5 -62.5t-107.5 -22.5q-113 0 -166.5 66.5t-53.5 182.5v317h85v-319q0 -35 6.5 -67t22.5 -56t42 -38.5t64 -14.5q40 0 68 16.5t45.5 46t25 70t7.5 89.5q0 34 -5 73t-13.5 76t-18.5 69.5t-20 54.5h87q9 -21 19.5 -52.5t18.5 -68
t13.5 -76t5.5 -76.5zM289 627h-61l107 115h109z" />
    <glyph glyph-name="omegatonos" unicode="&#x3ce;" horiz-adv-x="764" 
d="M702 250q0 -124 -44 -192.5t-130 -68.5q-113 0 -146 112q-19 -56 -54 -84t-92 -28q-86 0 -130 68.5t-44 192.5q0 66 13.5 146t42.5 159h88q-14 -37 -25 -76.5t-18 -79.5t-10.5 -78t-3.5 -71q0 -88 24.5 -140t75.5 -52q39 0 65 46t26 125v200h84v-200q0 -79 26 -125
t65 -46q51 0 75.5 52t24.5 140q0 33 -3.5 71t-10.5 78t-18 79.5t-25 76.5h88q29 -79 42.5 -159t13.5 -146zM377 627h-61l107 115h109z" />
    <glyph glyph-name="afii10023" unicode="&#x401;" horiz-adv-x="582" 
d="M85 0v742h425v-72h-336v-242h282v-72h-282v-283h349v-73h-438zM160 794v90h94v-90h-94zM337 794v90h94v-90h-94z" />
    <glyph glyph-name="afii10051" unicode="&#x402;" horiz-adv-x="736" 
d="M657 -27q0 -80 -39.5 -128.5t-124.5 -48.5q-31 0 -62.5 7t-57.5 21l27 67q23 -11 45.5 -15t42.5 -4q39 0 59.5 24.5t20.5 84.5v321q0 53 -27 82t-86 29q-40 0 -87.5 -17.5t-88.5 -46.5v-349h-89v667h-174v75h443v-75h-180v-246q18 13 41.5 26t49.5 23.5t52.5 16.5t52.5 6
q85 0 133.5 -45t48.5 -122v-353v0z" />
    <glyph glyph-name="afii10052" unicode="&#x403;" horiz-adv-x="539" 
d="M174 667v-667h-89v742h426v-75h-337zM263 794l-26 37l174 128l41 -59z" />
    <glyph glyph-name="afii10053" unicode="&#x404;" horiz-adv-x="647" 
d="M613 121q-45 -68 -106.5 -102t-136.5 -34t-134 28t-99 78.5t-61 120.5t-21 154q0 88 22.5 160t63.5 123t99 79t129 28q80 0 135 -32.5t97 -90.5l-65 -48q-32 45 -73 69.5t-95 24.5q-44 0 -81.5 -17t-66.5 -49t-47 -78.5t-21 -106.5h304v-72h-307q0 -69 17 -123.5
t46.5 -92.5t70 -58t87.5 -20q60 0 102.5 30t77.5 81l63 -52v0z" />
    <glyph glyph-name="afii10054" unicode="&#x405;" horiz-adv-x="556" 
d="M509 202q0 -55 -20 -95.5t-53 -67.5t-76 -40.5t-90 -13.5q-71 0 -134 29.5t-107 78.5l55 59q39 -44 88 -68.5t97 -24.5q26 0 52.5 8t47.5 24.5t34.5 41t13.5 57.5q0 29 -9.5 51t-27 39t-42.5 30.5t-56 27.5l-71 31q-34 15 -64 31.5t-52 38.5t-34.5 51t-12.5 69
q0 48 17.5 85t48.5 61.5t72.5 37.5t89.5 13q69 0 125 -27t96 -75l-54 -57q-32 37 -76 61t-91 24q-27 0 -51.5 -7.5t-43.5 -22t-30 -36t-11 -50.5q0 -45 31 -70.5t86 -48.5l71 -30q39 -17 72 -35.5t57 -43.5t38 -58t14 -78z" />
    <glyph glyph-name="afii10055" unicode="&#x406;" horiz-adv-x="270" 
d="M90 0v742h90v-742h-90z" />
    <glyph glyph-name="afii10056" unicode="&#x407;" horiz-adv-x="270" 
d="M90 0v742h90v-742h-90zM0 794v90h93v-90h-93zM176 794v90h94v-90h-94z" />
    <glyph glyph-name="afii10057" unicode="&#x408;" horiz-adv-x="510" 
d="M431 181q0 -52 -17 -89t-45.5 -61t-65.5 -35t-76 -11q-143 0 -209 115l66 45q24 -40 55.5 -61t80.5 -21q20 0 41.5 6.5t39.5 21t29.5 38.5t11.5 59v554h90z" />
    <glyph glyph-name="afii10058" unicode="&#x409;" horiz-adv-x="1004" 
d="M862 214q0 28 -8 54t-25 45.5t-42.5 31t-61.5 11.5h-218l90 -282h108q41 0 70.5 11t49 30.5t28.5 44.5t9 54zM954 212q0 -41 -13.5 -79.5t-42 -68t-74 -47t-109.5 -17.5h-94h-61h-33l-210 667h-16l-205 -667h-90l233 742h144l100 -312h253q51 0 91.5 -16.5t68.5 -45.5
t43 -69t15 -87z" />
    <glyph glyph-name="afii10059" unicode="&#x40a;" horiz-adv-x="976" 
d="M834 214q0 28 -8 54t-25 45.5t-42.5 31t-61.5 11.5h-164v-282h144q41 0 70.5 11t49 30.5t28.5 44.5t9 54zM926 212q0 -41 -13.5 -79.5t-42 -68t-74 -47t-109.5 -17.5h-243v355h-270v-355h-89v742h89v-312h270v312h89v-312h175q51 0 91.5 -16.5t68.5 -45.5t43 -69t15 -87z
" />
    <glyph glyph-name="afii10060" unicode="&#x40b;" horiz-adv-x="736" 
d="M568 0v302q0 53 -27 82t-86 29q-40 0 -87.5 -17.5t-88.5 -46.5v-349h-89v667h-174v75h443v-75h-180v-246q18 13 41.5 26t49.5 23.5t52.5 16.5t52.5 6q85 0 133.5 -45t48.5 -122v-326h-89z" />
    <glyph glyph-name="afii10061" unicode="&#x40c;" horiz-adv-x="616" 
d="M504 0l-249 369l-81 -91v-278h-89v742h89v-346l299 346h107l-265 -308l296 -434h-107zM277 794l-26 37l174 128l41 -59z" />
    <glyph glyph-name="afii10062" unicode="&#x40e;" horiz-adv-x="646" 
d="M343 140q-22 -48 -44 -77.5t-48.5 -45.5t-61 -21.5t-81.5 -5.5h-26v75h24q31 0 54 4t41 14t32 27.5t26 44.5l17 38l-250 549h94l204 -450l205 450h92zM466 895q-14 -55 -50 -84.5t-92 -29.5t-92.5 29.5t-49.5 84.5l44 12q14 -31 40 -47t58 -16t58 16t40 47l44 -12v0z" />
    <glyph glyph-name="afii10145" unicode="&#x40f;" horiz-adv-x="685" 
d="M384 0v-131h-83v131h-216v742h89v-667h336v667h90v-742h-216z" />
    <glyph glyph-name="afii10017" unicode="&#x410;" horiz-adv-x="627" 
d="M309 635l-122 -359h247zM527 0l-71 204h-291l-69 -204h-90l258 742h94l263 -742h-94z" />
    <glyph glyph-name="afii10018" unicode="&#x411;" horiz-adv-x="618" 
d="M476 214q0 28 -8 54t-25 45.5t-42.5 31t-61.5 11.5h-165v-282h145q41 0 70.5 11t49 30.5t28.5 44.5t9 54zM568 212q0 -41 -13.5 -79.5t-42 -68t-74 -47t-109.5 -17.5h-244v742h413v-72h-324v-240h176q51 0 91.5 -16.5t68.5 -45.5t43 -69t15 -87z" />
    <glyph glyph-name="afii10019" unicode="&#x412;" horiz-adv-x="634" 
d="M493 217q0 66 -37.5 99t-122.5 33h-160v-275h167q78 0 115.5 37t37.5 106zM474 554q0 52 -36.5 84t-117.5 32h-147v-248h159q35 0 61.5 11t44.5 29t27 42t9 50zM585 214q0 -99 -57.5 -156.5t-184.5 -57.5h-258v742h245q62 0 106.5 -13t72.5 -37t41 -57.5t13 -73.5
q0 -53 -23.5 -98.5t-80.5 -71.5q60 -17 93 -64t33 -113z" />
    <glyph glyph-name="afii10020" unicode="&#x413;" horiz-adv-x="539" 
d="M174 667v-667h-89v742h426v-75h-337z" />
    <glyph glyph-name="afii10021" unicode="&#x414;" horiz-adv-x="718" 
d="M363 667h-16l-182 -592h384zM610 -131v131h-502v-131h-83v206h51l211 667h140l216 -667h50v-206h-83z" />
    <glyph glyph-name="afii10022" unicode="&#x415;" horiz-adv-x="582" 
d="M85 0v742h425v-72h-336v-242h282v-72h-282v-283h349v-73h-438z" />
    <glyph glyph-name="afii10024" unicode="&#x416;" horiz-adv-x="888" 
d="M776 0l-258 335l-30 -9v-326h-89v326l-30 9l-257 -335h-107l300 389l-256 353h97l232 -322l21 -6v328h89v-328l20 6l234 322h97l-258 -353l302 -389h-107z" />
    <glyph glyph-name="afii10025" unicode="&#x417;" horiz-adv-x="598" 
d="M549 214q0 -50 -18 -91.5t-52.5 -72.5t-85 -48t-116.5 -17q-69 0 -129 26.5t-114 86.5l56 51q18 -19 40.5 -35.5t46.5 -29t49 -20t48 -7.5q42 0 76 12t58 33.5t36.5 50.5t12.5 64q0 66 -43.5 99t-136.5 33h-73v75h72q40 0 70.5 10.5t50.5 28.5t30.5 41.5t10.5 49.5
t-11 49.5t-32 41.5t-51 28.5t-67 10.5q-49 0 -96 -22t-82 -56l-54 50q51 54 111.5 77t123.5 23q62 0 108.5 -15.5t77 -41.5t46 -62t15.5 -76q0 -53 -29 -100.5t-88 -69.5q30 -6 55.5 -22.5t44 -40t29 -52.5t10.5 -62z" />
    <glyph glyph-name="afii10026" unicode="&#x418;" horiz-adv-x="686" 
d="M517 0v591l-345 -591h-87v742h85v-591l345 591h86v-742h-84z" />
    <glyph glyph-name="afii10027" unicode="&#x419;" horiz-adv-x="686" 
d="M517 0v591l-345 -591h-87v742h85v-591l345 591h86v-742h-84zM495 895q-14 -55 -50 -84.5t-92 -29.5t-92.5 29.5t-49.5 84.5l44 12q14 -31 40 -47t58 -16t58 16t40 47l44 -12v0z" />
    <glyph glyph-name="afii10028" unicode="&#x41a;" horiz-adv-x="616" 
d="M504 0l-249 369l-81 -91v-278h-89v742h89v-346l299 346h107l-265 -308l296 -434h-107z" />
    <glyph glyph-name="afii10029" unicode="&#x41b;" horiz-adv-x="627" 
d="M527 0l-210 667h-16l-205 -667h-90l235 742h140l240 -742h-94z" />
    <glyph glyph-name="afii10030" unicode="&#x41c;" horiz-adv-x="797" 
d="M627 0v562l-202 -461h-60l-195 458v-559h-85v742h93l220 -519l226 519h88v-742h-85z" />
    <glyph glyph-name="afii10031" unicode="&#x41d;" horiz-adv-x="685" 
d="M510 0v355h-336v-355h-89v742h89v-312h336v312h90v-742h-90z" />
    <glyph glyph-name="afii10032" unicode="&#x41e;" horiz-adv-x="718" 
d="M569 366q0 73 -15 131t-42.5 98.5t-66.5 62t-87 21.5t-86.5 -21.5t-65.5 -61t-42 -97t-15 -129.5q0 -71 15 -128t42.5 -97t66 -61.5t85.5 -21.5q48 0 87 21.5t66.5 61.5t42.5 96t15 125zM663 369q0 -86 -21.5 -156.5t-61.5 -121t-96 -78.5t-125 -28t-125.5 28t-96 78
t-61 120.5t-21.5 154.5q0 89 21 161t60.5 123t96 78.5t126.5 27.5t126 -27.5t95.5 -78.5t61 -122.5t21.5 -158.5z" />
    <glyph glyph-name="afii10033" unicode="&#x41f;" horiz-adv-x="685" 
d="M510 0v667h-336v-667h-89v742h515v-742h-90z" />
    <glyph glyph-name="afii10034" unicode="&#x420;" horiz-adv-x="617" 
d="M476 524q0 28 -9 54.5t-28.5 46t-49 31.5t-70.5 12h-145v-291h165q36 0 61.5 12.5t42.5 32.5t25 46.5t8 55.5zM568 526q0 -47 -15 -87.5t-43 -70t-68.5 -46.5t-91.5 -17h-176v-305h-89v742h244q64 0 109.5 -18.5t74 -48.5t42 -69t13.5 -80z" />
    <glyph glyph-name="afii10035" unicode="&#x421;" horiz-adv-x="647" 
d="M613 121q-45 -68 -106.5 -102t-136.5 -34t-134 28t-99 78.5t-61 120.5t-21 154q0 88 22.5 160t63.5 123t99 79t129 28q80 0 135 -32.5t97 -90.5l-65 -48q-32 45 -73 69.5t-95 24.5q-49 0 -89 -21.5t-69 -61t-45 -97t-16 -129.5t16.5 -129t45.5 -96.5t70 -61t89 -21.5
q60 0 102.5 30t77.5 81l63 -52v0z" />
    <glyph glyph-name="afii10036" unicode="&#x422;" horiz-adv-x="549" 
d="M319 667v-667h-89v667h-214v75h517v-75h-214z" />
    <glyph glyph-name="afii10037" unicode="&#x423;" horiz-adv-x="646" 
d="M343 140q-22 -48 -44 -77.5t-48.5 -45.5t-61 -21.5t-81.5 -5.5h-26v75h24q31 0 54 4t41 14t32 27.5t26 44.5l17 38l-250 549h94l204 -450l205 450h92z" />
    <glyph glyph-name="afii10038" unicode="&#x424;" horiz-adv-x="753" 
d="M332 582q-47 -5 -82 -22.5t-58.5 -45.5t-35.5 -64.5t-12 -78.5t12 -78t35.5 -64t58.5 -46t82 -22v421zM609 371q0 42 -12 78.5t-35.5 64.5t-58.5 45.5t-82 22.5v-421q47 4 82 22t58.5 46t35.5 64t12 78zM701 371q0 -60 -19.5 -110t-55.5 -87t-88 -59.5t-117 -27.5v-87
h-89v87q-66 5 -118 28t-88 60t-55 86.5t-19 109.5t19 110t55 87t88 60t118 28v86h89v-86q66 -5 118 -28t88 -60t55 -87t19 -110z" />
    <glyph glyph-name="afii10039" unicode="&#x425;" horiz-adv-x="619" 
d="M491 0l-183 310l-184 -310h-101l234 383l-219 359h105l166 -283l167 283h101l-217 -356l236 -386h-105z" />
    <glyph glyph-name="afii10040" unicode="&#x426;" horiz-adv-x="685" 
d="M560 -131v131h-475v742h89v-667h336v667h90v-667h43v-206h-83z" />
    <glyph glyph-name="afii10041" unicode="&#x427;" horiz-adv-x="630" 
d="M456 0v371q-18 -14 -41.5 -26.5t-49.5 -23t-53 -16.5t-52 -6q-85 0 -133.5 45t-48.5 122v276h89v-252q0 -53 27 -82t86 -29q40 0 87.5 17.5t88.5 46.5v299h89v-742h-89z" />
    <glyph glyph-name="afii10042" unicode="&#x428;" horiz-adv-x="903" 
d="M85 0v742h89v-667h233v667h89v-667h233v667h89v-742h-733z" />
    <glyph glyph-name="afii10043" unicode="&#x429;" horiz-adv-x="903" 
d="M778 -131v131h-693v742h89v-667h233v667h89v-667h233v667h89v-667h43v-206h-83z" />
    <glyph glyph-name="afii10044" unicode="&#x42a;" horiz-adv-x="680" 
d="M538 214q0 28 -8 54t-25 45.5t-42.5 31t-61.5 11.5h-165v-282h145q41 0 70.5 11t49 30.5t28.5 44.5t9 54zM630 212q0 -41 -13.5 -79.5t-42 -68t-74 -47t-109.5 -17.5h-244v670h-131v72h220v-312h176q51 0 91.5 -16.5t68.5 -45.5t43 -69t15 -87z" />
    <glyph glyph-name="afii10045" unicode="&#x42b;" horiz-adv-x="832" 
d="M476 214q0 28 -8 54t-25 45.5t-42.5 31t-61.5 11.5h-165v-282h145q41 0 70.5 11t49 30.5t28.5 44.5t9 54zM568 212q0 -41 -13.5 -79.5t-42 -68t-74 -47t-109.5 -17.5h-244v742h89v-312h176q51 0 91.5 -16.5t68.5 -45.5t43 -69t15 -87zM657 0v742h90v-742h-90z" />
    <glyph glyph-name="afii10046" unicode="&#x42c;" horiz-adv-x="618" 
d="M476 214q0 28 -8 54t-25 45.5t-42.5 31t-61.5 11.5h-165v-282h145q41 0 70.5 11t49 30.5t28.5 44.5t9 54zM568 212q0 -41 -13.5 -79.5t-42 -68t-74 -47t-109.5 -17.5h-244v742h89v-312h176q51 0 91.5 -16.5t68.5 -45.5t43 -69t15 -87z" />
    <glyph glyph-name="afii10047" unicode="&#x42d;" horiz-adv-x="647" 
d="M592 366q0 -84 -21 -154t-61 -120.5t-99 -78.5t-134 -28t-136.5 34t-106.5 102l63 52q35 -51 77.5 -81t102.5 -30q47 0 87.5 20t70 58t46.5 92.5t17 123.5h-307v72h304q-3 60 -21 106.5t-47 78.5t-67 49t-81 17q-54 0 -95 -24.5t-73 -69.5l-65 48q42 58 97 90.5t135 32.5
q71 0 129 -28t99 -79t63.5 -123t22.5 -160z" />
    <glyph glyph-name="afii10048" unicode="&#x42e;" horiz-adv-x="944" 
d="M795 366q0 73 -15 131t-42.5 98.5t-66.5 62t-87 21.5t-86.5 -21.5t-65.5 -61t-42 -97t-15 -129.5q0 -71 15 -128t42.5 -97t66 -61.5t85.5 -21.5q48 0 87 21.5t66.5 61.5t42.5 96t15 125zM889 369q0 -86 -21.5 -156.5t-61.5 -121t-96 -78.5t-125 -28q-68 0 -123.5 27
t-95 76t-62 117t-23.5 150h-107v-355h-89v742h89v-312h110q7 75 31 135.5t63 102.5t91.5 65t115.5 23q70 0 126 -27.5t95.5 -78.5t61 -122.5t21.5 -158.5z" />
    <glyph glyph-name="afii10049" unicode="&#x42f;" horiz-adv-x="645" 
d="M471 668h-149q-82 0 -120 -36t-38 -90q0 -25 7.5 -49t24 -43t42 -30.5t61.5 -11.5h172v260zM471 0v336h-174l-147 -336h-102l162 348q-66 20 -102 72t-36 126q0 42 14 78t43.5 62t75 41t108.5 15h247v-742h-89z" />
    <glyph glyph-name="afii10065" unicode="&#x430;" horiz-adv-x="544" 
d="M389 289l-47 -6q-62 -8 -102.5 -19t-64.5 -27t-34 -38t-10 -50q0 -39 27.5 -65.5t75.5 -26.5q42 0 77.5 17.5t77.5 52.5v162zM392 0v64q-45 -39 -89 -57t-92 -18q-40 0 -71.5 12.5t-53 34t-32.5 50.5t-11 61q0 50 18.5 83.5t54 55.5t87 34.5t118.5 20.5l68 8v31
q0 33 -11 55.5t-28.5 36.5t-39.5 20t-44 6q-48 0 -86.5 -19t-77.5 -55l-46 55q94 87 214 87q46 0 83.5 -12t64.5 -35.5t42 -58t15 -79.5v-381h-83z" />
    <glyph glyph-name="afii10066" unicode="&#x431;" 
d="M462 277q0 49 -11.5 89t-32.5 68.5t-51 44.5t-67 16t-67 -16t-51 -44.5t-32.5 -68.5t-11.5 -89t11.5 -89t32.5 -68.5t51 -44t67 -15.5t67 15.5t51 44t32.5 68.5t11.5 89zM551 277q0 -66 -18 -119.5t-51 -91t-79.5 -57.5t-102.5 -20t-102.5 20t-79.5 60.5t-51 102
t-18 145.5q0 72 13 140.5t44 124t83.5 92.5t130.5 47q42 5 75.5 14.5t57.5 32.5l53 -48q-17 -20 -34.5 -32t-36.5 -18.5t-40.5 -10t-45.5 -7.5q-38 -6 -68.5 -16.5t-54.5 -28.5t-42 -46t-32 -68q40 44 84 58.5t82 14.5q53 0 96 -20.5t73.5 -58.5t47 -91t16.5 -119z" />
    <glyph glyph-name="afii10067" unicode="&#x432;" horiz-adv-x="514" 
d="M381 166q0 42 -25.5 65.5t-85.5 23.5h-110v-188h115q54 0 80 27t26 72zM367 409q0 36 -24.5 57.5t-82.5 21.5h-100v-167h109q49 0 73.5 25t24.5 63zM469 164q0 -76 -46 -120t-145 -44h-203v555h193q96 0 140 -38t44 -102q0 -35 -18 -69.5t-58 -52.5q44 -12 68.5 -48
t24.5 -81z" />
    <glyph glyph-name="afii10068" unicode="&#x433;" horiz-adv-x="424" 
d="M161 487v-487h-86v555h338v-68h-252z" />
    <glyph glyph-name="afii10069" unicode="&#x434;" horiz-adv-x="589" 
d="M297 477h-10l-126 -406h264zM474 -93v93h-359v-93h-80v164h41l154 484h126l158 -484h40v-164h-80z" />
    <glyph glyph-name="afii10070" unicode="&#x435;" horiz-adv-x="577" 
d="M440 328q-7 77 -46.5 123.5t-103.5 46.5q-62 0 -102.5 -47.5t-48.5 -122.5h301v0zM136 266q1 -51 15 -89.5t37 -64.5t52 -39t61 -13q42 0 83 18.5t81 69.5l57 -52q-47 -58 -102 -82.5t-124 -24.5q-51 0 -96 18.5t-78.5 55.5t-53 91t-19.5 125q0 68 18 121.5t50.5 90
t76 56t94.5 19.5q67 0 113.5 -27.5t74.5 -70.5t40.5 -96.5t12.5 -105.5h-393z" />
    <glyph glyph-name="afii10072" unicode="&#x436;" horiz-adv-x="735" 
d="M620 0l-190 253h-20v-253h-85v253h-20l-190 -253h-100l223 291l-189 264h93l165 -239h18v239h85v-239h18l165 239h93l-189 -264l223 -291h-100z" />
    <glyph glyph-name="afii10073" unicode="&#x437;" horiz-adv-x="488" 
d="M434 161q0 -38 -14.5 -70t-41.5 -54.5t-65.5 -35t-86.5 -12.5q-54 0 -105.5 20t-96.5 68l52 53q37 -39 73.5 -54.5t68.5 -15.5q60 0 93.5 28.5t33.5 73.5q0 38 -27 65t-87 27h-95v69h84q57 0 84.5 26.5t27.5 59.5q0 36 -29 62.5t-82 26.5q-34 0 -70 -15t-67 -47l-48 51
q45 46 91.5 62.5t95.5 16.5q48 0 84.5 -12t61 -32t37 -48t12.5 -59q0 -18 -5.5 -36t-16 -34.5t-25.5 -30t-34 -21.5q20 -6 38 -18.5t31 -29.5t20.5 -38.5t7.5 -45.5z" />
    <glyph glyph-name="afii10074" unicode="&#x438;" horiz-adv-x="582" 
d="M422 0v415l-264 -415h-83v555h85v-415l264 415h83v-555h-85z" />
    <glyph glyph-name="afii10075" unicode="&#x439;" horiz-adv-x="582" 
d="M422 0v415l-264 -415h-83v555h85v-415l264 415h83v-555h-85zM436 747q-14 -55 -50 -84.5t-92 -29.5t-92.5 29.5t-49.5 84.5l44 12q14 -31 40 -47t58 -16t58 16t40 47l44 -12v0z" />
    <glyph glyph-name="afii10076" unicode="&#x43a;" horiz-adv-x="511" 
d="M392 0l-182 260l-50 -53v-207h-85v555h85v-238l209 238h107l-207 -232l227 -323h-104z" />
    <glyph glyph-name="afii10077" unicode="&#x43b;" horiz-adv-x="529" 
d="M416 0l-152 477h-6l-149 -477h-87l177 555h127l181 -555h-91z" />
    <glyph glyph-name="afii10078" unicode="&#x43c;" horiz-adv-x="639" 
d="M483 0v376l-135 -303h-57l-135 306v-379h-81v555h81l166 -377l165 377h77v-555h-81z" />
    <glyph glyph-name="afii10079" unicode="&#x43d;" horiz-adv-x="582" 
d="M422 0v259h-262v-259h-85v555h85v-228h262v228h85v-555h-85z" />
    <glyph glyph-name="afii10080" unicode="&#x43e;" 
d="M462 277q0 49 -11.5 89t-32.5 68.5t-51 44.5t-67 16t-67 -16t-51 -44.5t-32.5 -68.5t-11.5 -89t11.5 -89t32.5 -68.5t51 -44t67 -15.5t67 15.5t51 44t32.5 68.5t11.5 89zM551 277q0 -66 -18 -119.5t-51 -91t-79.5 -57.5t-102.5 -20t-102.5 20t-79.5 57.5t-51 91
t-18 119.5t18 119t51 91t79.5 58.5t102.5 20.5t102.5 -20.5t79.5 -58.5t51 -91t18 -119z" />
    <glyph glyph-name="afii10081" unicode="&#x43f;" horiz-adv-x="572" 
d="M412 0v487h-252v-487h-85v555h422v-555h-85z" />
    <glyph glyph-name="afii10082" unicode="&#x440;" 
d="M462 279q0 47 -10.5 87t-31 68.5t-49 44.5t-64.5 16q-44 0 -78.5 -19t-68.5 -52v-294q32 -30 67 -50t79 -20q36 0 65 15.5t49 44.5t31 69t11 90zM551 277q0 -67 -17.5 -120t-48.5 -90.5t-73 -57.5t-90 -20q-54 0 -93.5 19t-68.5 52v-262h-85v757h82v-63q38 40 77.5 57
t87.5 17q49 0 91 -20.5t73 -58.5t48 -91.5t17 -118.5z" />
    <glyph glyph-name="afii10083" unicode="&#x441;" horiz-adv-x="549" 
d="M520 113q-18 -25 -40 -47.5t-49 -39.5t-59.5 -27t-72.5 -10q-54 0 -99.5 20t-79 57t-52.5 90.5t-19 120.5q0 66 18.5 119t51.5 91t79 58.5t102 20.5q70 0 122.5 -30.5t88.5 -87.5l-62 -43q-26 40 -61 65t-88 25q-34 0 -63.5 -14t-51.5 -42t-34.5 -69.5t-12.5 -95.5
q0 -48 12 -87.5t34 -67.5t52 -43.5t66 -15.5q27 0 50 8.5t42.5 22.5t36 32t31.5 38l58 -48v0z" />
    <glyph glyph-name="afii10084" unicode="&#x442;" horiz-adv-x="429" 
d="M258 487v-487h-87v487h-160v68h407v-68h-160z" />
    <glyph glyph-name="afii10085" unicode="&#x443;" horiz-adv-x="531" 
d="M284 -70q-13 -36 -27.5 -61t-35.5 -40.5t-50 -23t-69 -7.5q-17 0 -36 3t-33 7v72q12 -3 33.5 -6.5t37.5 -3.5q41 0 64 20.5t41 68.5l26 69l-213 527h90l166 -421l144 421h87z" />
    <glyph glyph-name="afii10086" unicode="&#x444;" horiz-adv-x="668" 
d="M292 484q-43 -9 -72.5 -30.5t-47.5 -50t-26 -61.5t-8 -65t8 -64.5t26 -61t47.5 -50t72.5 -30.5v413zM530 277q0 32 -8 65t-26 61.5t-47.5 50t-72.5 30.5v-413q43 9 72.5 30.5t47.5 50t26 61t8 64.5zM619 278q0 -50 -15 -96.5t-45.5 -84t-76 -63.5t-106.5 -34v-202h-84
v202q-61 8 -106.5 34t-76 63.5t-45.5 84t-15 96.5q0 49 15 96t45.5 84.5t76 63t106.5 33.5v201h84v-201q61 -8 106.5 -33.5t76 -63t45.5 -84.5t15 -96z" />
    <glyph glyph-name="afii10087" unicode="&#x445;" horiz-adv-x="545" 
d="M420 0l-150 221l-149 -221h-97l197 285l-188 270h101l137 -204l138 204h97l-186 -268l201 -287h-101z" />
    <glyph glyph-name="afii10088" unicode="&#x446;" horiz-adv-x="572" 
d="M457 -93v93h-382v555h85v-487h252v487h85v-484h40v-164h-80z" />
    <glyph glyph-name="afii10089" unicode="&#x447;" horiz-adv-x="512" 
d="M352 0v252q-29 -19 -65.5 -32.5t-71.5 -13.5q-67 0 -106 35.5t-39 95.5v218h85v-204q0 -35 18 -53.5t57 -18.5q27 0 60 11t62 31v234h85v-555h-85z" />
    <glyph glyph-name="afii10090" unicode="&#x448;" horiz-adv-x="789" 
d="M75 0v555h85v-487h192v487h85v-487h192v487h85v-555h-639z" />
    <glyph glyph-name="afii10091" unicode="&#x449;" horiz-adv-x="789" 
d="M674 -93v93h-599v555h85v-487h192v487h85v-487h192v487h85v-484h40v-164h-80z" />
    <glyph glyph-name="afii10092" unicode="&#x44a;" horiz-adv-x="529" 
d="M400 162q0 42 -22.5 69.5t-70.5 27.5h-113v-191h98q57 0 82.5 26t25.5 68zM489 161q0 -32 -10 -61t-32 -51t-58.5 -35.5t-88.5 -13.5h-191v489h-98v66h183v-228h122q86 0 129.5 -47t43.5 -119z" />
    <glyph glyph-name="afii10093" unicode="&#x44b;" horiz-adv-x="698" 
d="M366 162q0 42 -22.5 69.5t-70.5 27.5h-113v-191h98q57 0 82.5 26t25.5 68zM455 161q0 -32 -10 -61t-32 -51t-58.5 -35.5t-88.5 -13.5h-191v555h85v-228h122q86 0 129.5 -47t43.5 -119zM538 0v555h85v-555h-85z" />
    <glyph glyph-name="afii10094" unicode="&#x44c;" horiz-adv-x="495" 
d="M366 162q0 42 -22.5 69.5t-70.5 27.5h-113v-191h98q57 0 82.5 26t25.5 68zM455 161q0 -32 -10 -61t-32 -51t-58.5 -35.5t-88.5 -13.5h-191v555h85v-228h122q86 0 129.5 -47t43.5 -119z" />
    <glyph glyph-name="afii10095" unicode="&#x44d;" horiz-adv-x="525" 
d="M476 277q0 -67 -19.5 -120.5t-53 -90.5t-79.5 -57t-100 -20q-36 0 -63.5 5t-50.5 15.5t-42 26t-38 35.5l49 52q30 -29 63 -46t79 -17q33 0 62 13t51 37t36 58t16 76h-269v70h268q-3 43 -17.5 76.5t-36.5 57t-50 35.5t-58 12q-41 0 -71.5 -13t-60.5 -39l-50 52
q21 21 41 34.5t41.5 21.5t45.5 11.5t54 3.5q55 0 101.5 -20.5t80.5 -58.5t52.5 -91t18.5 -119z" />
    <glyph glyph-name="afii10096" unicode="&#x44e;" horiz-adv-x="804" 
d="M666 277q0 49 -11.5 89t-32.5 68.5t-51 44.5t-67 16t-67 -16t-51 -44.5t-32.5 -68.5t-11.5 -89t11.5 -89t32.5 -68.5t51 -44t67 -15.5t67 15.5t51 44t32.5 68.5t11.5 89zM755 277q0 -66 -18 -119.5t-51 -91t-79.5 -57.5t-102.5 -20q-54 0 -99 19t-78 54t-52 85t-22 112
h-93v-259h-85v555h85v-228h96q7 55 27.5 99.5t52.5 75.5t74.5 47.5t93.5 16.5q56 0 102.5 -20.5t79.5 -58.5t51 -91t18 -119z" />
    <glyph glyph-name="afii10097" unicode="&#x44f;" horiz-adv-x="508" 
d="M348 487h-103q-58 0 -83 -25.5t-25 -60.5q0 -17 5 -33t15.5 -29t28 -21t41.5 -8h121v177zM348 0v242h-114l-110 -242h-100l123 255q-48 17 -73.5 56t-25.5 92q0 33 11.5 60.5t35 48t59.5 32t84 11.5h195v-555h-85z" />
    <glyph glyph-name="afii10071" unicode="&#x451;" horiz-adv-x="577" 
d="M440 328q-7 77 -46.5 123.5t-103.5 46.5q-62 0 -102.5 -47.5t-48.5 -122.5h301v0zM136 266q1 -51 15 -89.5t37 -64.5t52 -39t61 -13q42 0 83.5 18.5t80.5 69.5l57 -52q-47 -58 -102 -82.5t-124 -24.5q-51 0 -96 18.5t-78.5 55.5t-53 91t-19.5 125q0 68 18 121.5t50.5 90
t76 56t94.5 19.5q67 0 113.5 -27.5t74.5 -70.5t40.5 -96.5t12.5 -105.5h-393zM154 646v90h94v-90h-94zM331 646v90h94v-90h-94z" />
    <glyph glyph-name="afii10099" unicode="&#x452;" horiz-adv-x="577" 
d="M507 -27q0 -79 -38.5 -127t-123.5 -48q-31 0 -61.5 8t-55.5 22l27 60q22 -10 43.5 -15.5t41.5 -5.5q40 0 61 27t21 87v345q0 54 -23 83.5t-79 29.5q-39 0 -81 -19t-79 -48v-372h-85v608h-75v68h75v80h85v-80h200v-68h-200v-165q36 29 81 51t99 22q80 0 123.5 -44.5
t43.5 -121.5v-377v0z" />
    <glyph glyph-name="afii10100" unicode="&#x453;" horiz-adv-x="424" 
d="M161 487v-487h-86v555h338v-68h-252zM201 619l-25 37l173 128l42 -59z" />
    <glyph glyph-name="afii10101" unicode="&#x454;" horiz-adv-x="525" 
d="M495 71q-19 -20 -38 -35.5t-42 -26t-50.5 -15.5t-63.5 -5q-54 0 -100 20t-79.5 57t-53 90.5t-19.5 120.5q0 66 18.5 119t52.5 91t80 58.5t102 20.5q30 0 54 -3.5t45.5 -11.5t41.5 -21.5t41 -34.5l-50 -52q-30 26 -60.5 39t-71.5 13q-30 0 -58 -12t-50 -35.5t-36.5 -57
t-17.5 -76.5h268v-70h-269q2 -42 16 -76t36 -58t51 -37t62 -13q46 0 79 17t63 46l49 -52v0z" />
    <glyph glyph-name="afii10102" unicode="&#x455;" horiz-adv-x="482" 
d="M439 159q0 -42 -17 -74t-45.5 -53t-66 -32t-77.5 -11q-59 0 -111.5 22t-92.5 65l48 51q35 -34 76 -52t79 -18q23 0 44.5 6.5t38.5 18.5t27.5 29t10.5 38q0 39 -30.5 59t-78.5 37l-61 22q-30 11 -54.5 23.5t-42 29.5t-27 39.5t-9.5 52.5q0 33 13 61t38 49t61.5 32.5
t84.5 11.5q54 0 100.5 -19t84.5 -60l-48 -51q-34 35 -69.5 48.5t-68.5 13.5q-22 0 -42 -5t-35 -14.5t-24 -24t-9 -32.5q0 -30 25 -48t66 -33l60 -22q32 -12 59.5 -25t48 -31t32.5 -43t12 -61z" />
    <glyph glyph-name="afii10103" unicode="&#x456;" horiz-adv-x="240" 
d="M78 0v555h85v-555h-85zM75 673v83h90v-83h-90z" />
    <glyph glyph-name="afii10104" unicode="&#x457;" horiz-adv-x="240" 
d="M78 0v555h85v-555h-85zM-15 646v90h94v-90h-94zM162 646v90h93v-90h-93z" />
    <glyph glyph-name="afii10105" unicode="&#x458;" horiz-adv-x="244" 
d="M166 -27q0 -79 -38.5 -127t-123.5 -48q-31 0 -61.5 8t-55.5 22l27 60q22 -10 43.5 -15.5t41.5 -5.5q40 0 61 27t21 87v574h85v-582v0zM79 673v83h90v-83h-90z" />
    <glyph glyph-name="afii10106" unicode="&#x459;" horiz-adv-x="796" 
d="M667 162q0 42 -22.5 69.5t-70.5 27.5h-151l62 -191h74q57 0 82.5 26t25.5 68zM756 161q0 -32 -10 -61t-32 -51t-58.5 -35.5t-88.5 -13.5h-60h-48h-43l-151 477h-6l-150 -477h-87l177 555h127l74 -228h183q86 0 129.5 -47t43.5 -119z" />
    <glyph glyph-name="afii10107" unicode="&#x45a;" horiz-adv-x="787" 
d="M658 162q0 42 -22.5 69.5t-70.5 27.5h-113v-191h98q57 0 82.5 26t25.5 68zM747 161q0 -32 -10 -61t-32 -51t-58.5 -35.5t-88.5 -13.5h-191v259h-207v-259h-85v555h85v-228h207v228h85v-228h122q86 0 129.5 -47t43.5 -119z" />
    <glyph glyph-name="afii10108" unicode="&#x45b;" horiz-adv-x="577" 
d="M422 0v326q0 54 -23 83.5t-79 29.5q-39 0 -81 -19t-79 -48v-372h-85v608h-75v68h75v80h85v-80h200v-68h-200v-165q36 29 81 51t99 22q80 0 123.5 -44.5t43.5 -121.5v-350h-85z" />
    <glyph glyph-name="afii10109" unicode="&#x45c;" horiz-adv-x="511" 
d="M392 0l-182 260l-50 -53v-207h-85v555h85v-238l209 238h107l-207 -232l227 -323h-104zM224 619l-25 37l173 128l42 -59z" />
    <glyph glyph-name="afii10110" unicode="&#x45e;" horiz-adv-x="531" 
d="M284 -70q-13 -36 -27.5 -61t-35.5 -40.5t-50 -23t-69 -7.5q-17 0 -36 3t-33 7v72q12 -3 33.5 -6.5t37.5 -3.5q41 0 64 20.5t41 68.5l26 69l-213 527h90l166 -421l144 421h87zM409 747q-14 -55 -50 -84.5t-92 -29.5t-92.5 29.5t-49.5 84.5l44 12q14 -31 40 -47t58 -16
t58 16t40 47l44 -12v0z" />
    <glyph glyph-name="afii10193" unicode="&#x45f;" horiz-adv-x="572" 
d="M326 0v-93h-80v93h-171v555h85v-487h252v487h85v-555h-171z" />
    <glyph glyph-name="afii10050" unicode="&#x490;" horiz-adv-x="539" 
d="M174 667v-667h-89v742h347v123h79v-198h-337z" />
    <glyph glyph-name="afii10098" unicode="&#x491;" horiz-adv-x="424" 
d="M161 487v-487h-86v555h258v96h80v-164h-252z" />
    <glyph glyph-name="endash" unicode="&#x2013;" horiz-adv-x="500" 
d="M506 245h-512v61h512v-61z" />
    <glyph glyph-name="emdash" unicode="&#x2014;" horiz-adv-x="839" 
d="M845 245h-851v61h851v-61z" />
    <glyph glyph-name="quoteleft" unicode="&#x2018;" horiz-adv-x="216" 
d="M167 756l-62 -129h50v-96h-106v95l78 130h40z" />
    <glyph glyph-name="quoteright" unicode="&#x2019;" horiz-adv-x="216" 
d="M168 660l-79 -129h-39l62 129h-50v96h106v-96z" />
    <glyph glyph-name="quotesinglbase" unicode="&#x201a;" horiz-adv-x="216" 
d="M162 0l-79 -130h-39l62 130h-50v96h106v-96z" />
    <glyph glyph-name="quotedblleft" unicode="&#x201c;" horiz-adv-x="386" 
d="M167 756l-62 -129h50v-96h-106v95l78 130h40zM337 756l-62 -129h50v-96h-106v95l78 130h40z" />
    <glyph glyph-name="quotedblright" unicode="&#x201d;" horiz-adv-x="386" 
d="M168 660l-79 -129h-39l62 129h-50v96h106v-96zM338 660l-79 -129h-39l62 129h-50v96h106v-96z" />
    <glyph glyph-name="quotedblbase" unicode="&#x201e;" horiz-adv-x="386" 
d="M162 0l-79 -130h-39l62 130h-50v96h106v-96zM331 0l-78 -130h-40l62 130h-50v96h106v-96z" />
    <glyph glyph-name="dagger" unicode="&#x2020;" horiz-adv-x="398" 
d="M349 502h-113v-563h-74v563h-113v61h113v179h74v-179h113v-61z" />
    <glyph glyph-name="daggerdbl" unicode="&#x2021;" horiz-adv-x="398" 
d="M349 124h-113v-185h-74v185h-113v61h113v317h-113v61h113v179h74v-179h113v-61h-113v-317h113v-61z" />
    <glyph glyph-name="bullet" unicode="&#x2022;" horiz-adv-x="500" 
d="M376 371q0 -26 -10 -48.5t-26.5 -39t-39.5 -26.5t-48 -10q-26 0 -48.5 10t-39 26.5t-26.5 39t-10 48.5q0 25 10 48t26.5 39.5t39 26.5t48.5 10q25 0 48 -10t39.5 -26.5t26.5 -39.5t10 -48z" />
    <glyph glyph-name="ellipsis" unicode="&#x2026;" horiz-adv-x="639" 
d="M153 0h-94v93h94v-93zM366 0h-94v93h94v-93zM579 0h-94v93h94v-93z" />
    <glyph glyph-name="perthousand" unicode="&#x2030;" horiz-adv-x="1198" 
d="M290 574q0 65 -25.5 95t-61.5 30t-61.5 -30t-25.5 -95t26 -95t61 -30t61 30t26 95zM712 168q0 65 -26 95t-61 30t-60.5 -30t-25.5 -95t25.5 -94.5t60.5 -29.5t61 29.5t26 94.5zM1082 168q0 65 -26 95t-61 30t-60.5 -30t-25.5 -95t25.5 -94.5t60.5 -29.5t61 29.5t26 94.5z
M363 574q0 -42 -11.5 -75.5t-32.5 -57.5t-50.5 -37t-65.5 -13q-72 0 -116 49.5t-44 133.5q0 41 11.5 74.5t32.5 57.5t50.5 37.5t65.5 13.5t65.5 -13t50.5 -37t32.5 -58t11.5 -75zM666 729l-459 -750l-49 27l459 750zM785 168q0 -42 -11.5 -75.5t-32.5 -57t-50.5 -36.5
t-65.5 -13t-65.5 13t-50 36.5t-32 57t-11.5 75.5t11.5 75.5t32 57.5t50 37t65.5 13t65.5 -13t50.5 -37t32.5 -57.5t11.5 -75.5zM1155 168q0 -42 -11.5 -75.5t-32.5 -57t-50.5 -36.5t-65.5 -13t-65.5 13t-50 36.5t-32 57t-11.5 75.5t11.5 75.5t32 57.5t50 37t65.5 13
t65.5 -13t50.5 -37t32.5 -57.5t11.5 -75.5z" />
    <glyph glyph-name="guilsinglleft" unicode="&#x2039;" horiz-adv-x="302" 
d="M272 79l-41 -40l-196 216v47l196 216l41 -40l-156 -200z" />
    <glyph glyph-name="guilsinglright" unicode="&#x203a;" horiz-adv-x="302" 
d="M267 255l-196 -216l-41 40l156 199l-156 200l41 40l196 -216v-47z" />
    <glyph glyph-name="fraction" unicode="&#x2044;" horiz-adv-x="76" 
d="M292 729l-459 -750l-49 27l459 750z" />
    <glyph glyph-name="fraction" unicode="&#x2215;" horiz-adv-x="76" 
d="M292 729l-459 -750l-49 27l459 750z" />
    <glyph glyph-name="Euro" unicode="&#x20ac;" horiz-adv-x="614" 
d="M583 120q-43 -72 -97.5 -103t-123.5 -31q-55 0 -100.5 21t-79.5 58.5t-56.5 90t-32.5 115.5h-55v58h48q0 8 -0.5 16.5t0.5 16.5l2 43h-50v58h55q10 65 32 119t55 92.5t76.5 60t97.5 21.5q63 0 118 -29.5t95 -94.5l-65 -46q-29 46 -63.5 69.5t-83.5 23.5q-33 0 -61 -16
t-50.5 -44.5t-38 -68t-23.5 -87.5h241v-58h-245q-1 -9 -1 -18v-18v-20t1 -20h245v-58h-238q16 -97 65.5 -152.5t116.5 -55.5q46 0 83 23.5t69 80.5z" />
    <glyph glyph-name="afii61352" unicode="&#x2116;" horiz-adv-x="1048" 
d="M935 305q0 54 -24.5 85.5t-63.5 31.5t-63.5 -31.5t-24.5 -85.5t24.5 -85.5t63.5 -31.5t63.5 31.5t24.5 85.5zM514 0l-345 584v-584h-84v742h86l345 -584v584h85v-742h-87zM706 0v57h282v-57h-282zM1006 305q0 -39 -11.5 -71t-32.5 -54.5t-50 -34.5t-65 -12
q-72 0 -115.5 47t-43.5 125t43.5 125t115.5 47t115.5 -47t43.5 -125z" />
    <glyph glyph-name="trademark" unicode="&#x2122;" horiz-adv-x="737" 
d="M295 688h-111v-309h-68v309h-110v55h289v-55zM674 379h-65v234l-88 -186h-38l-84 183v-231h-66v364h65l105 -231l107 231h64v-364z" />
    <glyph glyph-name="partialdiff" unicode="&#x2202;" horiz-adv-x="494" 
d="M366 299q-8 9 -17 20t-22 21t-29.5 16.5t-39.5 6.5q-57 -2 -96 -54q-30 -42 -40 -82.5t-10 -78.5q0 -11 1 -27.5t5.5 -34.5t13.5 -35t26 -28q21 -14 41 -14.5t42 9.5q28 12 47 35t34 58q18 45 28 92t16 96zM65 717q15 6 35.5 13t44.5 11t50 4.5t51 -5.5q46 -11 89 -41
t79 -93q17 -30 26.5 -63.5t14.5 -63.5t6 -53.5t1 -32.5q0 -15 -2.5 -46t-8.5 -68t-16 -76.5t-25 -71.5q-20 -44 -41 -74.5t-63 -53.5q-26 -14 -52.5 -19.5t-52 -4t-48.5 10t-42 21.5q-29 20 -54 54t-30 91q-3 30 2 57t14 49.5t19.5 40t19.5 28.5q26 32 60 52.5t82 18.5
q22 -1 39 -4.5t33 -11t34.5 -20.5t43.5 -32q6 32 8 59.5t3 56.5q0 18 -3 41t-8 45t-10.5 41.5t-10.5 31.5q-5 10 -14 25t-23 28.5t-33 23.5t-42 12q-27 2 -43.5 1t-30 -5t-27.5 -11t-36 -16z" />
    <glyph glyph-name="product" unicode="&#x220f;" horiz-adv-x="823" 
d="M706 3q0 -26 7 -42t19.5 -24.5t30.5 -11.5t40 -3v-23h-306v23q22 0 39.5 3t30 11.5t19.5 24.5t7 42v693h-358v-693q0 -26 7 -42t19.5 -24.5t30.5 -11.5t40 -3v-23h-307v23q22 0 40 3t31 11.5t19.5 24.5t6.5 42v626q0 35 -11 55t-26 29.5t-31.5 12t-26.5 2.5v23h773v-23
q-11 0 -27 -2.5t-31 -12t-25.5 -29.5t-10.5 -55v-626z" />
    <glyph glyph-name="summation" unicode="&#x2211;" horiz-adv-x="713" 
d="M623 586h-20q-8 24 -14.5 45t-21.5 36.5t-42 24t-75 8.5h-263l273 -358l-294 -339h371q29 0 49 5t34.5 18t26.5 35t25 55h23q-9 -38 -15.5 -63.5t-11 -48.5t-8 -48.5t-8.5 -63.5q-20 3 -39 7t-38 4h-503q-15 0 -29 -1.5t-29 -1.5l349 398l-347 454q26 -2 52 -4.5t52 -2.5
h497z" />
    <glyph glyph-name="minus" unicode="&#x2212;" 
d="M526 337h-452v68h452v-68z" />
    <glyph glyph-name="radical" unicode="&#x221a;" horiz-adv-x="549" 
d="M10 450l146 72l197 -403l127 798l35 -5l-150 -950l-243 502l-96 -47z" />
    <glyph glyph-name="infinity" unicode="&#x221e;" horiz-adv-x="713" 
d="M390 264q22 -21 37.5 -36t29.5 -25t29 -16.5t36 -11.5t41 -0.5t36.5 15.5t27 29t11.5 40q0 16 -8 36t-24 35t-40.5 20.5t-56.5 -5.5q-13 -5 -25 -11t-26 -16t-30.5 -23t-37.5 -31zM324 264q-21 18 -37.5 31t-30.5 23t-26 16t-25 11q-32 11 -56.5 5.5t-40.5 -20.5t-24 -35
t-8 -36q1 -22 11.5 -40t27 -29t36.5 -15.5t41 0.5t36 11.5t29 16.5t29.5 25t37.5 36zM357 297q23 21 39.5 35t30.5 24.5t27.5 18.5t31.5 16q36 16 71 13t63 -20t46.5 -44.5t21.5 -60.5q3 -28 -6.5 -56.5t-29.5 -51.5t-48.5 -36t-62.5 -10q-39 4 -69 18t-52.5 31t-38 33
t-24.5 24q-9 -8 -24.5 -24t-38 -33t-52.5 -31t-69 -18q-35 -3 -63 10t-48 36t-29.5 51.5t-6.5 56.5q3 33 21.5 60.5t46.5 44.5t63 20t71 -13q18 -8 31.5 -16t27.5 -18.5t30.5 -24.5t39.5 -35z" />
    <glyph glyph-name="integral" unicode="&#x222b;" horiz-adv-x="274" 
d="M189 272q-1 -118 -12.5 -188t-21.5 -105q-8 -29 -15.5 -41t-13.5 -20q-3 -4 -12.5 -9.5t-22 -10t-27 -5.5t-26.5 5t-21 18.5t-12 20.5q-6 17 0 31.5t24 23.5q17 9 30 1.5t27 -21.5q11 -12 19 -6t13 22.5t7 39.5t1 46q-1 28 -2 57t-2 65.5t-1.5 83t-0.5 108.5v144
q0 60 1 105.5t4 82.5t8 66t13 56q5 15 17 35t28 30q10 7 21.5 8.5t22 -0.5t19.5 -5.5t15 -7.5t11.5 -11.5t8.5 -17t1.5 -19.5t-8.5 -19q-5 -6 -14 -11t-19 -7t-20.5 0.5t-17.5 10.5q-17 18 -28 11t-12 -21t2 -48t7 -80t7 -98.5t3 -103.5z" />
    <glyph glyph-name="approxequal" unicode="&#x2248;" horiz-adv-x="549" 
d="M527 219q-15 -25 -36.5 -42t-45.5 -26t-49 -10.5t-47 4.5l-150 43q-36 10 -60.5 5.5t-41 -15.5t-26 -24t-14.5 -19l-43 27q40 53 90 70t105 2l151 -42q15 -5 34 -3.5t45 12.5q12 5 27 16.5t24 25.5zM527 370q-15 -25 -36.5 -42t-45.5 -26t-49 -10.5t-47 4.5l-150 43
q-36 10 -60.5 5.5t-41 -15.5t-26 -24t-14.5 -19l-43 27q40 53 90 70t105 2l151 -42q15 -5 34 -3.5t45 12.5q12 5 27 16.5t24 25.5z" />
    <glyph glyph-name="notequal" unicode="&#x2260;" 
d="M528 245h-260l-93 -169h-76l94 169h-121v64h157l68 124h-225v64h261l86 157h74l-86 -157h121v-64h-157l-68 -124h225v-64z" />
    <glyph glyph-name="lessequal" unicode="&#x2264;" 
d="M526 11h-453v68h453v-68zM526 143l-453 195v70l453 194v-70l-370 -159l370 -161v-69z" />
    <glyph glyph-name="greaterequal" unicode="&#x2265;" 
d="M526 11h-453v68h453v-68zM526 338l-453 -195v69l370 161l-370 159v70l453 -194v-70z" />
    <glyph glyph-name="lozenge" unicode="&#x25ca;" horiz-adv-x="494" 
d="M242 691l-164 -314l164 -323l164 323zM212 0l-194 377l194 368h60l194 -368l-194 -377h-60z" />
    <glyph glyph-name="fi" unicode="&#xfb01;" horiz-adv-x="549" 
d="M321 681q-14 3 -29 4t-29 1q-38 0 -57.5 -16t-19.5 -59v-56h117v-68h-117v-487h-85v487h-90v68h90v56q0 78 39 112t122 34q13 0 29 -2.5t30 -5.5v-68zM472 0h-85v555h85v-555zM472 673h-85v83h85v-83z" />
    <glyph glyph-name="fl" unicode="&#xfb02;" horiz-adv-x="550" 
d="M321 681q-15 2 -27.5 3.5t-28.5 1.5q-38 0 -58.5 -15.5t-20.5 -59.5v-56h117v-68h-117v-487h-85v487h-90v68h90v56q0 78 39 112t122 34q12 0 28 -2.5t31 -5.5v-68zM472 0h-85v756h85v-756z" />
    <glyph glyph-name="Delta.001" horiz-adv-x="627" 
d="M309 627l-189 -555h382zM6 0l258 742h94l263 -742h-615z" />
    <glyph glyph-name="Omega.001" horiz-adv-x="736" 
d="M439 0v64q33 33 59.5 67t45 73t29 84.5t10.5 102.5q0 66 -15.5 119.5t-44 91t-68 57.5t-87.5 20t-87.5 -20t-68 -57.5t-44 -91t-15.5 -119.5q0 -57 10 -102.5t29 -84.5t45.5 -73t59.5 -67v-64h-238v75h131q-68 66 -99.5 147t-31.5 169q0 82 21 149t60.5 115t97 74.5
t130.5 26.5t130.5 -26.5t97 -74.5t60.5 -115t21 -149q0 -88 -31.5 -169t-99.5 -147h131v-75h-238z" />
    <glyph glyph-name="mu.001" horiz-adv-x="582" 
d="M425 0v60q-29 -28 -70 -49.5t-91 -21.5q-33 0 -59 9.5t-45 26.5v-227h-85v757h85v-376q0 -55 23.5 -86.5t79.5 -31.5q39 0 80 20t79 50v424h86v-555h-83z" />
    <glyph glyph-name="pi.001" horiz-adv-x="663" 
d="M543 487v-487h-86v487h-252v-487h-85v487h-110v68h643v-68h-110z" />
    </font>
</defs>
</svg>
